999
dxflib 2.2.0.0
  0
SECTION
  2
HEADER
  9
$ACADVER
  1
AC1015
  9
$HANDSEED
  5
FFFF
  9
$DIMASZ
 40
2.5
  9
$GRIDMODE
 70
1
  9
$PLIMMIN
 10
0.0
 20
0.0
  9
$DIMEXE
 40
1.25
  9
$DIMGAP
 40
0.625
  9
$PLIMMAX
 10
210.0
 20
297.0
  9
$INSUNITS
 70
4
  9
$DIMSTYLE
  2
Standard
  9
$DIMEXO
 40
0.625
  9
$DIMTXT
 40
2.5
  0
ENDSEC
  0
SECTION
  2
TABLES
  0
TABLE
  2
VPORT
  5
8
100
AcDbSymbolTable
 70
1
  0
VPORT
  5
30
100
AcDbSymbolTableRecord
100
AcDbViewportTableRecord
  2
*Active
 70
0
 10
0.0
 20
0.0
 11
1.0
 21
1.0
 12
286.3055555555554861
 22
148.5
 13
0.0
 23
0.0
 14
10.0
 24
10.0
 15
10.0
 25
10.0
 16
0.0
 26
0.0
 36
1.0
 17
0.0
 27
0.0
 37
0.0
 40
297.0
 41
1.92798353909465
 42
50.0
 43
0.0
 44
0.0
 50
0.0
 51
0.0
 71
0
 72
100
 73
1
 74
3
 75
1
 76
1
 77
0
 78
0
281
0
 65
1
110
0.0
120
0.0
130
0.0
111
1.0
121
0.0
131
0.0
112
0.0
122
1.0
132
0.0
 79
0
146
0.0
  0
ENDTAB
  0
TABLE
  2
LTYPE
  5
5
100
AcDbSymbolTable
 70
21
  0
LTYPE
  5
14
100
AcDbSymbolTableRecord
100
AcDbLinetypeTableRecord
  2
ByBlock
 70
0
  3

 72
65
 73
0
 40
0.0
  0
LTYPE
  5
15
100
AcDbSymbolTableRecord
100
AcDbLinetypeTableRecord
  2
ByLayer
 70
0
  3

 72
65
 73
0
 40
0.0
  0
LTYPE
  5
16
100
AcDbSymbolTableRecord
100
AcDbLinetypeTableRecord
  2
CONTINUOUS
 70
0
  3
Solid line
 72
65
 73
0
 40
0.0
  0
LTYPE
  5
31
100
AcDbSymbolTableRecord
100
AcDbLinetypeTableRecord
  2
DOT
 70
0
  3
Dot . . . . . . . . . . . . . . . . . . . . . .
 72
65
 73
2
 40
6.3499999999999996
 49
0.0
 74
0
 49
-6.3499999999999996
 74
0
  0
LTYPE
  5
32
100
AcDbSymbolTableRecord
100
AcDbLinetypeTableRecord
  2
DOT2
 70
0
  3
Dot (.5x) .....................................
 72
65
 73
2
 40
3.1749999999999998
 49
0.0
 74
0
 49
-3.1749999999999998
 74
0
  0
LTYPE
  5
33
100
AcDbSymbolTableRecord
100
AcDbLinetypeTableRecord
  2
DOTX2
 70
0
  3
Dot (2x) .  .  .  .  .  .  .  .  .  .  .  .  .
 72
65
 73
2
 40
12.6999999999999993
 49
0.0
 74
0
 49
-12.6999999999999993
 74
0
  0
LTYPE
  5
34
100
AcDbSymbolTableRecord
100
AcDbLinetypeTableRecord
  2
DASHED
 70
0
  3
Dashed __ __ __ __ __ __ __ __ __ __ __ __ __ _
 72
65
 73
2
 40
19.0500000000000007
 49
12.6999999999999993
 74
0
 49
-6.3499999999999996
 74
0
  0
LTYPE
  5
35
100
AcDbSymbolTableRecord
100
AcDbLinetypeTableRecord
  2
DASHED2
 70
0
  3
Dashed (.5x) _ _ _ _ _ _ _ _ _ _ _ _ _ _ _ _ _
 72
65
 73
2
 40
9.5250000000000004
 49
6.3499999999999996
 74
0
 49
-3.1749999999999998
 74
0
  0
LTYPE
  5
36
100
AcDbSymbolTableRecord
100
AcDbLinetypeTableRecord
  2
DASHEDX2
 70
0
  3
Dashed (2x) ____  ____  ____  ____  ____  ___
 72
65
 73
2
 40
38.1000000000000014
 49
25.3999999999999986
 74
0
 49
-12.6999999999999993
 74
0
  0
LTYPE
  5
37
100
AcDbSymbolTableRecord
100
AcDbLinetypeTableRecord
  2
DASHDOT
 70
0
  3
Dash dot __ . __ . __ . __ . __ . __ . __ . __
 72
65
 73
4
 40
25.3999999999999986
 49
12.6999999999999993
 74
0
 49
-6.3499999999999996
 74
0
 49
0.0
 74
0
 49
-6.3499999999999996
 74
0
  0
LTYPE
  5
38
100
AcDbSymbolTableRecord
100
AcDbLinetypeTableRecord
  2
DASHDOT2
 70
0
  3
Dash dot (.5x) _._._._._._._._._._._._._._._.
 72
65
 73
4
 40
12.6999999999999993
 49
6.3499999999999996
 74
0
 49
-3.1749999999999998
 74
0
 49
0.0
 74
0
 49
-3.1749999999999998
 74
0
  0
LTYPE
  5
39
100
AcDbSymbolTableRecord
100
AcDbLinetypeTableRecord
  2
DASHDOTX2
 70
0
  3
Dash dot (2x) ____  .  ____  .  ____  .  ___
 72
65
 73
4
 40
50.7999999999999972
 49
25.3999999999999986
 74
0
 49
-12.6999999999999993
 74
0
 49
0.0
 74
0
 49
-12.6999999999999993
 74
0
  0
LTYPE
  5
3A
100
AcDbSymbolTableRecord
100
AcDbLinetypeTableRecord
  2
DIVIDE
 70
0
  3
Divide ____ . . ____ . . ____ . . ____ . . ____
 72
65
 73
6
 40
31.75
 49
12.6999999999999993
 74
0
 49
-6.3499999999999996
 74
0
 49
0.0
 74
0
 49
-6.3499999999999996
 74
0
 49
0.0
 74
0
 49
-6.3499999999999996
 74
0
  0
LTYPE
  5
3B
100
AcDbSymbolTableRecord
100
AcDbLinetypeTableRecord
  2
DIVIDE2
 70
0
  3
Divide (.5x) __..__..__..__..__..__..__..__.._
 72
65
 73
6
 40
15.875
 49
6.3499999999999996
 74
0
 49
-3.1749999999999998
 74
0
 49
0.0
 74
0
 49
-3.1749999999999998
 74
0
 49
0.0
 74
0
 49
-3.1749999999999998
 74
0
  0
LTYPE
  5
3C
100
AcDbSymbolTableRecord
100
AcDbLinetypeTableRecord
  2
DIVIDEX2
 70
0
  3
Divide (2x) ________  .  .  ________  .  .  _
 72
65
 73
6
 40
63.5
 49
25.3999999999999986
 74
0
 49
-12.6999999999999993
 74
0
 49
0.0
 74
0
 49
-12.6999999999999993
 74
0
 49
0.0
 74
0
 49
-12.6999999999999993
 74
0
  0
LTYPE
  5
3D
100
AcDbSymbolTableRecord
100
AcDbLinetypeTableRecord
  2
CENTER
 70
0
  3
Center ____ _ ____ _ ____ _ ____ _ ____ _ ____
 72
65
 73
4
 40
50.7999999999999972
 49
31.75
 74
0
 49
-6.3499999999999996
 74
0
 49
6.3499999999999996
 74
0
 49
-6.3499999999999996
 74
0
  0
LTYPE
  5
3E
100
AcDbSymbolTableRecord
100
AcDbLinetypeTableRecord
  2
CENTER2
 70
0
  3
Center (.5x) ___ _ ___ _ ___ _ ___ _ ___ _ ___
 72
65
 73
4
 40
28.5749999999999993
 49
19.0500000000000007
 74
0
 49
-3.1749999999999998
 74
0
 49
3.1749999999999998
 74
0
 49
-3.1749999999999998
 74
0
  0
LTYPE
  5
3F
100
AcDbSymbolTableRecord
100
AcDbLinetypeTableRecord
  2
CENTERX2
 70
0
  3
Center (2x) ________  __  ________  __  _____
 72
65
 73
4
 40
101.5999999999999943
 49
63.5
 74
0
 49
-12.6999999999999993
 74
0
 49
12.6999999999999993
 74
0
 49
-12.6999999999999993
 74
0
  0
LTYPE
  5
40
100
AcDbSymbolTableRecord
100
AcDbLinetypeTableRecord
  2
BORDER
 70
0
  3
Border __ __ . __ __ . __ __ . __ __ . __ __ .
 72
65
 73
6
 40
44.4500000000000028
 49
12.6999999999999993
 74
0
 49
-6.3499999999999996
 74
0
 49
12.6999999999999993
 74
0
 49
-6.3499999999999996
 74
0
 49
0.0
 74
0
 49
-6.3499999999999996
 74
0
  0
LTYPE
  5
41
100
AcDbSymbolTableRecord
100
AcDbLinetypeTableRecord
  2
BORDER2
 70
0
  3
Border (.5x) __.__.__.__.__.__.__.__.__.__.__.
 72
65
 73
6
 40
22.2250000000000014
 49
6.3499999999999996
 74
0
 49
-3.1749999999999998
 74
0
 49
6.3499999999999996
 74
0
 49
-3.1749999999999998
 74
0
 49
0.0
 74
0
 49
-3.1749999999999998
 74
0
  0
LTYPE
  5
42
100
AcDbSymbolTableRecord
100
AcDbLinetypeTableRecord
  2
BORDERX2
 70
0
  3
Border (2x) ____  ____  .  ____  ____  .  ___
 72
65
 73
6
 40
88.9000000000000057
 49
25.3999999999999986
 74
0
 49
-12.6999999999999993
 74
0
 49
25.3999999999999986
 74
0
 49
-12.6999999999999993
 74
0
 49
0.0
 74
0
 49
-12.6999999999999993
 74
0
  0
ENDTAB
  0
TABLE
  2
LAYER
  5
2
100
AcDbSymbolTable
 70
2
  0
LAYER
  5
10
100
AcDbSymbolTableRecord
100
AcDbLayerTableRecord
  2
0
 70
0
 62
7
  6
CONTINUOUS
290
1
370
0
390
F
  0
LAYER
  5
43
100
AcDbSymbolTableRecord
100
AcDbLayerTableRecord
  2
Dimensions
 70
0
 62
7
  6
CONTINUOUS
290
1
370
0
390
F
  0
ENDTAB
  0
TABLE
  2
STYLE
  5
3
100
AcDbSymbolTable
 70
1
  0
STYLE
  5
11
100
AcDbSymbolTableRecord
100
AcDbTextStyleTableRecord
  2
Standard
 70
0
 40
0.0
 41
0.75
 50
0.0
 71
0
 42
2.5
  3
txt
  4

  0
ENDTAB
  0
TABLE
  2
VIEW
  5
6
100
AcDbSymbolTable
 70
0
  0
ENDTAB
  0
TABLE
  2
UCS
  5
7
100
AcDbSymbolTable
 70
0
  0
ENDTAB
  0
TABLE
  2
APPID
  5
9
100
AcDbSymbolTable
 70
1
  0
APPID
  5
12
100
AcDbSymbolTableRecord
100
AcDbRegAppTableRecord
  2
ACAD
 70
0
  0
ENDTAB
  0
TABLE
  2
DIMSTYLE
  5
A
100
AcDbSymbolTable
 70
1
100
AcDbDimStyleTable
 71
0
  0
DIMSTYLE
105
27
100
AcDbSymbolTableRecord
100
AcDbDimStyleTableRecord
  2
Standard
 41
2.5
 42
0.625
 43
3.75
 44
1.25
 70
0
 73
0
 74
0
 77
1
 78
8
140
2.5
141
2.5
143
0.03937007874016
147
0.625
171
3
172
1
271
2
272
2
274
3
278
44
283
0
284
8
340
11
  0
ENDTAB
  0
TABLE
  2
BLOCK_RECORD
  5
1
100
AcDbSymbolTable
 70
1
  0
BLOCK_RECORD
  5
1F
100
AcDbSymbolTableRecord
100
AcDbBlockTableRecord
  2
*Model_Space
340
22
  0
BLOCK_RECORD
  5
1B
100
AcDbSymbolTableRecord
100
AcDbBlockTableRecord
  2
*Paper_Space
340
1E
  0
BLOCK_RECORD
  5
23
100
AcDbSymbolTableRecord
100
AcDbBlockTableRecord
  2
*Paper_Space0
340
26
  0
BLOCK_RECORD
  5
44
100
AcDbSymbolTableRecord
100
AcDbBlockTableRecord
  2
T-slot-female-3mm
340
0
  0
BLOCK_RECORD
  5
45
100
AcDbSymbolTableRecord
100
AcDbBlockTableRecord
  2
Bar-mount
340
0
  0
BLOCK_RECORD
  5
46
100
AcDbSymbolTableRecord
100
AcDbBlockTableRecord
  2
T-slot-male-3mm
340
0
  0
BLOCK_RECORD
  5
47
100
AcDbSymbolTableRecord
100
AcDbBlockTableRecord
  2
Motor-bolt-slit
340
0
  0
BLOCK_RECORD
  5
48
100
AcDbSymbolTableRecord
100
AcDbBlockTableRecord
  2
Bar-mount-perfs
340
0
  0
BLOCK_RECORD
  5
49
100
AcDbSymbolTableRecord
100
AcDbBlockTableRecord
  2
Bar-mount-cap
340
0
  0
BLOCK_RECORD
  5
4A
100
AcDbSymbolTableRecord
100
AcDbBlockTableRecord
  2
Motor-mount-sliding
340
0
  0
BLOCK_RECORD
  5
4B
100
AcDbSymbolTableRecord
100
AcDbBlockTableRecord
  2
Motor-mount-centering
340
0
  0
ENDTAB
  0
ENDSEC
  0
SECTION
  2
BLOCKS
  0
BLOCK
  5
20
100
AcDbEntity
  8
0
100
AcDbBlockBegin
  2
*Model_Space
 70
0
 10
0.0
 20
0.0
 30
0.0
  3
*Model_Space
  1

  0
ENDBLK
  5
21
100
AcDbEntity
  8
0
100
AcDbBlockEnd
  0
BLOCK
  5
1C
100
AcDbEntity
 67
1
  8
0
100
AcDbBlockBegin
  2
*Paper_Space
 70
0
 10
0.0
 20
0.0
 30
0.0
  3
*Paper_Space
  1

  0
ENDBLK
  5
1D
100
AcDbEntity
 67
1
  8
0
100
AcDbBlockEnd
  0
BLOCK
  5
24
100
AcDbEntity
  8
0
100
AcDbBlockBegin
  2
*Paper_Space0
 70
0
 10
0.0
 20
0.0
 30
0.0
  3
*Paper_Space0
  1

  0
ENDBLK
  5
25
100
AcDbEntity
  8
0
100
AcDbBlockEnd
  0
BLOCK
  5
4C
100
AcDbEntity
  8
0
100
AcDbBlockBegin
  2
T-slot-female-3mm
 70
0
 10
0.0
 20
0.0
 30
0.0
  3
T-slot-female-3mm
  1

  0
LINE
  5
4D
100
AcDbEntity
100
AcDbLine
  8
0
 62
256
370
-1
  6
ByLayer
 10
9.9000000000000057
 20
-3.1000000000000001
 30
0.0
 11
20.1000000000000085
 21
-3.1000000000000001
 31
0.0
  0
LINE
  5
4E
100
AcDbEntity
100
AcDbLine
  8
0
 62
256
370
-1
  6
ByLayer
 10
20.1000000000000085
 20
-3.1000000000000001
 30
0.0
 11
20.1000000000000085
 21
3.1000000000000001
 31
0.0
  0
LINE
  5
4F
100
AcDbEntity
100
AcDbLine
  8
0
 62
256
370
-1
  6
ByLayer
 10
20.1000000000000085
 20
3.1000000000000001
 30
0.0
 11
9.9000000000000057
 21
3.1000000000000001
 31
0.0
  0
LINE
  5
50
100
AcDbEntity
100
AcDbLine
  8
0
 62
256
370
-1
  6
ByLayer
 10
9.9000000000000057
 20
3.1000000000000001
 30
0.0
 11
9.9000000000000057
 21
-3.1000000000000001
 31
0.0
  0
LINE
  5
51
100
AcDbEntity
100
AcDbLine
  8
0
 62
256
370
-1
  6
ByLayer
 10
-9.9000000000000057
 20
-3.1000000000000014
 30
0.0
 11
-20.1000000000000085
 21
-3.0999999999999996
 31
0.0
  0
LINE
  5
52
100
AcDbEntity
100
AcDbLine
  8
0
 62
256
370
-1
  6
ByLayer
 10
-20.1000000000000085
 20
-3.0999999999999996
 30
0.0
 11
-20.1000000000000085
 21
3.0999999999999952
 31
0.0
  0
LINE
  5
53
100
AcDbEntity
100
AcDbLine
  8
0
 62
256
370
-1
  6
ByLayer
 10
-20.1000000000000085
 20
3.0999999999999952
 30
0.0
 11
-9.9000000000000057
 21
3.1000000000000014
 31
0.0
  0
LINE
  5
54
100
AcDbEntity
100
AcDbLine
  8
0
 62
256
370
-1
  6
ByLayer
 10
-9.9000000000000057
 20
3.1000000000000014
 30
0.0
 11
-9.9000000000000057
 21
-3.1000000000000014
 31
0.0
  0
CIRCLE
  5
55
100
AcDbEntity
100
AcDbCircle
  8
0
 62
256
370
-1
  6
ByLayer
 10
0.0
 20
0.0
 30
0.0
 40
1.5
  0
ENDBLK
  5
56
100
AcDbEntity
  8
0
100
AcDbBlockEnd
  0
BLOCK
  5
57
100
AcDbEntity
  8
0
100
AcDbBlockBegin
  2
Bar-mount
 70
0
 10
0.0
 20
0.0
 30
0.0
  3
Bar-mount
  1

  0
CIRCLE
  5
58
100
AcDbEntity
100
AcDbCircle
  8
0
 62
256
370
-1
  6
ByLayer
 10
0.0
 20
0.0
 30
0.0
 40
4.0999999999999996
  0
CIRCLE
  5
59
100
AcDbEntity
100
AcDbCircle
  8
0
 62
256
370
-1
  6
ByLayer
 10
6.9282032302755097
 20
3.9999999999999996
 30
0.0
 40
1.5
  0
CIRCLE
  5
5A
100
AcDbEntity
100
AcDbCircle
  8
0
 62
256
370
-1
  6
ByLayer
 10
-6.9282032302755079
 20
4.0000000000000027
 30
0.0
 40
1.5
  0
CIRCLE
  5
5B
100
AcDbEntity
100
AcDbCircle
  8
0
 62
256
370
-1
  6
ByLayer
 10
-0.0000000000000015
 20
-8.0
 30
0.0
 40
1.5
  0
ENDBLK
  5
5C
100
AcDbEntity
  8
0
100
AcDbBlockEnd
  0
BLOCK
  5
5D
100
AcDbEntity
  8
0
100
AcDbBlockBegin
  2
T-slot-male-3mm
 70
0
 10
0.0
 20
0.0
 30
0.0
  3
T-slot-male-3mm
  1

  0
LINE
  5
5E
100
AcDbEntity
100
AcDbLine
  8
0
 62
256
370
-1
  6
ByLayer
 10
0.0
 20
11.0
 30
0.0
 11
1.5
 21
11.0
 31
0.0
  0
LINE
  5
5F
100
AcDbEntity
100
AcDbLine
  8
0
 62
256
370
-1
  6
ByLayer
 10
1.5
 20
11.0
 30
0.0
 11
1.5
 21
9.5999999999999996
 31
0.0
  0
LINE
  5
60
100
AcDbEntity
100
AcDbLine
  8
0
 62
256
370
-1
  6
ByLayer
 10
1.5
 20
9.5999999999999996
 30
0.0
 11
2.75
 21
9.5999999999999996
 31
0.0
  0
LINE
  5
61
100
AcDbEntity
100
AcDbLine
  8
0
 62
256
370
-1
  6
ByLayer
 10
2.75
 20
9.5999999999999996
 30
0.0
 11
2.75
 21
7.7999999999999998
 31
0.0
  0
LINE
  5
62
100
AcDbEntity
100
AcDbLine
  8
0
 62
256
370
-1
  6
ByLayer
 10
2.75
 20
7.7999999999999998
 30
0.0
 11
1.5
 21
7.7999999999999998
 31
0.0
  0
LINE
  5
63
100
AcDbEntity
100
AcDbLine
  8
0
 62
256
370
-1
  6
ByLayer
 10
1.5
 20
7.7999999999999998
 30
0.0
 11
1.5
 21
0.0
 31
0.0
  0
LINE
  5
64
100
AcDbEntity
100
AcDbLine
  8
0
 62
256
370
-1
  6
ByLayer
 10
1.5
 20
0.0
 30
0.0
 11
9.8999999999999773
 21
0.0
 31
0.0
  0
LINE
  5
65
100
AcDbEntity
100
AcDbLine
  8
0
 62
256
370
-1
  6
ByLayer
 10
9.8999999999999773
 20
0.0
 30
0.0
 11
10.5
 21
-6.0
 31
0.0
  0
LINE
  5
66
100
AcDbEntity
100
AcDbLine
  8
0
 62
256
370
-1
  6
ByLayer
 10
10.5
 20
-6.0
 30
0.0
 11
20.1000000000000227
 21
-6.0
 31
0.0
  0
LINE
  5
67
100
AcDbEntity
100
AcDbLine
  8
0
 62
256
370
-1
  6
ByLayer
 10
20.1000000000000227
 20
-6.0
 30
0.0
 11
20.7000000000000455
 21
0.0
 31
0.0
  0
LINE
  5
68
100
AcDbEntity
100
AcDbLine
  8
0
 62
256
370
-1
  6
ByLayer
 10
0.0
 20
11.0
 30
0.0
 11
-1.5
 21
11.0
 31
0.0
  0
LINE
  5
69
100
AcDbEntity
100
AcDbLine
  8
0
 62
256
370
-1
  6
ByLayer
 10
-1.5
 20
11.0
 30
0.0
 11
-1.5
 21
9.5999999999999996
 31
0.0
  0
LINE
  5
6A
100
AcDbEntity
100
AcDbLine
  8
0
 62
256
370
-1
  6
ByLayer
 10
-1.5
 20
9.5999999999999996
 30
0.0
 11
-2.75
 21
9.5999999999999996
 31
0.0
  0
LINE
  5
6B
100
AcDbEntity
100
AcDbLine
  8
0
 62
256
370
-1
  6
ByLayer
 10
-2.75
 20
9.5999999999999996
 30
0.0
 11
-2.75
 21
7.8000000000000007
 31
0.0
  0
LINE
  5
6C
100
AcDbEntity
100
AcDbLine
  8
0
 62
256
370
-1
  6
ByLayer
 10
-2.75
 20
7.8000000000000007
 30
0.0
 11
-1.5
 21
7.8000000000000007
 31
0.0
  0
LINE
  5
6D
100
AcDbEntity
100
AcDbLine
  8
0
 62
256
370
-1
  6
ByLayer
 10
-1.5
 20
7.8000000000000007
 30
0.0
 11
-1.5
 21
0.0
 31
0.0
  0
LINE
  5
6E
100
AcDbEntity
100
AcDbLine
  8
0
 62
256
370
-1
  6
ByLayer
 10
-1.5
 20
0.0
 30
0.0
 11
-9.8999999999999773
 21
0.0000000000000036
 31
0.0
  0
LINE
  5
6F
100
AcDbEntity
100
AcDbLine
  8
0
 62
256
370
-1
  6
ByLayer
 10
-9.8999999999999773
 20
0.0000000000000036
 30
0.0
 11
-10.5
 21
-5.9999999999999964
 31
0.0
  0
LINE
  5
70
100
AcDbEntity
100
AcDbLine
  8
0
 62
256
370
-1
  6
ByLayer
 10
-10.5
 20
-5.9999999999999964
 30
0.0
 11
-20.1000000000000227
 21
-5.9999999999999964
 31
0.0
  0
LINE
  5
71
100
AcDbEntity
100
AcDbLine
  8
0
 62
256
370
-1
  6
ByLayer
 10
-20.1000000000000227
 20
-5.9999999999999964
 30
0.0
 11
-20.7000000000000455
 21
0.0000000000000053
 31
0.0
  0
ENDBLK
  5
72
100
AcDbEntity
  8
0
100
AcDbBlockEnd
  0
BLOCK
  5
73
100
AcDbEntity
  8
0
100
AcDbBlockBegin
  2
Motor-bolt-slit
 70
0
 10
0.0
 20
0.0
 30
0.0
  3
Motor-bolt-slit
  1

  0
LINE
  5
74
100
AcDbEntity
100
AcDbLine
  8
0
 62
256
370
-1
  6
ByLayer
 10
-3.5
 20
1.5
 30
0.0
 11
3.5
 21
1.5
 31
0.0
  0
LINE
  5
75
100
AcDbEntity
100
AcDbLine
  8
0
 62
256
370
-1
  6
ByLayer
 10
3.5
 20
-1.5
 30
0.0
 11
-3.5
 21
-1.5
 31
0.0
  0
ARC
  5
76
100
AcDbEntity
  8
0
 62
256
370
-1
  6
ByLayer
100
AcDbCircle
 10
-3.5
 20
0.0
 30
0.0
 40
1.5
100
AcDbArc
 50
90.0
 51
270.0
  0
ARC
  5
77
100
AcDbEntity
  8
0
 62
256
370
-1
  6
ByLayer
100
AcDbCircle
 10
3.5
 20
0.0
 30
0.0
 40
1.5
100
AcDbArc
 50
270.0
 51
90.0
  0
ENDBLK
  5
78
100
AcDbEntity
  8
0
100
AcDbBlockEnd
  0
BLOCK
  5
79
100
AcDbEntity
  8
0
100
AcDbBlockBegin
  2
Bar-mount-perfs
 70
0
 10
0.0
 20
0.0
 30
0.0
  3
Bar-mount-perfs
  1

  0
CIRCLE
  5
7A
100
AcDbEntity
100
AcDbCircle
  8
0
 62
256
370
-1
  6
ByLayer
 10
6.9282032302754999
 20
4.0
 30
0.0
 40
1.5
  0
CIRCLE
  5
7B
100
AcDbEntity
100
AcDbCircle
  8
0
 62
256
370
-1
  6
ByLayer
 10
-6.9282032302754999
 20
4.0
 30
0.0
 40
1.5
  0
CIRCLE
  5
7C
100
AcDbEntity
100
AcDbCircle
  8
0
 62
256
370
-1
  6
ByLayer
 10
0.0
 20
-8.0
 30
0.0
 40
1.5
  0
ENDBLK
  5
7D
100
AcDbEntity
  8
0
100
AcDbBlockEnd
  0
BLOCK
  5
7E
100
AcDbEntity
  8
0
100
AcDbBlockBegin
  2
Bar-mount-cap
 70
0
 10
0.0
 20
0.0
 30
0.0
  3
Bar-mount-cap
  1

  0
LINE
  5
7F
100
AcDbEntity
100
AcDbLine
  8
0
 62
256
370
-1
  6
ByLayer
 10
-9.9592921435210258
 20
2.25
 30
0.0
 11
-3.0310889132455259
 21
-9.75
 31
0.0
  0
LINE
  5
80
100
AcDbEntity
100
AcDbLine
  8
0
 62
256
370
-1
  6
ByLayer
 10
3.0310889132455259
 20
-9.75
 30
0.0
 11
9.9592921435210258
 21
2.25
 31
0.0
  0
LINE
  5
81
100
AcDbEntity
100
AcDbLine
  8
0
 62
256
370
-1
  6
ByLayer
 10
6.9282032302754999
 20
7.5
 30
0.0
 11
-6.9282032302754999
 21
7.5
 31
0.0
  0
INSERT
  5
82
100
AcDbEntity
100
AcDbBlockReference
  8
0
 62
256
370
-1
  6
ByLayer
  2
Bar-mount-perfs
 10
0.0
 20
0.0
 30
0.0
  0
ARC
  5
83
100
AcDbEntity
  8
0
 62
256
370
-1
  6
ByLayer
100
AcDbCircle
 10
0.0
 20
-8.0
 30
0.0
 40
3.5
100
AcDbArc
 50
210.0000000000000568
 51
329.9999999999999432
  0
ARC
  5
84
100
AcDbEntity
  8
0
 62
256
370
-1
  6
ByLayer
100
AcDbCircle
 10
-6.9282032302754999
 20
4.0
 30
0.0
 40
3.5
100
AcDbArc
 50
90.0
 51
210.0000000000000568
  0
ARC
  5
85
100
AcDbEntity
  8
0
 62
256
370
-1
  6
ByLayer
100
AcDbCircle
 10
6.9282032302754999
 20
4.0
 30
0.0
 40
3.5
100
AcDbArc
 50
329.9999999999999432
 51
90.0
  0
ENDBLK
  5
86
100
AcDbEntity
  8
0
100
AcDbBlockEnd
  0
BLOCK
  5
87
100
AcDbEntity
  8
0
100
AcDbBlockBegin
  2
Motor-mount-sliding
 70
0
 10
0.0
 20
0.0
 30
0.0
  3
Motor-mount-sliding
  1

  0
CIRCLE
  5
88
100
AcDbEntity
100
AcDbCircle
  8
0
 62
256
370
-1
  6
ByLayer
 10
0.0
 20
0.0
 30
0.0
 40
12.0
  0
INSERT
  5
89
100
AcDbEntity
100
AcDbBlockReference
  8
0
 62
256
370
-1
  6
ByLayer
  2
Motor-bolt-slit
 10
-15.5
 20
15.5
 30
0.0
 44
1.0
 45
1.0
  0
INSERT
  5
8A
100
AcDbEntity
100
AcDbBlockReference
  8
0
 62
256
370
-1
  6
ByLayer
  2
Motor-bolt-slit
 10
15.5
 20
15.5
 30
0.0
 44
1.0
 45
1.0
  0
INSERT
  5
8B
100
AcDbEntity
100
AcDbBlockReference
  8
0
 62
256
370
-1
  6
ByLayer
  2
Motor-bolt-slit
 10
15.5
 20
-15.5
 30
0.0
 44
1.0
 45
1.0
  0
INSERT
  5
8C
100
AcDbEntity
100
AcDbBlockReference
  8
0
 62
256
370
-1
  6
ByLayer
  2
Motor-bolt-slit
 10
-15.5
 20
-15.5
 30
0.0
 44
1.0
 45
1.0
  0
ENDBLK
  5
8D
100
AcDbEntity
  8
0
100
AcDbBlockEnd
  0
BLOCK
  5
8E
100
AcDbEntity
  8
0
100
AcDbBlockBegin
  2
Motor-mount-centering
 70
0
 10
0.0
 20
0.0
 30
0.0
  3
Motor-mount-centering
  1

  0
CIRCLE
  5
8F
100
AcDbEntity
100
AcDbCircle
  8
0
 62
256
370
-1
  6
ByLayer
 10
0.0
 20
0.0
 30
0.0
 40
12.0
  0
INSERT
  5
90
100
AcDbEntity
100
AcDbBlockReference
  8
0
 62
256
370
-1
  6
ByLayer
  2
Motor-bolt-slit
 10
15.5
 20
15.5
 30
0.0
 50
45.0
 44
1.0
 45
1.0
  0
INSERT
  5
91
100
AcDbEntity
100
AcDbBlockReference
  8
0
 62
256
370
-1
  6
ByLayer
  2
Motor-bolt-slit
 10
-15.5
 20
15.5
 30
0.0
 50
135.0
 44
1.0
 45
1.0
  0
INSERT
  5
92
100
AcDbEntity
100
AcDbBlockReference
  8
0
 62
256
370
-1
  6
ByLayer
  2
Motor-bolt-slit
 10
-15.5
 20
-15.5
 30
0.0
 50
225.0
 44
1.0
 45
1.0
  0
INSERT
  5
93
100
AcDbEntity
100
AcDbBlockReference
  8
0
 62
256
370
-1
  6
ByLayer
  2
Motor-bolt-slit
 10
15.5
 20
-15.5
 30
0.0
 50
315.0
 44
1.0
 45
1.0
  0
ENDBLK
  5
94
100
AcDbEntity
  8
0
100
AcDbBlockEnd
  0
ENDSEC
  0
SECTION
  2
ENTITIES
  0
LINE
  5
95
100
AcDbEntity
100
AcDbLine
  8
0
 62
256
370
-1
  6
ByLayer
 10
629.8999999999999773
 20
283.7000000000000455
 30
0.0
 11
629.8999999999999773
 21
288.0
 31
0.0
  0
INSERT
  5
96
100
AcDbEntity
100
AcDbBlockReference
  8
0
 62
256
370
-1
  6
ByLayer
  2
T-slot-male-3mm
 10
629.8999999999999773
 20
263.0
 30
0.0
 50
90.0
 44
1.0
 45
1.0
  0
LINE
  5
97
100
AcDbEntity
100
AcDbLine
  8
0
 62
256
370
-1
  6
ByLayer
 10
629.8999999999999773
 20
288.0
 30
0.0
 11
99.8999999999999773
 21
288.0
 31
0.0
  0
LINE
  5
98
100
AcDbEntity
100
AcDbLine
  8
0
 62
256
370
-1
  6
ByLayer
 10
629.8999999999999773
 20
230.0
 30
0.0
 11
99.8999999999999773
 21
230.0000000000000568
 31
0.0
  0
LINE
  5
99
100
AcDbEntity
100
AcDbLine
  8
0
 62
256
370
-1
  6
ByLayer
 10
629.8999999999999773
 20
242.2999999999999545
 30
0.0
 11
629.8999999999999773
 21
230.0
 31
0.0
  0
INSERT
  5
9A
100
AcDbEntity
100
AcDbBlockReference
  8
0
 62
256
370
-1
  6
ByLayer
  2
T-slot-male-3mm
 10
99.8999999999999773
 20
263.0
 30
0.0
 41
1.0
 42
-1.0
 43
1.0
 50
90.0
 44
1.0
 45
1.0
  0
LINE
  5
9B
100
AcDbEntity
100
AcDbLine
  8
0
 62
256
370
-1
  6
ByLayer
 10
99.899999999999892
 20
242.3000000000000114
 30
0.0
 11
99.8999999999999631
 21
230.0000000000000568
 31
0.0
  0
INSERT
  5
9C
100
AcDbEntity
100
AcDbBlockReference
  8
0
 62
256
370
-1
  6
ByLayer
  2
T-slot-female-3mm
 10
155.0
 20
237.0000000000000568
 30
0.0
 44
1.0
 45
1.0
  0
INSERT
  5
9D
100
AcDbEntity
100
AcDbBlockReference
  8
0
 62
256
370
-1
  6
ByLayer
  2
T-slot-female-3mm
 10
510.0
 20
237.0
 30
0.0
 44
1.0
 45
1.0
  0
INSERT
  5
9E
100
AcDbEntity
100
AcDbBlockReference
  8
0
 62
256
370
-1
  6
ByLayer
  2
T-slot-female-3mm
 10
570.0
 20
237.0
 30
0.0
 44
1.0
 45
1.0
  0
INSERT
  5
9F
100
AcDbEntity
100
AcDbBlockReference
  8
0
 62
256
370
-1
  6
ByLayer
  2
T-slot-female-3mm
 10
-315.0
 20
-132.9999999999999432
 30
0.0
 41
1.0
 42
-1.0
 43
1.0
 50
179.9999999999999716
 44
1.0
 45
1.0
  0
INSERT
  5
A0
100
AcDbEntity
100
AcDbBlockReference
  8
0
 62
256
370
-1
  6
ByLayer
  2
T-slot-female-3mm
 10
-315.0
 20
-185.0000000000001421
 30
0.0
 41
1.0
 42
-1.0
 43
1.0
 50
179.9999999999999716
 44
1.0
 45
1.0
  0
INSERT
  5
A1
100
AcDbEntity
100
AcDbBlockReference
  8
0
 62
256
370
-1
  6
ByLayer
  2
T-slot-male-3mm
 10
31.0000000000001137
 20
-358.0000000000001137
 30
0.0
 41
1.0
 42
-1.0
 43
1.0
 50
179.9999999999999716
 44
1.0
 45
1.0
  0
LINE
  5
A2
100
AcDbEntity
100
AcDbLine
  8
0
 62
256
370
-1
  6
ByLayer
 10
-337.0557670302935094
 20
-201.3284253955444285
 30
0.0
 11
10.2999999999998408
 21
-357.9999999999999432
 31
0.0
  0
ARC
  5
A3
100
AcDbEntity
  8
0
 62
256
370
-1
  6
ByLayer
100
AcDbCircle
 10
-334.9999999999998863
 20
-196.7705945609088189
 30
0.0
 40
5.0
100
AcDbArc
 50
179.9999999999999716
 51
245.7226894173313099
  0
LINE
  5
A4
100
AcDbEntity
100
AcDbLine
  8
0
 62
256
370
-1
  6
ByLayer
 10
-339.9999999999998863
 20
-123.2126548946761062
 30
0.0
 11
-340.0000000000001137
 21
-196.7705945609084779
 31
0.0
  0
LINE
  5
A5
100
AcDbEntity
100
AcDbLine
  8
0
 62
256
370
-1
  6
ByLayer
 10
10.2999999999999545
 20
39.9999999999998224
 30
0.0
 11
-337.0773209783136508
 21
-118.6646072307815132
 31
0.0
  0
ARC
  5
A6
100
AcDbEntity
  8
0
 62
256
370
-1
  6
ByLayer
100
AcDbCircle
 10
-335.0000000000001137
 20
-123.212654894675623
 30
0.0
 40
5.0
100
AcDbArc
 50
114.5485524946261364
 51
179.9999999999999716
  0
INSERT
  5
A7
100
AcDbEntity
100
AcDbBlockReference
  8
0
 62
256
370
-1
  6
ByLayer
  2
T-slot-male-3mm
 10
31.0
 20
39.9999999999999716
 30
0.0
 41
1.0
 42
-1.0
 43
1.0
 50
360.0
 44
1.0
 45
1.0
  0
LINE
  5
A8
100
AcDbEntity
100
AcDbLine
  8
0
 62
256
370
-1
  6
ByLayer
 10
75.0000000000001137
 20
40.0000000000003482
 30
0.0
 11
51.6999999999999886
 21
39.9999999999998863
 31
0.0
  0
LINE
  5
A9
100
AcDbEntity
100
AcDbLine
  8
0
 62
256
370
-1
  6
ByLayer
 10
51.6999999999998749
 20
-357.9999999999998295
 30
0.0
 11
75.0000000000000568
 21
-358.0
 31
0.0
  0
ARC
  5
AA
100
AcDbEntity
  8
0
 62
256
370
-1
  6
ByLayer
100
AcDbCircle
 10
75.0
 20
34.9999999999998437
 30
0.0
 40
5.0
100
AcDbArc
 50
360.0
 51
89.9999999999999858
  0
ARC
  5
AB
100
AcDbEntity
  8
0
 62
256
370
-1
  6
ByLayer
100
AcDbCircle
 10
75.0000000000000568
 20
-353.0
 30
0.0
 40
5.0
100
AcDbArc
 50
270.0
 51
360.0
  0
LINE
  5
AC
100
AcDbEntity
100
AcDbLine
  8
0
 62
256
370
-1
  6
ByLayer
 10
80.0000000000001137
 20
-353.0000000000001137
 30
0.0
 11
80.0000000000000568
 21
35.0000000000003197
 31
0.0
  0
INSERT
  5
AD
100
AcDbEntity
100
AcDbBlockReference
  8
0
 62
256
370
-1
  6
ByLayer
  2
T-slot-female-3mm
 10
74.0
 20
-72.0000000000000853
 30
0.0
 41
1.0
 42
-1.0
 43
1.0
 50
89.9999999999999858
 44
1.0
 45
1.0
  0
INSERT
  5
AE
100
AcDbEntity
100
AcDbBlockReference
  8
0
 62
256
370
-1
  6
ByLayer
  2
T-slot-female-3mm
 10
74.0000000000000568
 20
-246.0000000000000853
 30
0.0
 41
1.0
 42
-1.0
 43
1.0
 50
89.9999999999999858
 44
1.0
 45
1.0
  0
INSERT
  5
AF
100
AcDbEntity
100
AcDbBlockReference
  8
0
 62
256
370
-1
  6
ByLayer
  2
T-slot-female-3mm
 10
-288.9999999999999432
 20
-159.0
 30
0.0
 50
270.0
 44
1.0
 45
1.0
  0
LINE
  5
B0
100
AcDbEntity
100
AcDbLine
  8
0
 62
256
370
-1
  6
ByLayer
 10
-42.5011999340997235
 20
-42.7287697342480541
 30
0.0
 11
-236.653721807729795
 21
-131.7287697342480044
 31
0.0
  0
LINE
  5
B1
100
AcDbEntity
100
AcDbLine
  8
0
 62
256
370
-1
  6
ByLayer
 10
-236.6537218077298235
 20
-186.2712302657518819
 30
0.0
 11
-42.5011999340997448
 21
-275.2712302657519103
 31
0.0
  0
LINE
  5
B2
100
AcDbEntity
100
AcDbLine
  8
0
 62
256
370
-1
  6
ByLayer
 10
0.0000000000000071
 20
-248.0
 30
0.0
 11
0.0
 21
-70.0
 31
0.0
  0
ARC
  5
B3
100
AcDbEntity
  8
0
 62
256
370
-1
  6
ByLayer
100
AcDbCircle
 10
-29.9999999999999929
 20
-248.0
 30
0.0
 40
30.0
100
AcDbArc
 50
245.3731606590271497
 51
0.0
  0
ARC
  5
B4
100
AcDbEntity
  8
0
 62
256
370
-1
  6
ByLayer
100
AcDbCircle
 10
-30.0
 20
-70.0
 30
0.0
 40
30.0
100
AcDbArc
 50
0.0
 51
114.6268393409727793
  0
ARC
  5
B5
100
AcDbEntity
  8
0
 62
256
370
-1
  6
ByLayer
100
AcDbCircle
 10
-224.1525218736300644
 20
-158.9999999999999432
 30
0.0
 40
30.0
100
AcDbArc
 50
114.6268393409727508
 51
245.3731606590271497
  0
INSERT
  5
B6
100
AcDbEntity
100
AcDbBlockReference
  8
0
 62
256
370
-1
  6
ByLayer
  2
Bar-mount-cap
 10
-230.0
 20
-150.0
 30
0.0
  0
INSERT
  5
B7
100
AcDbEntity
100
AcDbBlockReference
  8
0
 62
256
370
-1
  6
ByLayer
  2
T-slot-male-3mm
 10
-56.0
 20
-81.5
 30
0.0
 50
270.0
 44
1.0
 45
1.0
  0
LINE
  5
B8
100
AcDbEntity
100
AcDbLine
  8
0
 62
256
370
-1
  6
ByLayer
 10
-56.0
 20
-104.0
 30
0.0
 11
-56.0
 21
-102.2000000000000455
 31
0.0
  0
LINE
  5
B9
100
AcDbEntity
100
AcDbLine
  8
0
 62
256
370
-1
  6
ByLayer
 10
-56.0
 20
-60.7999999999999545
 30
0.0
 11
-56.0
 21
-59.0
 31
0.0
  0
INSERT
  5
BA
100
AcDbEntity
100
AcDbBlockReference
  8
0
 62
256
370
-1
  6
ByLayer
  2
T-slot-male-3mm
 10
-31.0
 20
-59.0
 30
0.0
 50
180.0
 44
1.0
 45
1.0
  0
LINE
  5
BB
100
AcDbEntity
100
AcDbLine
  8
0
 62
256
370
-1
  6
ByLayer
 10
-56.0
 20
-59.0
 30
0.0
 11
-51.7000000000000455
 21
-59.0
 31
0.0
  0
LINE
  5
BC
100
AcDbEntity
100
AcDbLine
  8
0
 62
256
370
-1
  6
ByLayer
 10
-10.2999999999999545
 20
-59.0
 30
0.0
 11
-6.0
 21
-59.0
 31
0.0
  0
LINE
  5
BD
100
AcDbEntity
100
AcDbLine
  8
0
 62
256
370
-1
  6
ByLayer
 10
-6.0
 20
-59.0
 30
0.0
 11
-6.0
 21
-104.0
 31
0.0
  0
INSERT
  5
BE
100
AcDbEntity
100
AcDbBlockReference
  8
0
 62
256
370
-1
  6
ByLayer
  2
T-slot-male-3mm
 10
-31.0
 20
-104.0
 30
0.0
 41
1.0
 42
-1.0
 43
1.0
 50
180.0
 44
1.0
 45
1.0
  0
LINE
  5
BF
100
AcDbEntity
100
AcDbLine
  8
0
 62
256
370
-1
  6
ByLayer
 10
-56.0
 20
-104.0
 30
0.0
 11
-51.7000000000000455
 21
-104.0
 31
0.0
  0
LINE
  5
C0
100
AcDbEntity
100
AcDbLine
  8
0
 62
256
370
-1
  6
ByLayer
 10
-10.2999999999999545
 20
-104.0
 30
0.0
 11
-6.0
 21
-104.0
 31
0.0
  0
INSERT
  5
C1
100
AcDbEntity
100
AcDbBlockReference
  8
0
 62
256
370
-1
  6
ByLayer
  2
T-slot-male-3mm
 10
-56.0
 20
-142.5
 30
0.0
 50
270.0
 44
1.0
 45
1.0
  0
LINE
  5
C2
100
AcDbEntity
100
AcDbLine
  8
0
 62
256
370
-1
  6
ByLayer
 10
-56.0
 20
-165.0
 30
0.0
 11
-56.0
 21
-163.2000000000000455
 31
0.0
  0
LINE
  5
C3
100
AcDbEntity
100
AcDbLine
  8
0
 62
256
370
-1
  6
ByLayer
 10
-56.0
 20
-121.7999999999999545
 30
0.0
 11
-56.0
 21
-120.0
 31
0.0
  0
INSERT
  5
C4
100
AcDbEntity
100
AcDbBlockReference
  8
0
 62
256
370
-1
  6
ByLayer
  2
T-slot-male-3mm
 10
-31.0
 20
-120.0
 30
0.0
 50
180.0
 44
1.0
 45
1.0
  0
LINE
  5
C5
100
AcDbEntity
100
AcDbLine
  8
0
 62
256
370
-1
  6
ByLayer
 10
-56.0
 20
-120.0
 30
0.0
 11
-51.7000000000000455
 21
-120.0
 31
0.0
  0
LINE
  5
C6
100
AcDbEntity
100
AcDbLine
  8
0
 62
256
370
-1
  6
ByLayer
 10
-10.2999999999999545
 20
-120.0
 30
0.0
 11
-6.0
 21
-120.0
 31
0.0
  0
LINE
  5
C7
100
AcDbEntity
100
AcDbLine
  8
0
 62
256
370
-1
  6
ByLayer
 10
-6.0
 20
-120.0
 30
0.0
 11
-6.0
 21
-165.0
 31
0.0
  0
INSERT
  5
C8
100
AcDbEntity
100
AcDbBlockReference
  8
0
 62
256
370
-1
  6
ByLayer
  2
T-slot-male-3mm
 10
-31.0
 20
-165.0
 30
0.0
 41
1.0
 42
-1.0
 43
1.0
 50
180.0
 44
1.0
 45
1.0
  0
LINE
  5
C9
100
AcDbEntity
100
AcDbLine
  8
0
 62
256
370
-1
  6
ByLayer
 10
-56.0
 20
-165.0
 30
0.0
 11
-51.7000000000000455
 21
-165.0
 31
0.0
  0
LINE
  5
CA
100
AcDbEntity
100
AcDbLine
  8
0
 62
256
370
-1
  6
ByLayer
 10
-10.2999999999999545
 20
-165.0
 30
0.0
 11
-6.0
 21
-165.0
 31
0.0
  0
INSERT
  5
CB
100
AcDbEntity
100
AcDbBlockReference
  8
0
 62
256
370
-1
  6
ByLayer
  2
T-slot-male-3mm
 10
-56.0
 20
-203.5
 30
0.0
 50
270.0
 44
1.0
 45
1.0
  0
LINE
  5
CC
100
AcDbEntity
100
AcDbLine
  8
0
 62
256
370
-1
  6
ByLayer
 10
-56.0
 20
-226.0
 30
0.0
 11
-56.0
 21
-224.2000000000000455
 31
0.0
  0
LINE
  5
CD
100
AcDbEntity
100
AcDbLine
  8
0
 62
256
370
-1
  6
ByLayer
 10
-56.0
 20
-182.7999999999999545
 30
0.0
 11
-56.0
 21
-181.0
 31
0.0
  0
INSERT
  5
CE
100
AcDbEntity
100
AcDbBlockReference
  8
0
 62
256
370
-1
  6
ByLayer
  2
T-slot-male-3mm
 10
-31.0
 20
-181.0
 30
0.0
 50
180.0
 44
1.0
 45
1.0
  0
LINE
  5
CF
100
AcDbEntity
100
AcDbLine
  8
0
 62
256
370
-1
  6
ByLayer
 10
-56.0
 20
-181.0
 30
0.0
 11
-51.7000000000000455
 21
-181.0
 31
0.0
  0
LINE
  5
D0
100
AcDbEntity
100
AcDbLine
  8
0
 62
256
370
-1
  6
ByLayer
 10
-10.2999999999999545
 20
-181.0
 30
0.0
 11
-6.0
 21
-181.0
 31
0.0
  0
LINE
  5
D1
100
AcDbEntity
100
AcDbLine
  8
0
 62
256
370
-1
  6
ByLayer
 10
-6.0
 20
-181.0
 30
0.0
 11
-6.0
 21
-226.0
 31
0.0
  0
INSERT
  5
D2
100
AcDbEntity
100
AcDbBlockReference
  8
0
 62
256
370
-1
  6
ByLayer
  2
T-slot-male-3mm
 10
-31.0
 20
-226.0
 30
0.0
 41
1.0
 42
-1.0
 43
1.0
 50
180.0
 44
1.0
 45
1.0
  0
LINE
  5
D3
100
AcDbEntity
100
AcDbLine
  8
0
 62
256
370
-1
  6
ByLayer
 10
-56.0
 20
-226.0
 30
0.0
 11
-51.7000000000000455
 21
-226.0
 31
0.0
  0
LINE
  5
D4
100
AcDbEntity
100
AcDbLine
  8
0
 62
256
370
-1
  6
ByLayer
 10
-10.2999999999999545
 20
-226.0
 30
0.0
 11
-6.0
 21
-226.0
 31
0.0
  0
INSERT
  5
D5
100
AcDbEntity
100
AcDbBlockReference
  8
0
 62
256
370
-1
  6
ByLayer
  2
Bar-mount-cap
 10
-216.0
 20
-159.0
 30
0.0
 41
1.0
 42
-1.0
 43
1.0
  0
INSERT
  5
D6
100
AcDbEntity
100
AcDbBlockReference
  8
0
 62
256
370
-1
  6
ByLayer
  2
Bar-mount-cap
 10
-202.0
 20
-150.0
 30
0.0
  0
INSERT
  5
D7
100
AcDbEntity
100
AcDbBlockReference
  8
0
 62
256
370
-1
  6
ByLayer
  2
Bar-mount-cap
 10
-188.0
 20
-159.0
 30
0.0
 41
1.0
 42
-1.0
 43
1.0
  0
INSERT
  5
D8
100
AcDbEntity
100
AcDbBlockReference
  8
0
 62
256
370
-1
  6
ByLayer
  2
Bar-mount-cap
 10
-174.0
 20
-150.0
 30
0.0
  0
INSERT
  5
D9
100
AcDbEntity
100
AcDbBlockReference
  8
0
 62
256
370
-1
  6
ByLayer
  2
Bar-mount-cap
 10
-160.0
 20
-159.0
 30
0.0
 41
1.0
 42
-1.0
 43
1.0
  0
INSERT
  5
DA
100
AcDbEntity
100
AcDbBlockReference
  8
0
 62
256
370
-1
  6
ByLayer
  2
Bar-mount-cap
 10
-146.0
 20
-150.0
 30
0.0
  0
INSERT
  5
DB
100
AcDbEntity
100
AcDbBlockReference
  8
0
 62
256
370
-1
  6
ByLayer
  2
Bar-mount-cap
 10
-132.0
 20
-159.0
 30
0.0
 41
1.0
 42
-1.0
 43
1.0
  0
LINE
  5
DC
100
AcDbEntity
100
AcDbLine
  8
0
 62
256
370
-1
  6
ByLayer
 10
-116.0
 20
-175.0
 30
0.0
 11
-116.0
 21
-237.0
 31
0.0
  0
INSERT
  5
DD
100
AcDbEntity
100
AcDbBlockReference
  8
0
 62
256
370
-1
  6
ByLayer
  2
T-slot-female-3mm
 10
-91.0
 20
-232.0
 30
0.0
 44
1.0
 45
1.0
  0
INSERT
  5
DE
100
AcDbEntity
100
AcDbBlockReference
  8
0
 62
256
370
-1
  6
ByLayer
  2
T-slot-female-3mm
 10
-91.0
 20
-180.0
 30
0.0
 44
1.0
 45
1.0
  0
LINE
  5
DF
100
AcDbEntity
100
AcDbLine
  8
0
 62
256
370
-1
  6
ByLayer
 10
-116.0
 20
-237.0
 30
0.0
 11
-70.0
 21
-237.0
 31
0.0
  0
ARC
  5
E0
100
AcDbEntity
  8
0
 62
256
370
-1
  6
ByLayer
100
AcDbCircle
 10
-70.0
 20
-233.0
 30
0.0
 40
4.0
100
AcDbArc
 50
270.0
 51
0.0
  0
LINE
  5
E1
100
AcDbEntity
100
AcDbLine
  8
0
 62
256
370
-1
  6
ByLayer
 10
-70.0
 20
-175.0
 30
0.0
 11
-116.0
 21
-175.0
 31
0.0
  0
LINE
  5
E2
100
AcDbEntity
100
AcDbLine
  8
0
 62
256
370
-1
  6
ByLayer
 10
-66.0
 20
-233.0
 30
0.0
 11
-66.0
 21
-179.0
 31
0.0
  0
ARC
  5
E3
100
AcDbEntity
  8
0
 62
256
370
-1
  6
ByLayer
100
AcDbCircle
 10
-70.0
 20
-179.0
 30
0.0
 40
4.0
100
AcDbArc
 50
0.0
 51
90.0
  0
INSERT
  5
E4
100
AcDbEntity
100
AcDbBlockReference
  8
0
 62
256
370
-1
  6
ByLayer
  2
Motor-mount-sliding
 10
-91.0
 20
-206.0
 30
0.0
 44
1.0
 45
1.0
  0
LINE
  5
E5
100
AcDbEntity
100
AcDbLine
  8
0
 62
256
370
-1
  6
ByLayer
 10
-60.0
 20
-240.0
 30
0.0
 11
-60.0
 21
-260.0
 31
0.0
  0
LINE
  5
E6
100
AcDbEntity
100
AcDbLine
  8
0
 62
256
370
-1
  6
ByLayer
 10
-15.0
 20
-240.0
 30
0.0
 11
-60.0
 21
-240.0
 31
0.0
  0
ARC
  5
E7
100
AcDbEntity
  8
0
 62
256
370
-1
  6
ByLayer
100
AcDbCircle
 10
-15.0
 20
-245.0
 30
0.0
 40
5.0
100
AcDbArc
 50
0.0
 51
90.0
  0
LINE
  5
E8
100
AcDbEntity
100
AcDbLine
  8
0
 62
256
370
-1
  6
ByLayer
 10
-60.0
 20
-260.0
 30
0.0
 11
-15.0
 21
-260.0
 31
0.0
  0
LINE
  5
E9
100
AcDbEntity
100
AcDbLine
  8
0
 62
256
370
-1
  6
ByLayer
 10
-10.0
 20
-255.0
 30
0.0
 11
-10.0
 21
-245.0
 31
0.0
  0
ARC
  5
EA
100
AcDbEntity
  8
0
 62
256
370
-1
  6
ByLayer
100
AcDbCircle
 10
-15.0
 20
-255.0
 30
0.0
 40
5.0
100
AcDbArc
 50
270.0
 51
0.0
  0
INSERT
  5
EB
100
AcDbEntity
100
AcDbBlockReference
  8
0
 62
256
370
-1
  6
ByLayer
  2
T-slot-female-3mm
 10
-35.0
 20
-250.0
 30
0.0
 44
1.0
 45
1.0
  0
INSERT
  5
EC
100
AcDbEntity
100
AcDbBlockReference
  8
0
 62
256
370
-1
  6
ByLayer
  2
T-slot-female-3mm
 10
55.0
 20
147.0
 30
0.0
 44
1.0
 45
1.0
  0
INSERT
  5
ED
100
AcDbEntity
100
AcDbBlockReference
  8
0
 62
256
370
-1
  6
ByLayer
  2
T-slot-female-3mm
 10
55.0
 20
95.0
 30
0.0
 44
1.0
 45
1.0
  0
INSERT
  5
EE
100
AcDbEntity
100
AcDbBlockReference
  8
0
 62
256
370
-1
  6
ByLayer
  2
T-slot-male-3mm
 10
-291.0
 20
-78.0
 30
0.0
 44
1.0
 45
1.0
  0
LINE
  5
EF
100
AcDbEntity
100
AcDbLine
  8
0
 62
256
370
-1
  6
ByLayer
 10
77.0557670302935094
 20
78.671574604455401
 30
0.0
 11
-270.2999999999999545
 21
-78.0
 31
0.0
  0
ARC
  5
F0
100
AcDbEntity
  8
0
 62
256
370
-1
  6
ByLayer
100
AcDbCircle
 10
75.0
 20
83.2294054390914084
 30
0.0
 40
5.0
100
AcDbArc
 50
294.2773105826686901
 51
0.0
  0
LINE
  5
F1
100
AcDbEntity
100
AcDbLine
  8
0
 62
256
370
-1
  6
ByLayer
 10
80.0
 20
156.7873451053240501
 30
0.0
 11
80.0
 21
83.2294054390914084
 31
0.0
  0
LINE
  5
F2
100
AcDbEntity
100
AcDbLine
  8
0
 62
256
370
-1
  6
ByLayer
 10
-270.2999999999999545
 20
320.0
 30
0.0
 11
77.0773209783137645
 21
161.3353927692186005
 31
0.0
  0
ARC
  5
F3
100
AcDbEntity
  8
0
 62
256
370
-1
  6
ByLayer
100
AcDbCircle
 10
75.0
 20
156.7873451053240501
 30
0.0
 40
5.0
100
AcDbArc
 50
0.0
 51
65.4514475053738209
  0
INSERT
  5
F4
100
AcDbEntity
100
AcDbBlockReference
  8
0
 62
256
370
-1
  6
ByLayer
  2
T-slot-male-3mm
 10
-291.0
 20
320.0
 30
0.0
 50
180.0
 44
1.0
 45
1.0
  0
LINE
  5
F5
100
AcDbEntity
100
AcDbLine
  8
0
 62
256
370
-1
  6
ByLayer
 10
-335.0
 20
320.0
 30
0.0
 11
-311.7000000000000455
 21
320.0
 31
0.0
  0
LINE
  5
F6
100
AcDbEntity
100
AcDbLine
  8
0
 62
256
370
-1
  6
ByLayer
 10
-311.7000000000000455
 20
-78.0
 30
0.0
 11
-335.0
 21
-78.0
 31
0.0
  0
ARC
  5
F7
100
AcDbEntity
  8
0
 62
256
370
-1
  6
ByLayer
100
AcDbCircle
 10
-335.0
 20
315.0
 30
0.0
 40
5.0
100
AcDbArc
 50
90.0
 51
180.0
  0
ARC
  5
F8
100
AcDbEntity
  8
0
 62
256
370
-1
  6
ByLayer
100
AcDbCircle
 10
-335.0
 20
-73.0
 30
0.0
 40
5.0
100
AcDbArc
 50
180.0
 51
270.0
  0
LINE
  5
F9
100
AcDbEntity
100
AcDbLine
  8
0
 62
256
370
-1
  6
ByLayer
 10
-340.0
 20
-73.0
 30
0.0
 11
-340.0
 21
315.0
 31
0.0
  0
INSERT
  5
FA
100
AcDbEntity
100
AcDbBlockReference
  8
0
 62
256
370
-1
  6
ByLayer
  2
T-slot-female-3mm
 10
-334.0
 20
208.0
 30
0.0
 50
90.0
 44
1.0
 45
1.0
  0
INSERT
  5
FB
100
AcDbEntity
100
AcDbBlockReference
  8
0
 62
256
370
-1
  6
ByLayer
  2
T-slot-female-3mm
 10
-334.0
 20
34.0
 30
0.0
 50
90.0
 44
1.0
 45
1.0
  0
LINE
  5
FC
100
AcDbEntity
100
AcDbLine
  8
0
 62
256
370
-1
  6
ByLayer
 10
-217.498800065900241
 20
237.2712302657517967
 30
0.0
 11
-23.3462781922702334
 21
148.271230265751683
 31
0.0
  0
LINE
  5
FD
100
AcDbEntity
100
AcDbLine
  8
0
 62
256
370
-1
  6
ByLayer
 10
-23.3462781922702334
 20
93.7287697342476918
 30
0.0
 11
-217.4988000659001273
 21
4.7287697342482033
 31
0.0
  0
LINE
  5
FE
100
AcDbEntity
100
AcDbLine
  8
0
 62
256
370
-1
  6
ByLayer
 10
-260.0
 20
32.0000000000000853
 30
0.0
 11
-260.0
 21
210.0
 31
0.0
  0
ARC
  5
FF
100
AcDbEntity
  8
0
 62
256
370
-1
  6
ByLayer
100
AcDbCircle
 10
-230.0
 20
31.9999999999999432
 30
0.0
 40
30.0
100
AcDbArc
 50
179.9999999999999716
 51
294.6268393409728787
  0
ARC
  5
100
100
AcDbEntity
  8
0
 62
256
370
-1
  6
ByLayer
100
AcDbCircle
 10
-230.0
 20
210.000000000000199
 30
0.0
 40
30.0
100
AcDbArc
 50
65.3731606590272349
 51
179.9999999999999716
  0
ARC
  5
101
100
AcDbEntity
  8
0
 62
256
370
-1
  6
ByLayer
100
AcDbCircle
 10
-35.8474781263698787
 20
120.9999999999999147
 30
0.0
 40
30.0
100
AcDbArc
 50
294.6268393409728787
 51
65.3731606590272349
  0
LINE
  5
102
100
AcDbEntity
100
AcDbLine
  8
0
 62
256
370
-1
  6
ByLayer
 10
99.8999999999999773
 20
288.0
 30
0.0
 11
99.8999999999999773
 21
283.7000000000000455
 31
0.0
  0
LINE
  5
103
100
AcDbEntity
100
AcDbLine
  8
0
 62
256
370
-1
  6
ByLayer
 10
630.0
 20
343.6999999999999886
 30
0.0
 11
630.0
 21
347.9999999999999432
 31
0.0
  0
INSERT
  5
104
100
AcDbEntity
100
AcDbBlockReference
  8
0
 62
256
370
-1
  6
ByLayer
  2
T-slot-male-3mm
 10
630.0
 20
322.9999999999999432
 30
0.0
 50
90.0
 44
1.0
 45
1.0
  0
LINE
  5
105
100
AcDbEntity
100
AcDbLine
  8
0
 62
256
370
-1
  6
ByLayer
 10
630.0
 20
347.9999999999999432
 30
0.0
 11
100.0000000000000142
 21
347.9999999999999432
 31
0.0
  0
LINE
  5
106
100
AcDbEntity
100
AcDbLine
  8
0
 62
256
370
-1
  6
ByLayer
 10
630.0
 20
289.9999999999999432
 30
0.0
 11
100.0000000000000142
 21
290.0
 31
0.0
  0
LINE
  5
107
100
AcDbEntity
100
AcDbLine
  8
0
 62
256
370
-1
  6
ByLayer
 10
630.0
 20
302.2999999999998977
 30
0.0
 11
630.0
 21
289.9999999999999432
 31
0.0
  0
INSERT
  5
108
100
AcDbEntity
100
AcDbBlockReference
  8
0
 62
256
370
-1
  6
ByLayer
  2
T-slot-male-3mm
 10
100.0000000000000142
 20
322.9999999999999432
 30
0.0
 41
1.0
 42
-1.0
 43
1.0
 50
90.0
 44
1.0
 45
1.0
  0
LINE
  5
109
100
AcDbEntity
100
AcDbLine
  8
0
 62
256
370
-1
  6
ByLayer
 10
99.9999999999999289
 20
302.2999999999999545
 30
0.0
 11
100.0
 21
290.0
 31
0.0
  0
INSERT
  5
10A
100
AcDbEntity
100
AcDbBlockReference
  8
0
 62
256
370
-1
  6
ByLayer
  2
T-slot-female-3mm
 10
155.1000000000000227
 20
297.0
 30
0.0
 44
1.0
 45
1.0
  0
INSERT
  5
10B
100
AcDbEntity
100
AcDbBlockReference
  8
0
 62
256
370
-1
  6
ByLayer
  2
T-slot-female-3mm
 10
510.1000000000000227
 20
296.9999999999999432
 30
0.0
 44
1.0
 45
1.0
  0
INSERT
  5
10C
100
AcDbEntity
100
AcDbBlockReference
  8
0
 62
256
370
-1
  6
ByLayer
  2
T-slot-female-3mm
 10
570.1000000000000227
 20
296.9999999999999432
 30
0.0
 44
1.0
 45
1.0
  0
LINE
  5
10D
100
AcDbEntity
100
AcDbLine
  8
0
 62
256
370
-1
  6
ByLayer
 10
100.0000000000000142
 20
347.9999999999999432
 30
0.0
 11
100.0000000000000142
 21
343.6999999999999886
 31
0.0
  0
INSERT
  5
10E
100
AcDbEntity
100
AcDbBlockReference
  8
0
 62
256
370
-1
  6
ByLayer
  2
Bar-mount
 10
240.0
 20
212.207976143299561
 30
0.0
 44
1.0
 45
1.0
  0
INSERT
  5
10F
100
AcDbEntity
100
AcDbBlockReference
  8
0
 62
256
370
-1
  6
ByLayer
  2
Bar-mount
 10
380.0
 20
212.207976143299561
 30
0.0
 44
1.0
 45
1.0
  0
ARC
  5
110
100
AcDbEntity
  8
0
 62
256
370
-1
  6
ByLayer
100
AcDbCircle
 10
100.0
 20
217.207976143299561
 30
0.0
 40
10.0
100
AcDbArc
 50
90.0
 51
180.0
  0
ARC
  5
111
100
AcDbEntity
  8
0
 62
256
370
-1
  6
ByLayer
100
AcDbCircle
 10
630.0
 20
217.207976143299561
 30
0.0
 40
10.0
100
AcDbArc
 50
0.0
 51
90.0
  0
INSERT
  5
112
100
AcDbEntity
100
AcDbBlockReference
  8
0
 62
256
370
-1
  6
ByLayer
  2
T-slot-female-3mm
 10
97.0
 20
192.207976143299561
 30
0.0
 50
90.0
 44
1.0
 45
1.0
  0
INSERT
  5
113
100
AcDbEntity
100
AcDbBlockReference
  8
0
 62
256
370
-1
  6
ByLayer
  2
T-slot-female-3mm
 10
633.0
 20
192.207976143299561
 30
0.0
 50
90.0
 44
1.0
 45
1.0
  0
LINE
  5
114
100
AcDbEntity
100
AcDbLine
  8
0
 62
256
370
-1
  6
ByLayer
 10
100.0
 20
227.207976143299561
 30
0.0
 11
630.0
 21
227.207976143299561
 31
0.0
  0
ARC
  5
115
100
AcDbEntity
  8
0
 62
256
370
-1
  6
ByLayer
100
AcDbCircle
 10
100.0
 20
146.207976143299561
 30
0.0
 40
10.0
100
AcDbArc
 50
180.0
 51
270.0
  0
LINE
  5
116
100
AcDbEntity
100
AcDbLine
  8
0
 62
256
370
-1
  6
ByLayer
 10
100.0
 20
136.207976143299561
 30
0.0
 11
630.0
 21
136.207976143299561
 31
0.0
  0
ARC
  5
117
100
AcDbEntity
  8
0
 62
256
370
-1
  6
ByLayer
100
AcDbCircle
 10
630.0
 20
146.207976143299561
 30
0.0
 40
10.0
100
AcDbArc
 50
270.0
 51
0.0
  0
LINE
  5
118
100
AcDbEntity
100
AcDbLine
  8
0
 62
256
370
-1
  6
ByLayer
 10
90.0
 20
146.207976143299561
 30
0.0
 11
90.0
 21
217.207976143299561
 31
0.0
  0
LINE
  5
119
100
AcDbEntity
100
AcDbLine
  8
0
 62
256
370
-1
  6
ByLayer
 10
640.0
 20
146.207976143299561
 30
0.0
 11
640.0
 21
217.207976143299561
 31
0.0
  0
INSERT
  5
11A
100
AcDbEntity
100
AcDbBlockReference
  8
0
 62
256
370
-1
  6
ByLayer
  2
T-slot-female-3mm
 10
284.5
 20
174.707976143299561
 30
0.0
 50
90.0
 44
1.0
 45
1.0
  0
INSERT
  5
11B
100
AcDbEntity
100
AcDbBlockReference
  8
0
 62
256
370
-1
  6
ByLayer
  2
T-slot-female-3mm
 10
335.5
 20
174.707976143299561
 30
0.0
 50
90.0
 44
1.0
 45
1.0
  0
INSERT
  5
11C
100
AcDbEntity
100
AcDbBlockReference
  8
0
 62
256
370
-1
  6
ByLayer
  2
T-slot-female-3mm
 10
226.5
 20
149.207976143299561
 30
0.0
 44
1.0
 45
1.0
  0
INSERT
  5
11D
100
AcDbEntity
100
AcDbBlockReference
  8
0
 62
256
370
-1
  6
ByLayer
  2
T-slot-female-3mm
 10
503.5
 20
149.207976143299561
 30
0.0
 44
1.0
 45
1.0
  0
INSERT
  5
11E
100
AcDbEntity
100
AcDbBlockReference
  8
0
 62
256
370
-1
  6
ByLayer
  2
T-slot-male-3mm
 10
226.5
 20
127.4413604131016911
 30
0.0
 50
180.0
 44
1.0
 45
1.0
  0
LINE
  5
11F
100
AcDbEntity
100
AcDbLine
  8
0
 62
256
370
-1
  6
ByLayer
 10
247.2000000000000455
 20
127.4413604131016911
 30
0.0
 11
482.7999999999999545
 21
127.4413604131016911
 31
0.0
  0
INSERT
  5
120
100
AcDbEntity
100
AcDbBlockReference
  8
0
 62
256
370
-1
  6
ByLayer
  2
T-slot-male-3mm
 10
226.5
 20
-270.5586395868983232
 30
0.0
 44
1.0
 45
1.0
  0
INSERT
  5
121
100
AcDbEntity
100
AcDbBlockReference
  8
0
 62
256
370
-1
  6
ByLayer
  2
T-slot-male-3mm
 10
503.5
 20
-270.5586395868983232
 30
0.0
 44
1.0
 45
1.0
  0
LINE
  5
122
100
AcDbEntity
100
AcDbLine
  8
0
 62
256
370
-1
  6
ByLayer
 10
482.7999999999999545
 20
-270.5586395868983232
 30
0.0
 11
247.2000000000000455
 21
-270.5586395868983232
 31
0.0
  0
INSERT
  5
123
100
AcDbEntity
100
AcDbBlockReference
  8
0
 62
256
370
-1
  6
ByLayer
  2
T-slot-male-3mm
 10
503.5
 20
127.4413604131016911
 30
0.0
 50
180.0
 44
1.0
 45
1.0
  0
ARC
  5
124
100
AcDbEntity
  8
0
 62
256
370
-1
  6
ByLayer
100
AcDbCircle
 10
102.0
 20
-268.5586395868983232
 30
0.0
 40
2.0
100
AcDbArc
 50
180.0
 51
270.0
  0
LINE
  5
125
100
AcDbEntity
100
AcDbLine
  8
0
 62
256
370
-1
  6
ByLayer
 10
205.7999999999999545
 20
-270.5586395868983232
 30
0.0
 11
102.0
 21
-270.5586395868983232
 31
0.0
  0
LINE
  5
126
100
AcDbEntity
100
AcDbLine
  8
0
 62
256
370
-1
  6
ByLayer
 10
628.0
 20
-270.5586395868983232
 30
0.0
 11
524.2000000000000455
 21
-270.5586395868983232
 31
0.0
  0
ARC
  5
127
100
AcDbEntity
  8
0
 62
256
370
-1
  6
ByLayer
100
AcDbCircle
 10
628.0
 20
-268.5586395868983232
 30
0.0
 40
2.0
100
AcDbArc
 50
270.0
 51
0.0
  0
LINE
  5
128
100
AcDbEntity
100
AcDbLine
  8
0
 62
256
370
-1
  6
ByLayer
 10
524.2000000000000455
 20
127.4413604131016911
 30
0.0
 11
628.0
 21
127.4413604131016911
 31
0.0
  0
ARC
  5
129
100
AcDbEntity
  8
0
 62
256
370
-1
  6
ByLayer
100
AcDbCircle
 10
628.0
 20
125.4413604131016911
 30
0.0
 40
2.0
100
AcDbArc
 50
0.0
 51
90.0
  0
LINE
  5
12A
100
AcDbEntity
100
AcDbLine
  8
0
 62
256
370
-1
  6
ByLayer
 10
102.0
 20
127.4413604131016911
 30
0.0
 11
205.7999999999999545
 21
127.4413604131016911
 31
0.0
  0
ARC
  5
12B
100
AcDbEntity
  8
0
 62
256
370
-1
  6
ByLayer
100
AcDbCircle
 10
102.0
 20
125.4413604131016911
 30
0.0
 40
2.0
100
AcDbArc
 50
90.0
 51
180.0
  0
INSERT
  5
12C
100
AcDbEntity
100
AcDbBlockReference
  8
0
 62
256
370
-1
  6
ByLayer
  2
T-slot-male-3mm
 10
100.0
 20
15.4413604131016911
 30
0.0
 50
270.0
 44
1.0
 45
1.0
  0
INSERT
  5
12D
100
AcDbEntity
100
AcDbBlockReference
  8
0
 62
256
370
-1
  6
ByLayer
  2
T-slot-male-3mm
 10
630.0
 20
15.4413604131016911
 30
0.0
 50
90.0
 44
1.0
 45
1.0
  0
LINE
  5
12E
100
AcDbEntity
100
AcDbLine
  8
0
 62
256
370
-1
  6
ByLayer
 10
100.0
 20
36.1413604131017365
 30
0.0
 11
100.0
 21
125.4413604131016911
 31
0.0
  0
LINE
  5
12F
100
AcDbEntity
100
AcDbLine
  8
0
 62
256
370
-1
  6
ByLayer
 10
630.0
 20
125.4413604131016911
 30
0.0
 11
630.0
 21
36.1413604131017365
 31
0.0
  0
INSERT
  5
130
100
AcDbEntity
100
AcDbBlockReference
  8
0
 62
256
370
-1
  6
ByLayer
  2
T-slot-male-3mm
 10
630.0
 20
-158.5586395868983232
 30
0.0
 50
90.0
 44
1.0
 45
1.0
  0
INSERT
  5
131
100
AcDbEntity
100
AcDbBlockReference
  8
0
 62
256
370
-1
  6
ByLayer
  2
T-slot-male-3mm
 10
100.0
 20
-158.5586395868983232
 30
0.0
 50
270.0
 44
1.0
 45
1.0
  0
LINE
  5
132
100
AcDbEntity
100
AcDbLine
  8
0
 62
256
370
-1
  6
ByLayer
 10
100.0
 20
-268.5586395868983232
 30
0.0
 11
100.0
 21
-179.2586395868983686
 31
0.0
  0
LINE
  5
133
100
AcDbEntity
100
AcDbLine
  8
0
 62
256
370
-1
  6
ByLayer
 10
100.0
 20
-137.8586395868982777
 30
0.0
 11
100.0
 21
-5.2586395868983544
 31
0.0
  0
LINE
  5
134
100
AcDbEntity
100
AcDbLine
  8
0
 62
256
370
-1
  6
ByLayer
 10
630.0
 20
-179.2586395868983686
 30
0.0
 11
630.0
 21
-268.5586395868983232
 31
0.0
  0
LINE
  5
135
100
AcDbEntity
100
AcDbLine
  8
0
 62
256
370
-1
  6
ByLayer
 10
630.0
 20
-5.2586395868983544
 30
0.0
 11
630.0
 21
-137.8586395868982777
 31
0.0
  0
INSERT
  5
136
100
AcDbEntity
100
AcDbBlockReference
  8
0
 62
256
370
-1
  6
ByLayer
  2
T-slot-female-3mm
 10
284.5
 20
102.4413604131016911
 30
0.0
 50
270.0
 44
1.0
 45
1.0
  0
INSERT
  5
137
100
AcDbEntity
100
AcDbBlockReference
  8
0
 62
256
370
-1
  6
ByLayer
  2
T-slot-female-3mm
 10
335.5
 20
102.4413604131016911
 30
0.0
 50
270.0
 44
1.0
 45
1.0
  0
INSERT
  5
138
100
AcDbEntity
100
AcDbBlockReference
  8
0
 62
256
370
-1
  6
ByLayer
  2
Bar-mount
 10
155.0
 20
-71.5586395868983089
 30
0.0
 44
1.0
 45
1.0
  0
INSERT
  5
139
100
AcDbEntity
100
AcDbBlockReference
  8
0
 62
256
370
-1
  6
ByLayer
  2
Bar-mount
 10
510.0
 20
-71.5586395868983089
 30
0.0
 44
1.0
 45
1.0
  0
INSERT
  5
13A
100
AcDbEntity
100
AcDbBlockReference
  8
0
 62
256
370
-1
  6
ByLayer
  2
T-slot-female-3mm
 10
310.0
 20
-245.5586395868983232
 30
0.0
 50
270.0
 44
1.0
 45
1.0
  0
INSERT
  5
13B
100
AcDbEntity
100
AcDbBlockReference
  8
0
 62
256
370
-1
  6
ByLayer
  2
Bar-mount
 10
240.0
 20
-354.6004169056132014
 30
0.0
 41
1.0
 42
-1.0
 43
1.0
 44
1.0
 45
1.0
  0
INSERT
  5
13C
100
AcDbEntity
100
AcDbBlockReference
  8
0
 62
256
370
-1
  6
ByLayer
  2
Bar-mount
 10
380.0
 20
-354.6004169056132014
 30
0.0
 41
1.0
 42
-1.0
 43
1.0
 44
1.0
 45
1.0
  0
ARC
  5
13D
100
AcDbEntity
  8
0
 62
256
370
-1
  6
ByLayer
100
AcDbCircle
 10
100.0
 20
-359.6004169056132014
 30
0.0
 40
10.0
100
AcDbArc
 50
180.0
 51
270.0
  0
ARC
  5
13E
100
AcDbEntity
  8
0
 62
256
370
-1
  6
ByLayer
100
AcDbCircle
 10
630.0
 20
-359.6004169056132014
 30
0.0
 40
10.0
100
AcDbArc
 50
270.0
 51
0.0
  0
INSERT
  5
13F
100
AcDbEntity
100
AcDbBlockReference
  8
0
 62
256
370
-1
  6
ByLayer
  2
T-slot-female-3mm
 10
96.9999999999999716
 20
-334.6004169056132014
 30
0.0
 41
1.0
 42
-1.0
 43
1.0
 50
270.0
 44
1.0
 45
1.0
  0
INSERT
  5
140
100
AcDbEntity
100
AcDbBlockReference
  8
0
 62
256
370
-1
  6
ByLayer
  2
T-slot-female-3mm
 10
633.0
 20
-334.6004169056132014
 30
0.0
 41
1.0
 42
-1.0
 43
1.0
 50
270.0
 44
1.0
 45
1.0
  0
LINE
  5
141
100
AcDbEntity
100
AcDbLine
  8
0
 62
256
370
-1
  6
ByLayer
 10
100.0
 20
-369.6004169056132014
 30
0.0
 11
630.0
 21
-369.6004169056132014
 31
0.0
  0
ARC
  5
142
100
AcDbEntity
  8
0
 62
256
370
-1
  6
ByLayer
100
AcDbCircle
 10
100.0
 20
-288.6004169056132014
 30
0.0
 40
10.0
100
AcDbArc
 50
90.0000000000000142
 51
180.0
  0
LINE
  5
143
100
AcDbEntity
100
AcDbLine
  8
0
 62
256
370
-1
  6
ByLayer
 10
100.0000000000000142
 20
-278.6004169056132014
 30
0.0
 11
630.0
 21
-278.6004169056132014
 31
0.0
  0
ARC
  5
144
100
AcDbEntity
  8
0
 62
256
370
-1
  6
ByLayer
100
AcDbCircle
 10
630.0
 20
-288.6004169056132014
 30
0.0
 40
10.0
100
AcDbArc
 50
0.0
 51
90.0000000000000142
  0
LINE
  5
145
100
AcDbEntity
100
AcDbLine
  8
0
 62
256
370
-1
  6
ByLayer
 10
90.0000000000000568
 20
-288.6004169056132014
 30
0.0
 11
90.0
 21
-359.6004169056132014
 31
0.0
  0
LINE
  5
146
100
AcDbEntity
100
AcDbLine
  8
0
 62
256
370
-1
  6
ByLayer
 10
640.0
 20
-288.6004169056132014
 30
0.0
 11
640.0
 21
-359.6004169056131445
 31
0.0
  0
INSERT
  5
147
100
AcDbEntity
100
AcDbBlockReference
  8
0
 62
256
370
-1
  6
ByLayer
  2
T-slot-female-3mm
 10
226.5000000000000284
 20
-291.6004169056132014
 30
0.0
 41
1.0
 42
-1.0
 43
1.0
 44
1.0
 45
1.0
  0
INSERT
  5
148
100
AcDbEntity
100
AcDbBlockReference
  8
0
 62
256
370
-1
  6
ByLayer
  2
T-slot-female-3mm
 10
503.5
 20
-291.6004169056132014
 30
0.0
 41
1.0
 42
-1.0
 43
1.0
 44
1.0
 45
1.0
  0
INSERT
  5
149
100
AcDbEntity
100
AcDbBlockReference
  8
0
 62
256
370
-1
  6
ByLayer
  2
T-slot-female-3mm
 10
310.0
 20
-317.1004169056132014
 30
0.0
 41
1.0
 42
-1.0
 43
1.0
 50
270.0
 44
1.0
 45
1.0
  0
DIMENSION
  5
14A
100
AcDbEntity
  8
Dimensions
 62
256
370
-1
  6
ByLayer
100
AcDbDimension
 10
650.0
 20
-400.0
 30
0.0
 11
150.0
 21
-398.125
 31
0.0
 70
0
 71
5
 72
1
 41
1.0
 42
0.0
  1

  3
Standard
100
AcDbAlignedDimension
 13
-350.0
 23
-380.0
 33
0.0
 14
650.0
 24
-380.0
 34
0.0
 50
0.0
100
AcDbRotatedDimension
  0
DIMENSION
  5
14B
100
AcDbEntity
  8
Dimensions
 62
256
370
-1
  6
ByLayer
100
AcDbDimension
 10
680.0
 20
360.0
 30
0.0
 11
678.125
 21
-10.0
 31
0.0
 70
0
 71
5
 72
1
 41
1.0
 42
0.0
  1

  3
Standard
100
AcDbAlignedDimension
 13
650.0
 23
-380.0
 33
0.0
 14
650.0
 24
360.0
 34
0.0
 50
90.0
100
AcDbRotatedDimension
  0
INSERT
  5
14C
100
AcDbEntity
100
AcDbBlockReference
  8
0
 62
256
370
-1
  6
ByLayer
  2
Motor-mount-centering
 10
-105.0
 20
121.0
 30
0.0
 50
180.0
 44
1.0
 45
1.0
  0
INSERT
  5
14D
100
AcDbEntity
100
AcDbBlockReference
  8
0
 62
256
370
-1
  6
ByLayer
  2
Bar-mount
 10
-75.0
 20
121.0
 30
0.0
 50
210.0
 44
1.0
 45
1.0
  0
LINE
  5
14E
100
AcDbEntity
100
AcDbLine
  8
0
 62
256
370
-1
  6
ByLayer
 10
-130.1000000000000227
 20
83.7000000000000455
 30
0.0
 11
-130.1000000000000227
 21
88.0
 31
0.0
  0
LINE
  5
14F
100
AcDbEntity
100
AcDbLine
  8
0
 62
256
370
-1
  6
ByLayer
 10
-95.7000000000000455
 20
144.0
 30
0.0
 11
-130.0
 21
144.0
 31
0.0
  0
LINE
  5
150
100
AcDbEntity
100
AcDbLine
  8
0
 62
256
370
-1
  6
ByLayer
 10
-130.0
 20
98.0
 30
0.0
 11
-95.7000000000000455
 21
98.0
 31
0.0
  0
LINE
  5
151
100
AcDbEntity
100
AcDbLine
  8
0
 62
256
370
-1
  6
ByLayer
 10
-130.0
 20
111.1000000000000227
 30
0.0
 11
-136.0
 21
110.5
 31
0.0
  0
LINE
  5
152
100
AcDbEntity
100
AcDbLine
  8
0
 62
256
370
-1
  6
ByLayer
 10
-136.0
 20
110.5
 30
0.0
 11
-136.0
 21
100.8999999999999773
 31
0.0
  0
LINE
  5
153
100
AcDbEntity
100
AcDbLine
  8
0
 62
256
370
-1
  6
ByLayer
 10
-136.0
 20
100.8999999999999773
 30
0.0
 11
-130.0
 21
100.2999999999999545
 31
0.0
  0
LINE
  5
154
100
AcDbEntity
100
AcDbLine
  8
0
 62
256
370
-1
  6
ByLayer
 10
-130.0
 20
130.8999999999999773
 30
0.0
 11
-136.0
 21
131.5
 31
0.0
  0
LINE
  5
155
100
AcDbEntity
100
AcDbLine
  8
0
 62
256
370
-1
  6
ByLayer
 10
-136.0
 20
131.5
 30
0.0
 11
-136.0
 21
141.1000000000000227
 31
0.0
  0
LINE
  5
156
100
AcDbEntity
100
AcDbLine
  8
0
 62
256
370
-1
  6
ByLayer
 10
-136.0
 20
141.1000000000000227
 30
0.0
 11
-130.0
 21
141.7000000000000455
 31
0.0
  0
LINE
  5
157
100
AcDbEntity
100
AcDbLine
  8
0
 62
256
370
-1
  6
ByLayer
 10
-130.0
 20
144.0
 30
0.0
 11
-130.0
 21
141.7000000000000455
 31
0.0
  0
LINE
  5
158
100
AcDbEntity
100
AcDbLine
  8
0
 62
256
370
-1
  6
ByLayer
 10
-130.0
 20
100.2999999999999545
 30
0.0
 11
-130.0
 21
98.0
 31
0.0
  0
LINE
  5
159
100
AcDbEntity
100
AcDbLine
  8
0
 62
256
370
-1
  6
ByLayer
 10
-54.2999999999999545
 20
144.0
 30
0.0
 11
-54.2999999999999545
 21
98.0
 31
0.0
  0
INSERT
  5
15A
100
AcDbEntity
100
AcDbBlockReference
  8
0
 62
256
370
-1
  6
ByLayer
  2
T-slot-male-3mm
 10
-75.0
 20
98.0
 30
0.0
 44
1.0
 45
1.0
  0
INSERT
  5
15B
100
AcDbEntity
100
AcDbBlockReference
  8
0
 62
256
370
-1
  6
ByLayer
  2
T-slot-male-3mm
 10
-75.0
 20
144.0
 30
0.0
 41
1.0
 42
-1.0
 43
1.0
 44
1.0
 45
1.0
  0
LINE
  5
15C
100
AcDbEntity
100
AcDbLine
  8
0
 62
256
370
-1
  6
ByLayer
 10
-130.0
 20
111.1000000000000227
 30
0.0
 11
-130.0
 21
130.8999999999999773
 31
0.0
  0
INSERT
  5
15D
100
AcDbEntity
100
AcDbBlockReference
  8
0
 62
256
370
-1
  6
ByLayer
  2
Motor-mount-centering
 10
-200.0
 20
121.0000000000000568
 30
0.0
 41
1.0
 42
-1.0
 43
1.0
 50
360.0
 44
1.0
 45
1.0
  0
INSERT
  5
15E
100
AcDbEntity
100
AcDbBlockReference
  8
0
 62
256
370
-1
  6
ByLayer
  2
Bar-mount
 10
-230.0
 20
121.0
 30
0.0
 41
1.0
 42
-1.0
 43
1.0
 50
330.0000000000000568
 44
1.0
 45
1.0
  0
LINE
  5
15F
100
AcDbEntity
100
AcDbLine
  8
0
 62
256
370
-1
  6
ByLayer
 10
-209.2999999999999545
 20
143.9999999999999432
 30
0.0
 11
-175.0
 21
144.0000000000000568
 31
0.0
  0
LINE
  5
160
100
AcDbEntity
100
AcDbLine
  8
0
 62
256
370
-1
  6
ByLayer
 10
-175.0
 20
97.9999999999999432
 30
0.0
 11
-209.2999999999999545
 21
97.9999999999999432
 31
0.0
  0
LINE
  5
161
100
AcDbEntity
100
AcDbLine
  8
0
 62
256
370
-1
  6
ByLayer
 10
-250.7000000000000455
 20
144.0
 30
0.0
 11
-250.7000000000000455
 21
98.0000000000000568
 31
0.0
  0
INSERT
  5
162
100
AcDbEntity
100
AcDbBlockReference
  8
0
 62
256
370
-1
  6
ByLayer
  2
T-slot-male-3mm
 10
-230.0
 20
97.9999999999999432
 30
0.0
 41
1.0
 42
-1.0
 43
1.0
 50
179.9999999999999716
 44
1.0
 45
1.0
  0
INSERT
  5
163
100
AcDbEntity
100
AcDbBlockReference
  8
0
 62
256
370
-1
  6
ByLayer
  2
T-slot-male-3mm
 10
-230.0
 20
144.0000000000000568
 30
0.0
 50
179.9999999999999716
 44
1.0
 45
1.0
  0
LINE
  5
164
100
AcDbEntity
100
AcDbLine
  8
0
 62
256
370
-1
  6
ByLayer
 10
-149.2999999999999545
 20
144.0
 30
0.0
 11
-149.2999999999998408
 21
98.0000000000000568
 31
0.0
  0
INSERT
  5
165
100
AcDbEntity
100
AcDbBlockReference
  8
0
 62
256
370
-1
  6
ByLayer
  2
T-slot-male-3mm
 10
-169.9999999999998863
 20
97.9999999999999432
 30
0.0
 50
360.0
 44
1.0
 45
1.0
  0
INSERT
  5
166
100
AcDbEntity
100
AcDbBlockReference
  8
0
 62
256
370
-1
  6
ByLayer
  2
T-slot-male-3mm
 10
-170.0
 20
144.0000000000000568
 30
0.0
 41
1.0
 42
-1.0
 43
1.0
 50
360.0
 44
1.0
 45
1.0
  0
ENDSEC
  0
SECTION
  2
OBJECTS
  0
DICTIONARY
  5
C
100
AcDbDictionary
280
0
281
1
  3
ACAD_GROUP
350
D
  3
ACAD_LAYOUT
350
1A
  3
ACAD_MLINESTYLE
350
17
  3
ACAD_PLOTSETTINGS
350
19
  3
ACAD_PLOTSTYLENAME
350
E
  3
AcDbVariableDictionary
350
167
  0
DICTIONARY
  5
D
100
AcDbDictionary
280
0
281
1
  0
ACDBDICTIONARYWDFLT
  5
E
100
AcDbDictionary
281
1
  3
Normal
350
F
100
AcDbDictionaryWithDefault
340
F
  0
ACDBPLACEHOLDER
  5
F
  0
DICTIONARY
  5
17
100
AcDbDictionary
280
0
281
1
  3
Standard
350
18
  0
MLINESTYLE
  5
18
100
AcDbMlineStyle
  2
STANDARD
 70
0
  3

 62
256
 51
90.0
 52
90.0
 71
2
 49
0.5
 62
256
  6
BYLAYER
 49
-0.5
 62
256
  6
BYLAYER
  0
DICTIONARY
  5
19
100
AcDbDictionary
280
0
281
1
  0
DICTIONARY
  5
1A
100
AcDbDictionary
281
1
  3
Layout1
350
1E
  3
Layout2
350
26
  3
Model
350
22
  0
LAYOUT
  5
1E
100
AcDbPlotSettings
  1

  2
C:\Program Files\AutoCAD 2002\plotters\DWF ePlot (optimized for plotting).pc3
  4

  6

 40
0.0
 41
0.0
 42
0.0
 43
0.0
 44
0.0
 45
0.0
 46
0.0
 47
0.0
 48
0.0
 49
0.0
140
0.0
141
0.0
142
1.0
143
1.0
 70
688
 72
0
 73
0
 74
5
  7

 75
16
147
1.0
148
0.0
149
0.0
100
AcDbLayout
  1
Layout1
 70
1
 71
1
 10
0.0
 20
0.0
 11
420.0
 21
297.0
 12
0.0
 22
0.0
 32
0.0
 14
100000000000000000000.0
 24
100000000000000000000.0
 34
100000000000000000000.0
 15
-100000000000000000000.0
 25
-100000000000000000000.0
 35
-100000000000000000000.0
146
0.0
 13
0.0
 23
0.0
 33
0.0
 16
1.0
 26
0.0
 36
0.0
 17
0.0
 27
1.0
 37
0.0
 76
0
330
1B
  0
LAYOUT
  5
22
100
AcDbPlotSettings
  1

  2
C:\Program Files\AutoCAD 2002\plotters\DWF ePlot (optimized for plotting).pc3
  4

  6

 40
0.0
 41
0.0
 42
0.0
 43
0.0
 44
0.0
 45
0.0
 46
0.0
 47
0.0
 48
0.0
 49
0.0
140
0.0
141
0.0
142
1.0
143
1.0
 70
1712
 72
0
 73
0
 74
0
  7

 75
0
147
1.0
148
0.0
149
0.0
100
AcDbLayout
  1
Model
 70
1
 71
0
 10
0.0
 20
0.0
 11
12.0
 21
9.0
 12
0.0
 22
0.0
 32
0.0
 14
0.0
 24
0.0
 34
0.0
 15
0.0
 25
0.0
 35
0.0
146
0.0
 13
0.0
 23
0.0
 33
0.0
 16
1.0
 26
0.0
 36
0.0
 17
0.0
 27
1.0
 37
0.0
 76
0
330
1F
  0
LAYOUT
  5
26
100
AcDbPlotSettings
  1

  2
C:\Program Files\AutoCAD 2002\plotters\DWF ePlot (optimized for plotting).pc3
  4

  6

 40
0.0
 41
0.0
 42
0.0
 43
0.0
 44
0.0
 45
0.0
 46
0.0
 47
0.0
 48
0.0
 49
0.0
140
0.0
141
0.0
142
1.0
143
1.0
 70
688
 72
0
 73
0
 74
5
  7

 75
16
147
1.0
148
0.0
149
0.0
100
AcDbLayout
  1
Layout2
 70
1
 71
2
 10
0.0
 20
0.0
 11
12.0
 21
9.0
 12
0.0
 22
0.0
 32
0.0
 14
0.0
 24
0.0
 34
0.0
 15
0.0
 25
0.0
 35
0.0
146
0.0
 13
0.0
 23
0.0
 33
0.0
 16
1.0
 26
0.0
 36
0.0
 17
0.0
 27
1.0
 37
0.0
 76
0
330
23
  0
DICTIONARY
  5
167
100
AcDbDictionary
281
1
  3
DIMASSOC
350
169
  3
HIDETEXT
350
168
  0
DICTIONARYVAR
  5
168
100
DictionaryVariables
280
0
  1
2
  0
DICTIONARYVAR
  5
169
100
DictionaryVariables
280
0
  1
1
  0
ENDSEC
  0
EOF
