999
dxflib 2.2.0.0
  0
SECTION
  2
HEADER
  9
$ACADVER
  1
AC1015
  9
$HANDSEED
  5
FFFF
  9
$DIMASZ
 40
2.5
  9
$PLIMMIN
 10
0.0
 20
0.0
  9
$DIMEXE
 40
1.25
  9
$DIMGAP
 40
0.625
  9
$PLIMMAX
 10
210.0
 20
297.0
  9
$INSUNITS
 70
4
  9
$DIMSTYLE
  2
Standard
  9
$DIMEXO
 40
0.625
  9
$DIMTXT
 40
2.5
  0
ENDSEC
  0
SECTION
  2
TABLES
  0
TABLE
  2
VPORT
  5
8
100
AcDbSymbolTable
 70
1
  0
VPORT
  5
30
100
AcDbSymbolTableRecord
100
AcDbViewportTableRecord
  2
*Active
 70
0
 10
0.0
 20
0.0
 11
1.0
 21
1.0
 12
286.3055555555554861
 22
148.5
 13
0.0
 23
0.0
 14
10.0
 24
10.0
 15
10.0
 25
10.0
 16
0.0
 26
0.0
 36
1.0
 17
0.0
 27
0.0
 37
0.0
 40
297.0
 41
1.92798353909465
 42
50.0
 43
0.0
 44
0.0
 50
0.0
 51
0.0
 71
0
 72
100
 73
1
 74
3
 75
1
 76
1
 77
0
 78
0
281
0
 65
1
110
0.0
120
0.0
130
0.0
111
1.0
121
0.0
131
0.0
112
0.0
122
1.0
132
0.0
 79
0
146
0.0
  0
ENDTAB
  0
TABLE
  2
LTYPE
  5
5
100
AcDbSymbolTable
 70
21
  0
LTYPE
  5
14
100
AcDbSymbolTableRecord
100
AcDbLinetypeTableRecord
  2
ByBlock
 70
0
  3

 72
65
 73
0
 40
0.0
  0
LTYPE
  5
15
100
AcDbSymbolTableRecord
100
AcDbLinetypeTableRecord
  2
ByLayer
 70
0
  3

 72
65
 73
0
 40
0.0
  0
LTYPE
  5
16
100
AcDbSymbolTableRecord
100
AcDbLinetypeTableRecord
  2
CONTINUOUS
 70
0
  3
Solid line
 72
65
 73
0
 40
0.0
  0
LTYPE
  5
31
100
AcDbSymbolTableRecord
100
AcDbLinetypeTableRecord
  2
DOT
 70
0
  3
Dot . . . . . . . . . . . . . . . . . . . . . .
 72
65
 73
2
 40
6.3499999999999996
 49
0.0
 74
0
 49
-6.3499999999999996
 74
0
  0
LTYPE
  5
32
100
AcDbSymbolTableRecord
100
AcDbLinetypeTableRecord
  2
DOT2
 70
0
  3
Dot (.5x) .....................................
 72
65
 73
2
 40
3.1749999999999998
 49
0.0
 74
0
 49
-3.1749999999999998
 74
0
  0
LTYPE
  5
33
100
AcDbSymbolTableRecord
100
AcDbLinetypeTableRecord
  2
DOTX2
 70
0
  3
Dot (2x) .  .  .  .  .  .  .  .  .  .  .  .  .
 72
65
 73
2
 40
12.6999999999999993
 49
0.0
 74
0
 49
-12.6999999999999993
 74
0
  0
LTYPE
  5
34
100
AcDbSymbolTableRecord
100
AcDbLinetypeTableRecord
  2
DASHED
 70
0
  3
Dashed __ __ __ __ __ __ __ __ __ __ __ __ __ _
 72
65
 73
2
 40
19.0500000000000007
 49
12.6999999999999993
 74
0
 49
-6.3499999999999996
 74
0
  0
LTYPE
  5
35
100
AcDbSymbolTableRecord
100
AcDbLinetypeTableRecord
  2
DASHED2
 70
0
  3
Dashed (.5x) _ _ _ _ _ _ _ _ _ _ _ _ _ _ _ _ _
 72
65
 73
2
 40
9.5250000000000004
 49
6.3499999999999996
 74
0
 49
-3.1749999999999998
 74
0
  0
LTYPE
  5
36
100
AcDbSymbolTableRecord
100
AcDbLinetypeTableRecord
  2
DASHEDX2
 70
0
  3
Dashed (2x) ____  ____  ____  ____  ____  ___
 72
65
 73
2
 40
38.1000000000000014
 49
25.3999999999999986
 74
0
 49
-12.6999999999999993
 74
0
  0
LTYPE
  5
37
100
AcDbSymbolTableRecord
100
AcDbLinetypeTableRecord
  2
DASHDOT
 70
0
  3
Dash dot __ . __ . __ . __ . __ . __ . __ . __
 72
65
 73
4
 40
25.3999999999999986
 49
12.6999999999999993
 74
0
 49
-6.3499999999999996
 74
0
 49
0.0
 74
0
 49
-6.3499999999999996
 74
0
  0
LTYPE
  5
38
100
AcDbSymbolTableRecord
100
AcDbLinetypeTableRecord
  2
DASHDOT2
 70
0
  3
Dash dot (.5x) _._._._._._._._._._._._._._._.
 72
65
 73
4
 40
12.6999999999999993
 49
6.3499999999999996
 74
0
 49
-3.1749999999999998
 74
0
 49
0.0
 74
0
 49
-3.1749999999999998
 74
0
  0
LTYPE
  5
39
100
AcDbSymbolTableRecord
100
AcDbLinetypeTableRecord
  2
DASHDOTX2
 70
0
  3
Dash dot (2x) ____  .  ____  .  ____  .  ___
 72
65
 73
4
 40
50.7999999999999972
 49
25.3999999999999986
 74
0
 49
-12.6999999999999993
 74
0
 49
0.0
 74
0
 49
-12.6999999999999993
 74
0
  0
LTYPE
  5
3A
100
AcDbSymbolTableRecord
100
AcDbLinetypeTableRecord
  2
DIVIDE
 70
0
  3
Divide ____ . . ____ . . ____ . . ____ . . ____
 72
65
 73
6
 40
31.75
 49
12.6999999999999993
 74
0
 49
-6.3499999999999996
 74
0
 49
0.0
 74
0
 49
-6.3499999999999996
 74
0
 49
0.0
 74
0
 49
-6.3499999999999996
 74
0
  0
LTYPE
  5
3B
100
AcDbSymbolTableRecord
100
AcDbLinetypeTableRecord
  2
DIVIDE2
 70
0
  3
Divide (.5x) __..__..__..__..__..__..__..__.._
 72
65
 73
6
 40
15.875
 49
6.3499999999999996
 74
0
 49
-3.1749999999999998
 74
0
 49
0.0
 74
0
 49
-3.1749999999999998
 74
0
 49
0.0
 74
0
 49
-3.1749999999999998
 74
0
  0
LTYPE
  5
3C
100
AcDbSymbolTableRecord
100
AcDbLinetypeTableRecord
  2
DIVIDEX2
 70
0
  3
Divide (2x) ________  .  .  ________  .  .  _
 72
65
 73
6
 40
63.5
 49
25.3999999999999986
 74
0
 49
-12.6999999999999993
 74
0
 49
0.0
 74
0
 49
-12.6999999999999993
 74
0
 49
0.0
 74
0
 49
-12.6999999999999993
 74
0
  0
LTYPE
  5
3D
100
AcDbSymbolTableRecord
100
AcDbLinetypeTableRecord
  2
CENTER
 70
0
  3
Center ____ _ ____ _ ____ _ ____ _ ____ _ ____
 72
65
 73
4
 40
50.7999999999999972
 49
31.75
 74
0
 49
-6.3499999999999996
 74
0
 49
6.3499999999999996
 74
0
 49
-6.3499999999999996
 74
0
  0
LTYPE
  5
3E
100
AcDbSymbolTableRecord
100
AcDbLinetypeTableRecord
  2
CENTER2
 70
0
  3
Center (.5x) ___ _ ___ _ ___ _ ___ _ ___ _ ___
 72
65
 73
4
 40
28.5749999999999993
 49
19.0500000000000007
 74
0
 49
-3.1749999999999998
 74
0
 49
3.1749999999999998
 74
0
 49
-3.1749999999999998
 74
0
  0
LTYPE
  5
3F
100
AcDbSymbolTableRecord
100
AcDbLinetypeTableRecord
  2
CENTERX2
 70
0
  3
Center (2x) ________  __  ________  __  _____
 72
65
 73
4
 40
101.5999999999999943
 49
63.5
 74
0
 49
-12.6999999999999993
 74
0
 49
12.6999999999999993
 74
0
 49
-12.6999999999999993
 74
0
  0
LTYPE
  5
40
100
AcDbSymbolTableRecord
100
AcDbLinetypeTableRecord
  2
BORDER
 70
0
  3
Border __ __ . __ __ . __ __ . __ __ . __ __ .
 72
65
 73
6
 40
44.4500000000000028
 49
12.6999999999999993
 74
0
 49
-6.3499999999999996
 74
0
 49
12.6999999999999993
 74
0
 49
-6.3499999999999996
 74
0
 49
0.0
 74
0
 49
-6.3499999999999996
 74
0
  0
LTYPE
  5
41
100
AcDbSymbolTableRecord
100
AcDbLinetypeTableRecord
  2
BORDER2
 70
0
  3
Border (.5x) __.__.__.__.__.__.__.__.__.__.__.
 72
65
 73
6
 40
22.2250000000000014
 49
6.3499999999999996
 74
0
 49
-3.1749999999999998
 74
0
 49
6.3499999999999996
 74
0
 49
-3.1749999999999998
 74
0
 49
0.0
 74
0
 49
-3.1749999999999998
 74
0
  0
LTYPE
  5
42
100
AcDbSymbolTableRecord
100
AcDbLinetypeTableRecord
  2
BORDERX2
 70
0
  3
Border (2x) ____  ____  .  ____  ____  .  ___
 72
65
 73
6
 40
88.9000000000000057
 49
25.3999999999999986
 74
0
 49
-12.6999999999999993
 74
0
 49
25.3999999999999986
 74
0
 49
-12.6999999999999993
 74
0
 49
0.0
 74
0
 49
-12.6999999999999993
 74
0
  0
ENDTAB
  0
TABLE
  2
LAYER
  5
2
100
AcDbSymbolTable
 70
4
  0
LAYER
  5
10
100
AcDbSymbolTableRecord
100
AcDbLayerTableRecord
  2
0
 70
0
 62
7
  6
CONTINUOUS
290
1
370
18
390
F
  0
LAYER
  5
43
100
AcDbSymbolTableRecord
100
AcDbLayerTableRecord
  2
Hatch
 70
0
 62
7
  6
CONTINUOUS
290
1
370
5
390
F
  0
LAYER
  5
44
100
AcDbSymbolTableRecord
100
AcDbLayerTableRecord
  2
Dimensions
 70
0
 62
7
  6
CONTINUOUS
290
1
370
5
390
F
  0
LAYER
  5
45
100
AcDbSymbolTableRecord
100
AcDbLayerTableRecord
  2
Cuts
 70
0
 62
7
  6
DIVIDE
290
1
370
13
390
F
  0
ENDTAB
  0
TABLE
  2
STYLE
  5
3
100
AcDbSymbolTable
 70
1
  0
STYLE
  5
11
100
AcDbSymbolTableRecord
100
AcDbTextStyleTableRecord
  2
Standard
 70
0
 40
0.0
 41
0.75
 50
0.0
 71
0
 42
2.5
  3
txt
  4

  0
ENDTAB
  0
TABLE
  2
VIEW
  5
6
100
AcDbSymbolTable
 70
0
  0
ENDTAB
  0
TABLE
  2
UCS
  5
7
100
AcDbSymbolTable
 70
0
  0
ENDTAB
  0
TABLE
  2
APPID
  5
9
100
AcDbSymbolTable
 70
1
  0
APPID
  5
12
100
AcDbSymbolTableRecord
100
AcDbRegAppTableRecord
  2
ACAD
 70
0
  0
ENDTAB
  0
TABLE
  2
DIMSTYLE
  5
A
100
AcDbSymbolTable
 70
1
100
AcDbDimStyleTable
 71
0
  0
DIMSTYLE
105
27
100
AcDbSymbolTableRecord
100
AcDbDimStyleTableRecord
  2
Standard
 41
2.5
 42
0.625
 43
3.75
 44
1.25
 70
0
 73
0
 74
0
 77
1
 78
8
140
2.5
141
2.5
143
0.03937007874016
147
0.625
171
3
172
1
271
2
272
2
274
3
278
44
283
0
284
8
340
11
  0
ENDTAB
  0
TABLE
  2
BLOCK_RECORD
  5
1
100
AcDbSymbolTable
 70
1
  0
BLOCK_RECORD
  5
1F
100
AcDbSymbolTableRecord
100
AcDbBlockTableRecord
  2
*Model_Space
340
22
  0
BLOCK_RECORD
  5
1B
100
AcDbSymbolTableRecord
100
AcDbBlockTableRecord
  2
*Paper_Space
340
1E
  0
BLOCK_RECORD
  5
23
100
AcDbSymbolTableRecord
100
AcDbBlockTableRecord
  2
*Paper_Space0
340
26
  0
ENDTAB
  0
ENDSEC
  0
SECTION
  2
BLOCKS
  0
BLOCK
  5
20
100
AcDbEntity
  8
0
100
AcDbBlockBegin
  2
*Model_Space
 70
0
 10
0.0
 20
0.0
 30
0.0
  3
*Model_Space
  1

  0
ENDBLK
  5
21
100
AcDbEntity
  8
0
100
AcDbBlockEnd
  0
BLOCK
  5
1C
100
AcDbEntity
 67
1
  8
0
100
AcDbBlockBegin
  2
*Paper_Space
 70
0
 10
0.0
 20
0.0
 30
0.0
  3
*Paper_Space
  1

  0
ENDBLK
  5
1D
100
AcDbEntity
 67
1
  8
0
100
AcDbBlockEnd
  0
BLOCK
  5
24
100
AcDbEntity
  8
0
100
AcDbBlockBegin
  2
*Paper_Space0
 70
0
 10
0.0
 20
0.0
 30
0.0
  3
*Paper_Space0
  1

  0
ENDBLK
  5
25
100
AcDbEntity
  8
0
100
AcDbBlockEnd
  0
ENDSEC
  0
SECTION
  2
ENTITIES
  0
HATCH
  5
46
  8
Dimensions
 62
256
370
-1
  6
ByLayer
100
AcDbEntity
100
AcDbHatch
 10
0.0
 20
0.0
 30
0.0
210
0.0
220
0.0
230
1.0
  2
iso03w100
 70
0
 71
0
 91
1
 92
1
 93
13
 72
2
 10
50.0
 20
10.0
 40
1.0
 50
0.0
 51
360.0
 73
1
 72
2
 10
50.0
 20
10.0
 40
3.0
 50
150.0
 51
209.9999999999999147
 73
1
 72
1
 10
47.401923788646684
 20
8.5000000000000036
 11
48.2679491924311179
 21
9.0000000000000053
 72
2
 10
50.0
 20
10.0
 40
2.0
 50
209.9999999999998295
 51
270.0000000000002274
 73
1
 72
1
 10
50.0000000000000071
 20
8.0
 11
50.0
 21
7.0
 72
2
 10
50.0
 20
10.0
 40
3.0
 50
270.0
 51
329.9999999999999432
 73
1
 72
1
 10
52.598076211353316
 20
8.4999999999999964
 11
51.732050807568875
 21
8.9999999999999964
 72
2
 10
50.0
 20
10.0
 40
2.0
 50
329.9999999999998863
 51
30.0000000000001243
 73
1
 72
1
 10
51.732050807568875
 20
11.0000000000000036
 11
52.5980762113533231
 21
11.5000000000000071
 72
2
 10
50.0
 20
10.0
 40
3.0
 50
30.0000000000000497
 51
89.9999999999998721
 73
1
 72
1
 10
50.0000000000000071
 20
13.0
 11
50.0000000000000071
 21
12.0
 72
2
 10
50.0
 20
10.0
 40
2.0
 50
89.999999999999801
 51
150.0000000000001137
 73
1
 72
1
 10
48.2679491924311179
 20
10.9999999999999982
 11
47.401923788646684
 21
11.4999999999999982
 97
0
 75
0
 76
1
 52
0.7853981633974483
 41
0.05
 77
0
 78
1
 53
45.0
 43
0.0
 44
0.0
 45
-0.0883883476483184
 46
0.0883883476483185
 79
0
 98
0
  0
HATCH
  5
47
  8
Hatch
 62
256
370
-1
  6
ByLayer
100
AcDbEntity
100
AcDbHatch
 10
0.0
 20
0.0
 30
0.0
210
0.0
220
0.0
230
1.0
  2
iso03w100
 70
0
 71
0
 91
1
 92
1
 93
68
 72
1
 10
22.0
 20
10.0
 11
22.0
 21
35.75
 72
1
 10
22.0
 20
35.75
 11
22.75
 21
36.5
 72
1
 10
22.75
 20
36.5
 11
26.0
 21
36.5
 72
1
 10
26.0
 20
36.5
 11
26.0
 21
32.3500000000000014
 72
1
 10
26.0
 20
32.3500000000000014
 11
23.8562177826491073
 21
32.3500000000000014
 72
1
 10
23.8562177826491073
 20
32.3500000000000014
 11
23.25
 21
32.0
 72
1
 10
23.25
 20
32.0
 11
23.9660254037844389
 21
31.5866025403784434
 72
2
 10
23.9160254037844382
 20
31.5
 40
0.1
 50
300.0000000000004547
 51
59.9999999999995239
 73
0
 72
1
 10
23.9660254037844389
 20
31.4133974596215566
 11
23.25
 21
31.0
 72
1
 10
23.25
 20
31.0
 11
23.9660254037844389
 21
30.5866025403784434
 72
2
 10
23.9160254037844382
 20
30.5
 40
0.1
 50
300.0000000000004547
 51
59.9999999999995239
 73
0
 72
1
 10
23.9660254037844389
 20
30.4133974596215566
 11
23.25
 21
30.0
 72
1
 10
23.25
 20
30.0
 11
23.9660254037844389
 21
29.5866025403784434
 72
2
 10
23.9160254037844382
 20
29.5
 40
0.1
 50
300.0000000000004547
 51
59.9999999999995239
 73
0
 72
1
 10
23.9660254037844389
 20
29.4133974596215566
 11
23.25
 21
29.0
 72
1
 10
23.25
 20
29.0
 11
23.9660254037844389
 21
28.5866025403784434
 72
2
 10
23.9160254037844382
 20
28.5
 40
0.1
 50
300.0000000000004547
 51
59.9999999999995239
 73
0
 72
1
 10
23.9660254037844389
 20
28.4133974596215566
 11
23.25
 21
28.0
 72
1
 10
23.25
 20
28.0
 11
23.9660254037844389
 21
27.5866025403784434
 72
2
 10
23.9160254037844382
 20
27.5
 40
0.1
 50
300.0000000000004547
 51
59.9999999999995239
 73
0
 72
1
 10
23.9660254037844389
 20
27.4133974596215566
 11
23.25
 21
27.0
 72
1
 10
23.25
 20
27.0
 11
23.9660254037844389
 21
26.5866025403784434
 72
2
 10
23.9160254037844382
 20
26.5
 40
0.1
 50
300.0000000000004547
 51
59.9999999999995239
 73
0
 72
1
 10
23.9660254037844389
 20
26.4133974596215566
 11
23.25
 21
26.0
 72
1
 10
23.25
 20
26.0
 11
23.9660254037844389
 21
25.5866025403784434
 72
2
 10
23.9160254037844382
 20
25.5
 40
0.1
 50
300.0000000000004547
 51
59.9999999999995239
 73
0
 72
1
 10
23.9660254037844389
 20
25.4133974596215566
 11
23.25
 21
25.0
 72
1
 10
23.25
 20
25.0
 11
23.9660254037844389
 21
24.5866025403784434
 72
2
 10
23.9160254037844382
 20
24.5
 40
0.1
 50
300.0000000000004547
 51
59.9999999999995239
 73
0
 72
1
 10
23.9660254037844389
 20
24.4133974596215566
 11
23.25
 21
24.0
 72
1
 10
23.25
 20
24.0
 11
23.9660254037844389
 21
23.5866025403784434
 72
2
 10
23.9160254037844382
 20
23.5
 40
0.1
 50
300.0000000000004547
 51
59.9999999999995239
 73
0
 72
1
 10
23.9660254037844389
 20
23.4133974596215566
 11
23.25
 21
23.0
 72
1
 10
23.25
 20
23.0
 11
23.9660254037844389
 21
22.5866025403784434
 72
2
 10
23.9160254037844382
 20
22.5
 40
0.1
 50
300.0000000000004547
 51
59.9999999999995239
 73
0
 72
1
 10
23.9660254037844389
 20
22.4133974596215566
 11
23.25
 21
22.0
 72
1
 10
23.25
 20
22.0
 11
23.9660254037844389
 21
21.5866025403784434
 72
2
 10
23.9160254037844382
 20
21.5
 40
0.1
 50
300.0000000000004547
 51
59.9999999999995239
 73
0
 72
1
 10
23.9660254037844389
 20
21.4133974596215566
 11
23.25
 21
21.0
 72
1
 10
23.25
 20
21.0
 11
23.9660254037844389
 21
20.5866025403784434
 72
2
 10
23.9160254037844382
 20
20.5
 40
0.1
 50
300.0000000000004547
 51
59.9999999999995239
 73
0
 72
1
 10
23.9660254037844389
 20
20.4133974596215566
 11
23.25
 21
20.0
 72
1
 10
23.25
 20
20.0
 11
23.9660254037844389
 21
19.5866025403784434
 72
2
 10
23.9160254037844382
 20
19.5
 40
0.1
 50
300.0000000000004547
 51
59.9999999999995239
 73
0
 72
1
 10
23.9660254037844389
 20
19.4133974596215566
 11
23.25
 21
19.0
 72
1
 10
23.25
 20
19.0
 11
23.9660254037844389
 21
18.5866025403784434
 72
2
 10
23.9160254037844382
 20
18.5
 40
0.1
 50
300.0000000000004547
 51
59.9999999999995239
 73
0
 72
1
 10
23.9660254037844389
 20
18.4133974596215566
 11
23.25
 21
18.0
 72
1
 10
23.25
 20
18.0
 11
23.3450961894323328
 21
17.9450961894323342
 72
1
 10
23.3450961894323328
 20
17.9450961894323342
 11
23.0
 21
17.6000000000000014
 72
1
 10
23.0
 20
17.6000000000000014
 11
23.0
 21
16.0
 72
1
 10
23.0
 20
16.0
 11
23.725480947161671
 21
15.274519052838329
 72
1
 10
23.725480947161671
 20
15.274519052838329
 11
23.25
 21
15.0
 72
1
 10
23.25
 20
15.0
 11
23.9660254037844389
 21
14.5866025403784434
 72
2
 10
23.9160254037844382
 20
14.5
 40
0.1
 50
300.0000000000004547
 51
59.9999999999995239
 73
0
 72
1
 10
23.9660254037844389
 20
14.4133974596215566
 11
23.25
 21
14.0
 72
1
 10
23.25
 20
14.0
 11
23.9660254037844389
 21
13.5866025403784434
 72
2
 10
23.9160254037844382
 20
13.5
 40
0.1
 50
300.0000000000004547
 51
59.9999999999995239
 73
0
 72
1
 10
23.9660254037844389
 20
13.4133974596215566
 11
23.25
 21
13.0
 72
1
 10
23.25
 20
13.0
 11
23.9660254037844389
 21
12.5866025403784434
 72
2
 10
23.9160254037844382
 20
12.5
 40
0.1
 50
300.0000000000004547
 51
59.9999999999995239
 73
0
 72
1
 10
23.9660254037844389
 20
12.4133974596215566
 11
23.25
 21
12.0
 72
1
 10
23.25
 20
12.0
 11
23.9660254037844389
 21
11.5866025403784434
 72
2
 10
23.9160254037844382
 20
11.5
 40
0.1
 50
300.0000000000004547
 51
59.9999999999995239
 73
0
 72
1
 10
23.9660254037844389
 20
11.4133974596215566
 11
23.25
 21
11.0
 72
1
 10
23.25
 20
11.0
 11
23.408493649053888
 21
10.9084936490538915
 72
1
 10
23.408493649053888
 20
10.9084936490538915
 11
22.5
 21
10.0
 72
1
 10
22.5
 20
10.0
 11
22.0
 21
10.0
 97
0
 75
0
 76
1
 52
0.7853981633974483
 41
0.05
 77
0
 78
1
 53
45.0
 43
0.0
 44
0.0
 45
-0.0883883476483184
 46
0.0883883476483185
 79
0
 98
0
  0
HATCH
  5
48
  8
Hatch
 62
256
370
-1
  6
ByLayer
100
AcDbEntity
100
AcDbHatch
 10
0.0
 20
0.0
 30
0.0
210
0.0
220
0.0
230
1.0
  2
iso03w100
 70
0
 71
0
 91
1
 92
1
 93
67
 72
1
 10
20.0
 20
10.0
 11
20.0
 21
35.75
 72
1
 10
20.0
 20
35.75
 11
19.25
 21
36.5
 72
1
 10
19.25
 20
36.5
 11
16.0
 21
36.5
 72
1
 10
16.0
 20
36.5
 11
16.0
 21
32.3500000000000014
 72
1
 10
16.0
 20
32.3500000000000014
 11
18.4901923788646734
 21
32.3500000000000014
 72
1
 10
18.4901923788646734
 20
32.3500000000000014
 11
18.0339745962155575
 21
32.0866025403784434
 72
2
 10
18.0839745962155583
 20
32.0
 40
0.1
 50
120.0000000000004974
 51
240.0000000000012506
 73
1
 72
1
 10
18.0339745962155611
 20
31.9133974596215566
 11
18.7500000000000036
 21
31.5
 72
1
 10
18.7500000000000036
 20
31.5
 11
18.0339745962155646
 21
31.0866025403784469
 72
2
 10
18.0839745962155654
 20
31.0000000000000036
 40
0.1
 50
120.0000000000004974
 51
239.9999999999995168
 73
1
 72
1
 10
18.0339745962155646
 20
30.9133974596215602
 11
18.75
 21
30.5
 72
1
 10
18.75
 20
30.5
 11
18.0339745962155611
 21
30.0866025403784434
 72
2
 10
18.0839745962155618
 20
30.0
 40
0.1
 50
120.0000000000004974
 51
239.9999999999995168
 73
1
 72
1
 10
18.0339745962155611
 20
29.9133974596215566
 11
18.7499999999999964
 21
29.5
 72
1
 10
18.7499999999999964
 20
29.5
 11
18.0339745962155646
 21
29.0866025403784469
 72
2
 10
18.0839745962155654
 20
29.0000000000000036
 40
0.1
 50
120.0000000000004974
 51
239.9999999999995168
 73
1
 72
1
 10
18.0339745962155646
 20
28.9133974596215602
 11
18.7500000000000036
 21
28.5
 72
1
 10
18.7500000000000036
 20
28.5
 11
18.0339745962155682
 21
28.0866025403784469
 72
2
 10
18.0839745962155689
 20
28.0
 40
0.1
 50
119.9999999999994884
 51
239.9999999999995168
 73
1
 72
1
 10
18.0339745962155682
 20
27.9133974596215566
 11
18.7500000000000036
 21
27.5000000000000036
 72
1
 10
18.7500000000000036
 20
27.5000000000000036
 11
18.0339745962155575
 21
27.0866025403784434
 72
2
 10
18.0839745962155583
 20
27.0
 40
0.1
 50
120.0000000000004974
 51
239.9999999999995168
 73
1
 72
1
 10
18.0339745962155575
 20
26.9133974596215566
 11
18.75
 21
26.5
 72
1
 10
18.75
 20
26.5
 11
18.0339745962155611
 21
26.0866025403784434
 72
2
 10
18.0839745962155618
 20
26.0
 40
0.1
 50
120.0000000000004974
 51
239.9999999999995168
 73
1
 72
1
 10
18.0339745962155611
 20
25.9133974596215566
 11
18.75
 21
25.5
 72
1
 10
18.75
 20
25.5
 11
18.0339745962155611
 21
25.0866025403784434
 72
2
 10
18.0839745962155618
 20
25.0
 40
0.1
 50
120.0000000000004974
 51
239.9999999999995168
 73
1
 72
1
 10
18.0339745962155611
 20
24.9133974596215566
 11
18.75
 21
24.5
 72
1
 10
18.75
 20
24.5
 11
18.0339745962155611
 21
24.0866025403784434
 72
2
 10
18.0839745962155618
 20
24.0
 40
0.1
 50
120.0000000000004974
 51
239.9999999999995168
 73
1
 72
1
 10
18.0339745962155611
 20
23.9133974596215566
 11
18.75
 21
23.5
 72
1
 10
18.75
 20
23.5
 11
18.0339745962155611
 21
23.0866025403784434
 72
2
 10
18.0839745962155618
 20
23.0
 40
0.1
 50
120.0000000000004974
 51
239.9999999999995168
 73
1
 72
1
 10
18.0339745962155611
 20
22.9133974596215566
 11
18.75
 21
22.5
 72
1
 10
18.75
 20
22.5
 11
18.0339745962155611
 21
22.0866025403784434
 72
2
 10
18.0839745962155618
 20
22.0
 40
0.1
 50
120.0000000000004974
 51
240.00000000000054
 73
1
 72
1
 10
18.0339745962155611
 20
21.9133974596215531
 11
18.75
 21
21.5
 72
1
 10
18.75
 20
21.5
 11
18.0339745962155611
 21
21.0866025403784434
 72
2
 10
18.0839745962155618
 20
21.0
 40
0.1
 50
120.0000000000004974
 51
239.9999999999995168
 73
1
 72
1
 10
18.0339745962155611
 20
20.9133974596215566
 11
18.75
 21
20.5
 72
1
 10
18.75
 20
20.5
 11
18.0339745962155611
 21
20.0866025403784434
 72
2
 10
18.0839745962155618
 20
20.0
 40
0.1
 50
120.0000000000004974
 51
239.9999999999995168
 73
1
 72
1
 10
18.0339745962155611
 20
19.9133974596215566
 11
18.75
 21
19.5
 72
1
 10
18.75
 20
19.5
 11
18.0339745962155611
 21
19.0866025403784469
 72
2
 10
18.0839745962155618
 20
19.0
 40
0.1
 50
119.9999999999994884
 51
239.9999999999995168
 73
1
 72
1
 10
18.0339745962155611
 20
18.9133974596215566
 11
18.75
 21
18.5
 72
1
 10
18.75
 20
18.5
 11
18.3379165124598877
 21
18.2620834875401137
 72
1
 10
18.3379165124598877
 20
18.2620834875401137
 11
19.0
 21
17.6000000000000014
 72
1
 10
19.0
 20
17.6000000000000014
 11
19.0
 21
16.0
 72
1
 10
19.0
 20
16.0
 11
18.5915063509461085
 21
15.5915063509461103
 72
1
 10
18.5915063509461085
 20
15.5915063509461103
 11
18.75
 21
15.5
 72
1
 10
18.75
 20
15.5
 11
18.0339745962155611
 21
15.0866025403784469
 72
2
 10
18.0839745962155618
 20
15.0000000000000018
 40
0.1
 50
119.9999999999999858
 51
240.0000000000000284
 73
1
 72
1
 10
18.0339745962155611
 20
14.9133974596215566
 11
18.75
 21
14.5
 72
1
 10
18.75
 20
14.5
 11
18.0339745962155575
 21
14.0866025403784434
 72
2
 10
18.0839745962155583
 20
14.0
 40
0.1
 50
120.0000000000004974
 51
239.9999999999995168
 73
1
 72
1
 10
18.0339745962155575
 20
13.9133974596215566
 11
18.7499999999999964
 21
13.5000000000000018
 72
1
 10
18.7499999999999964
 20
13.5000000000000018
 11
18.0339745962155611
 21
13.0866025403784434
 72
2
 10
18.0839745962155618
 20
13.0
 40
0.1
 50
120.0000000000004974
 51
239.9999999999995168
 73
1
 72
1
 10
18.0339745962155611
 20
12.9133974596215566
 11
18.75
 21
12.5
 72
1
 10
18.75
 20
12.5
 11
18.0339745962155646
 21
12.0866025403784469
 72
2
 10
18.0839745962155654
 20
12.0000000000000036
 40
0.1
 50
120.0000000000004974
 51
240.0000000000000284
 73
1
 72
1
 10
18.0339745962155646
 20
11.9133974596215584
 11
18.7499999999999964
 21
11.5
 72
1
 10
18.7499999999999964
 20
11.5
 11
18.2745190528383255
 21
11.2254809471616728
 72
1
 10
18.2745190528383255
 20
11.2254809471616728
 11
19.5
 21
10.0
 72
1
 10
19.5
 20
10.0
 11
20.0
 21
10.0
 97
0
 75
0
 76
1
 52
0.7853981633974483
 41
0.05
 77
0
 78
1
 53
45.0
 43
0.0
 44
0.0
 45
-0.0883883476483184
 46
0.0883883476483185
 79
0
 98
0
  0
LINE
  5
49
100
AcDbEntity
100
AcDbLine
  8
0
 62
256
370
-1
  6
ByLayer
 10
20.0
 20
10.0
 30
0.0
 11
20.0
 21
35.75
 31
0.0
  0
LINE
  5
4A
100
AcDbEntity
100
AcDbLine
  8
0
 62
256
370
-1
  6
ByLayer
 10
22.0
 20
10.0
 30
0.0
 11
22.0
 21
35.75
 31
0.0
  0
LINE
  5
4B
100
AcDbEntity
100
AcDbLine
  8
0
 62
256
370
-1
  6
ByLayer
 10
22.75
 20
36.5
 30
0.0
 11
22.0
 21
35.75
 31
0.0
  0
LINE
  5
4C
100
AcDbEntity
100
AcDbLine
  8
0
 62
256
370
-1
  6
ByLayer
 10
19.25
 20
36.5
 30
0.0
 11
20.0
 21
35.75
 31
0.0
  0
LINE
  5
4D
100
AcDbEntity
100
AcDbLine
  8
0
 62
256
370
-1
  6
ByLayer
 10
20.0
 20
35.75
 30
0.0
 11
22.0
 21
35.75
 31
0.0
  0
LINE
  5
4E
100
AcDbEntity
100
AcDbLine
  8
0
 62
256
370
-1
  6
ByLayer
 10
18.7500000000000036
 20
31.5
 30
0.0
 11
18.0339745962155611
 21
31.9133974596215566
 31
0.0
  0
ARC
  5
4F
100
AcDbEntity
  8
0
 62
256
370
-1
  6
ByLayer
100
AcDbCircle
 10
18.0839745962155583
 20
32.0
 30
0.0
 40
0.1
100
AcDbArc
 50
120.0000000000004974
 51
240.0000000000012506
  0
LINE
  5
50
100
AcDbEntity
100
AcDbLine
  8
0
 62
256
370
-1
  6
ByLayer
 10
18.7500000000000036
 20
31.5
 30
0.0
 11
18.0339745962155646
 21
31.0866025403784469
 31
0.0
  0
LINE
  5
51
100
AcDbEntity
100
AcDbLine
  8
0
 62
256
370
-1
  6
ByLayer
 10
18.75
 20
30.5
 30
0.0
 11
18.0339745962155646
 21
30.9133974596215602
 31
0.0
  0
ARC
  5
52
100
AcDbEntity
  8
0
 62
256
370
-1
  6
ByLayer
100
AcDbCircle
 10
18.0839745962155654
 20
31.0000000000000036
 30
0.0
 40
0.1
100
AcDbArc
 50
120.0000000000004974
 51
239.9999999999995168
  0
LINE
  5
53
100
AcDbEntity
100
AcDbLine
  8
0
 62
256
370
-1
  6
ByLayer
 10
18.75
 20
30.5
 30
0.0
 11
18.0339745962155611
 21
30.0866025403784434
 31
0.0
  0
LINE
  5
54
100
AcDbEntity
100
AcDbLine
  8
0
 62
256
370
-1
  6
ByLayer
 10
18.7499999999999964
 20
29.5
 30
0.0
 11
18.0339745962155611
 21
29.9133974596215566
 31
0.0
  0
ARC
  5
55
100
AcDbEntity
  8
0
 62
256
370
-1
  6
ByLayer
100
AcDbCircle
 10
18.0839745962155618
 20
30.0
 30
0.0
 40
0.1
100
AcDbArc
 50
120.0000000000004974
 51
239.9999999999995168
  0
LINE
  5
56
100
AcDbEntity
100
AcDbLine
  8
0
 62
256
370
-1
  6
ByLayer
 10
18.7499999999999964
 20
29.5
 30
0.0
 11
18.0339745962155646
 21
29.0866025403784469
 31
0.0
  0
LINE
  5
57
100
AcDbEntity
100
AcDbLine
  8
0
 62
256
370
-1
  6
ByLayer
 10
18.7500000000000036
 20
28.5
 30
0.0
 11
18.0339745962155646
 21
28.9133974596215602
 31
0.0
  0
ARC
  5
58
100
AcDbEntity
  8
0
 62
256
370
-1
  6
ByLayer
100
AcDbCircle
 10
18.0839745962155654
 20
29.0000000000000036
 30
0.0
 40
0.1
100
AcDbArc
 50
120.0000000000004974
 51
239.9999999999995168
  0
LINE
  5
59
100
AcDbEntity
100
AcDbLine
  8
0
 62
256
370
-1
  6
ByLayer
 10
18.7500000000000036
 20
28.5
 30
0.0
 11
18.0339745962155682
 21
28.0866025403784469
 31
0.0
  0
LINE
  5
5A
100
AcDbEntity
100
AcDbLine
  8
0
 62
256
370
-1
  6
ByLayer
 10
18.7500000000000036
 20
27.5000000000000036
 30
0.0
 11
18.0339745962155682
 21
27.9133974596215566
 31
0.0
  0
ARC
  5
5B
100
AcDbEntity
  8
0
 62
256
370
-1
  6
ByLayer
100
AcDbCircle
 10
18.0839745962155689
 20
28.0
 30
0.0
 40
0.1
100
AcDbArc
 50
119.9999999999994884
 51
239.9999999999995168
  0
LINE
  5
5C
100
AcDbEntity
100
AcDbLine
  8
0
 62
256
370
-1
  6
ByLayer
 10
18.7500000000000036
 20
27.5000000000000036
 30
0.0
 11
18.0339745962155575
 21
27.0866025403784434
 31
0.0
  0
LINE
  5
5D
100
AcDbEntity
100
AcDbLine
  8
0
 62
256
370
-1
  6
ByLayer
 10
18.75
 20
26.5
 30
0.0
 11
18.0339745962155575
 21
26.9133974596215566
 31
0.0
  0
ARC
  5
5E
100
AcDbEntity
  8
0
 62
256
370
-1
  6
ByLayer
100
AcDbCircle
 10
18.0839745962155583
 20
27.0
 30
0.0
 40
0.1
100
AcDbArc
 50
120.0000000000004974
 51
239.9999999999995168
  0
LINE
  5
5F
100
AcDbEntity
100
AcDbLine
  8
0
 62
256
370
-1
  6
ByLayer
 10
18.75
 20
26.5
 30
0.0
 11
18.0339745962155611
 21
26.0866025403784434
 31
0.0
  0
LINE
  5
60
100
AcDbEntity
100
AcDbLine
  8
0
 62
256
370
-1
  6
ByLayer
 10
18.75
 20
25.5
 30
0.0
 11
18.0339745962155611
 21
25.9133974596215566
 31
0.0
  0
ARC
  5
61
100
AcDbEntity
  8
0
 62
256
370
-1
  6
ByLayer
100
AcDbCircle
 10
18.0839745962155618
 20
26.0
 30
0.0
 40
0.1
100
AcDbArc
 50
120.0000000000004974
 51
239.9999999999995168
  0
LINE
  5
62
100
AcDbEntity
100
AcDbLine
  8
0
 62
256
370
-1
  6
ByLayer
 10
18.75
 20
25.5
 30
0.0
 11
18.0339745962155611
 21
25.0866025403784434
 31
0.0
  0
LINE
  5
63
100
AcDbEntity
100
AcDbLine
  8
0
 62
256
370
-1
  6
ByLayer
 10
18.75
 20
24.5
 30
0.0
 11
18.0339745962155611
 21
24.9133974596215566
 31
0.0
  0
ARC
  5
64
100
AcDbEntity
  8
0
 62
256
370
-1
  6
ByLayer
100
AcDbCircle
 10
18.0839745962155618
 20
25.0
 30
0.0
 40
0.1
100
AcDbArc
 50
120.0000000000004974
 51
239.9999999999995168
  0
LINE
  5
65
100
AcDbEntity
100
AcDbLine
  8
0
 62
256
370
-1
  6
ByLayer
 10
18.75
 20
24.5
 30
0.0
 11
18.0339745962155611
 21
24.0866025403784434
 31
0.0
  0
LINE
  5
66
100
AcDbEntity
100
AcDbLine
  8
0
 62
256
370
-1
  6
ByLayer
 10
18.75
 20
23.5
 30
0.0
 11
18.0339745962155611
 21
23.9133974596215566
 31
0.0
  0
ARC
  5
67
100
AcDbEntity
  8
0
 62
256
370
-1
  6
ByLayer
100
AcDbCircle
 10
18.0839745962155618
 20
24.0
 30
0.0
 40
0.1
100
AcDbArc
 50
120.0000000000004974
 51
239.9999999999995168
  0
LINE
  5
68
100
AcDbEntity
100
AcDbLine
  8
0
 62
256
370
-1
  6
ByLayer
 10
18.75
 20
23.5
 30
0.0
 11
18.0339745962155611
 21
23.0866025403784434
 31
0.0
  0
LINE
  5
69
100
AcDbEntity
100
AcDbLine
  8
0
 62
256
370
-1
  6
ByLayer
 10
18.75
 20
22.5
 30
0.0
 11
18.0339745962155611
 21
22.9133974596215566
 31
0.0
  0
ARC
  5
6A
100
AcDbEntity
  8
0
 62
256
370
-1
  6
ByLayer
100
AcDbCircle
 10
18.0839745962155618
 20
23.0
 30
0.0
 40
0.1
100
AcDbArc
 50
120.0000000000004974
 51
239.9999999999995168
  0
LINE
  5
6B
100
AcDbEntity
100
AcDbLine
  8
0
 62
256
370
-1
  6
ByLayer
 10
18.75
 20
22.5
 30
0.0
 11
18.0339745962155611
 21
22.0866025403784434
 31
0.0
  0
LINE
  5
6C
100
AcDbEntity
100
AcDbLine
  8
0
 62
256
370
-1
  6
ByLayer
 10
18.75
 20
21.5
 30
0.0
 11
18.0339745962155611
 21
21.9133974596215531
 31
0.0
  0
ARC
  5
6D
100
AcDbEntity
  8
0
 62
256
370
-1
  6
ByLayer
100
AcDbCircle
 10
18.0839745962155618
 20
22.0
 30
0.0
 40
0.1
100
AcDbArc
 50
120.0000000000004974
 51
240.00000000000054
  0
LINE
  5
6E
100
AcDbEntity
100
AcDbLine
  8
0
 62
256
370
-1
  6
ByLayer
 10
18.75
 20
21.5
 30
0.0
 11
18.0339745962155611
 21
21.0866025403784434
 31
0.0
  0
LINE
  5
6F
100
AcDbEntity
100
AcDbLine
  8
0
 62
256
370
-1
  6
ByLayer
 10
18.75
 20
20.5
 30
0.0
 11
18.0339745962155611
 21
20.9133974596215566
 31
0.0
  0
ARC
  5
70
100
AcDbEntity
  8
0
 62
256
370
-1
  6
ByLayer
100
AcDbCircle
 10
18.0839745962155618
 20
21.0
 30
0.0
 40
0.1
100
AcDbArc
 50
120.0000000000004974
 51
239.9999999999995168
  0
LINE
  5
71
100
AcDbEntity
100
AcDbLine
  8
0
 62
256
370
-1
  6
ByLayer
 10
18.75
 20
20.5
 30
0.0
 11
18.0339745962155611
 21
20.0866025403784434
 31
0.0
  0
LINE
  5
72
100
AcDbEntity
100
AcDbLine
  8
0
 62
256
370
-1
  6
ByLayer
 10
18.75
 20
19.5
 30
0.0
 11
18.0339745962155611
 21
19.9133974596215566
 31
0.0
  0
ARC
  5
73
100
AcDbEntity
  8
0
 62
256
370
-1
  6
ByLayer
100
AcDbCircle
 10
18.0839745962155618
 20
20.0
 30
0.0
 40
0.1
100
AcDbArc
 50
120.0000000000004974
 51
239.9999999999995168
  0
LINE
  5
74
100
AcDbEntity
100
AcDbLine
  8
0
 62
256
370
-1
  6
ByLayer
 10
18.75
 20
19.5
 30
0.0
 11
18.0339745962155611
 21
19.0866025403784469
 31
0.0
  0
LINE
  5
75
100
AcDbEntity
100
AcDbLine
  8
0
 62
256
370
-1
  6
ByLayer
 10
18.75
 20
18.5
 30
0.0
 11
18.0339745962155611
 21
18.9133974596215566
 31
0.0
  0
ARC
  5
76
100
AcDbEntity
  8
0
 62
256
370
-1
  6
ByLayer
100
AcDbCircle
 10
18.0839745962155618
 20
19.0
 30
0.0
 40
0.1
100
AcDbArc
 50
119.9999999999994884
 51
239.9999999999995168
  0
LINE
  5
77
100
AcDbEntity
100
AcDbLine
  8
0
 62
256
370
-1
  6
ByLayer
 10
18.75
 20
15.5
 30
0.0
 11
18.0339745962155611
 21
15.0866025403784469
 31
0.0
  0
LINE
  5
78
100
AcDbEntity
100
AcDbLine
  8
0
 62
256
370
-1
  6
ByLayer
 10
18.75
 20
14.5
 30
0.0
 11
18.0339745962155611
 21
14.9133974596215566
 31
0.0
  0
ARC
  5
79
100
AcDbEntity
  8
0
 62
256
370
-1
  6
ByLayer
100
AcDbCircle
 10
18.0839745962155618
 20
15.0000000000000018
 30
0.0
 40
0.1
100
AcDbArc
 50
119.9999999999999858
 51
240.0000000000000284
  0
LINE
  5
7A
100
AcDbEntity
100
AcDbLine
  8
0
 62
256
370
-1
  6
ByLayer
 10
18.75
 20
14.5
 30
0.0
 11
18.0339745962155575
 21
14.0866025403784434
 31
0.0
  0
LINE
  5
7B
100
AcDbEntity
100
AcDbLine
  8
0
 62
256
370
-1
  6
ByLayer
 10
18.7499999999999964
 20
13.5000000000000018
 30
0.0
 11
18.0339745962155575
 21
13.9133974596215566
 31
0.0
  0
ARC
  5
7C
100
AcDbEntity
  8
0
 62
256
370
-1
  6
ByLayer
100
AcDbCircle
 10
18.0839745962155583
 20
14.0
 30
0.0
 40
0.1
100
AcDbArc
 50
120.0000000000004974
 51
239.9999999999995168
  0
LINE
  5
7D
100
AcDbEntity
100
AcDbLine
  8
0
 62
256
370
-1
  6
ByLayer
 10
18.7499999999999964
 20
13.5000000000000018
 30
0.0
 11
18.0339745962155611
 21
13.0866025403784434
 31
0.0
  0
LINE
  5
7E
100
AcDbEntity
100
AcDbLine
  8
0
 62
256
370
-1
  6
ByLayer
 10
18.75
 20
12.5
 30
0.0
 11
18.0339745962155611
 21
12.9133974596215566
 31
0.0
  0
ARC
  5
7F
100
AcDbEntity
  8
0
 62
256
370
-1
  6
ByLayer
100
AcDbCircle
 10
18.0839745962155618
 20
13.0
 30
0.0
 40
0.1
100
AcDbArc
 50
120.0000000000004974
 51
239.9999999999995168
  0
LINE
  5
80
100
AcDbEntity
100
AcDbLine
  8
0
 62
256
370
-1
  6
ByLayer
 10
18.75
 20
12.5
 30
0.0
 11
18.0339745962155646
 21
12.0866025403784469
 31
0.0
  0
LINE
  5
81
100
AcDbEntity
100
AcDbLine
  8
0
 62
256
370
-1
  6
ByLayer
 10
18.7499999999999964
 20
11.5
 30
0.0
 11
18.0339745962155646
 21
11.9133974596215584
 31
0.0
  0
ARC
  5
82
100
AcDbEntity
  8
0
 62
256
370
-1
  6
ByLayer
100
AcDbCircle
 10
18.0839745962155654
 20
12.0000000000000036
 30
0.0
 40
0.1
100
AcDbArc
 50
120.0000000000004974
 51
240.0000000000000284
  0
LINE
  5
83
100
AcDbEntity
100
AcDbLine
  8
0
 62
256
370
-1
  6
ByLayer
 10
23.25
 20
11.0
 30
0.0
 11
23.9660254037844389
 21
11.4133974596215566
 31
0.0
  0
LINE
  5
84
100
AcDbEntity
100
AcDbLine
  8
0
 62
256
370
-1
  6
ByLayer
 10
23.25
 20
12.0
 30
0.0
 11
23.9660254037844389
 21
11.5866025403784434
 31
0.0
  0
ARC
  5
85
100
AcDbEntity
  8
0
 62
256
370
-1
  6
ByLayer
100
AcDbCircle
 10
23.9160254037844382
 20
11.5
 30
0.0
 40
0.1
100
AcDbArc
 50
300.0000000000004547
 51
59.9999999999995097
  0
LINE
  5
86
100
AcDbEntity
100
AcDbLine
  8
0
 62
256
370
-1
  6
ByLayer
 10
23.25
 20
12.0
 30
0.0
 11
23.9660254037844389
 21
12.4133974596215566
 31
0.0
  0
LINE
  5
87
100
AcDbEntity
100
AcDbLine
  8
0
 62
256
370
-1
  6
ByLayer
 10
23.25
 20
13.0
 30
0.0
 11
23.9660254037844389
 21
12.5866025403784434
 31
0.0
  0
ARC
  5
88
100
AcDbEntity
  8
0
 62
256
370
-1
  6
ByLayer
100
AcDbCircle
 10
23.9160254037844382
 20
12.5
 30
0.0
 40
0.1
100
AcDbArc
 50
300.0000000000004547
 51
59.9999999999995097
  0
LINE
  5
89
100
AcDbEntity
100
AcDbLine
  8
0
 62
256
370
-1
  6
ByLayer
 10
23.25
 20
13.0
 30
0.0
 11
23.9660254037844389
 21
13.4133974596215566
 31
0.0
  0
LINE
  5
8A
100
AcDbEntity
100
AcDbLine
  8
0
 62
256
370
-1
  6
ByLayer
 10
23.25
 20
14.0
 30
0.0
 11
23.9660254037844389
 21
13.5866025403784434
 31
0.0
  0
ARC
  5
8B
100
AcDbEntity
  8
0
 62
256
370
-1
  6
ByLayer
100
AcDbCircle
 10
23.9160254037844382
 20
13.5
 30
0.0
 40
0.1
100
AcDbArc
 50
300.0000000000004547
 51
59.9999999999995097
  0
LINE
  5
8C
100
AcDbEntity
100
AcDbLine
  8
0
 62
256
370
-1
  6
ByLayer
 10
23.25
 20
14.0
 30
0.0
 11
23.9660254037844389
 21
14.4133974596215566
 31
0.0
  0
LINE
  5
8D
100
AcDbEntity
100
AcDbLine
  8
0
 62
256
370
-1
  6
ByLayer
 10
23.25
 20
15.0
 30
0.0
 11
23.9660254037844389
 21
14.5866025403784434
 31
0.0
  0
ARC
  5
8E
100
AcDbEntity
  8
0
 62
256
370
-1
  6
ByLayer
100
AcDbCircle
 10
23.9160254037844382
 20
14.5
 30
0.0
 40
0.1
100
AcDbArc
 50
300.0000000000004547
 51
59.9999999999995097
  0
LINE
  5
8F
100
AcDbEntity
100
AcDbLine
  8
0
 62
256
370
-1
  6
ByLayer
 10
23.25
 20
18.0
 30
0.0
 11
23.9660254037844389
 21
18.4133974596215566
 31
0.0
  0
LINE
  5
90
100
AcDbEntity
100
AcDbLine
  8
0
 62
256
370
-1
  6
ByLayer
 10
23.25
 20
19.0
 30
0.0
 11
23.9660254037844389
 21
18.5866025403784434
 31
0.0
  0
ARC
  5
91
100
AcDbEntity
  8
0
 62
256
370
-1
  6
ByLayer
100
AcDbCircle
 10
23.9160254037844382
 20
18.5
 30
0.0
 40
0.1
100
AcDbArc
 50
300.0000000000004547
 51
59.9999999999995097
  0
LINE
  5
92
100
AcDbEntity
100
AcDbLine
  8
0
 62
256
370
-1
  6
ByLayer
 10
23.25
 20
19.0
 30
0.0
 11
23.9660254037844389
 21
19.4133974596215566
 31
0.0
  0
LINE
  5
93
100
AcDbEntity
100
AcDbLine
  8
0
 62
256
370
-1
  6
ByLayer
 10
23.25
 20
20.0
 30
0.0
 11
23.9660254037844389
 21
19.5866025403784434
 31
0.0
  0
ARC
  5
94
100
AcDbEntity
  8
0
 62
256
370
-1
  6
ByLayer
100
AcDbCircle
 10
23.9160254037844382
 20
19.5
 30
0.0
 40
0.1
100
AcDbArc
 50
300.0000000000004547
 51
59.9999999999995097
  0
LINE
  5
95
100
AcDbEntity
100
AcDbLine
  8
0
 62
256
370
-1
  6
ByLayer
 10
23.25
 20
20.0
 30
0.0
 11
23.9660254037844389
 21
20.4133974596215566
 31
0.0
  0
LINE
  5
96
100
AcDbEntity
100
AcDbLine
  8
0
 62
256
370
-1
  6
ByLayer
 10
23.25
 20
21.0
 30
0.0
 11
23.9660254037844389
 21
20.5866025403784434
 31
0.0
  0
ARC
  5
97
100
AcDbEntity
  8
0
 62
256
370
-1
  6
ByLayer
100
AcDbCircle
 10
23.9160254037844382
 20
20.5
 30
0.0
 40
0.1
100
AcDbArc
 50
300.0000000000004547
 51
59.9999999999995097
  0
LINE
  5
98
100
AcDbEntity
100
AcDbLine
  8
0
 62
256
370
-1
  6
ByLayer
 10
23.25
 20
21.0
 30
0.0
 11
23.9660254037844389
 21
21.4133974596215566
 31
0.0
  0
LINE
  5
99
100
AcDbEntity
100
AcDbLine
  8
0
 62
256
370
-1
  6
ByLayer
 10
23.25
 20
22.0
 30
0.0
 11
23.9660254037844389
 21
21.5866025403784434
 31
0.0
  0
ARC
  5
9A
100
AcDbEntity
  8
0
 62
256
370
-1
  6
ByLayer
100
AcDbCircle
 10
23.9160254037844382
 20
21.5
 30
0.0
 40
0.1
100
AcDbArc
 50
300.0000000000004547
 51
59.9999999999995097
  0
LINE
  5
9B
100
AcDbEntity
100
AcDbLine
  8
0
 62
256
370
-1
  6
ByLayer
 10
23.25
 20
22.0
 30
0.0
 11
23.9660254037844389
 21
22.4133974596215566
 31
0.0
  0
LINE
  5
9C
100
AcDbEntity
100
AcDbLine
  8
0
 62
256
370
-1
  6
ByLayer
 10
23.25
 20
23.0
 30
0.0
 11
23.9660254037844389
 21
22.5866025403784434
 31
0.0
  0
ARC
  5
9D
100
AcDbEntity
  8
0
 62
256
370
-1
  6
ByLayer
100
AcDbCircle
 10
23.9160254037844382
 20
22.5
 30
0.0
 40
0.1
100
AcDbArc
 50
300.0000000000004547
 51
59.9999999999995097
  0
LINE
  5
9E
100
AcDbEntity
100
AcDbLine
  8
0
 62
256
370
-1
  6
ByLayer
 10
23.25
 20
23.0
 30
0.0
 11
23.9660254037844389
 21
23.4133974596215566
 31
0.0
  0
LINE
  5
9F
100
AcDbEntity
100
AcDbLine
  8
0
 62
256
370
-1
  6
ByLayer
 10
23.25
 20
24.0
 30
0.0
 11
23.9660254037844389
 21
23.5866025403784434
 31
0.0
  0
ARC
  5
A0
100
AcDbEntity
  8
0
 62
256
370
-1
  6
ByLayer
100
AcDbCircle
 10
23.9160254037844382
 20
23.5
 30
0.0
 40
0.1
100
AcDbArc
 50
300.0000000000004547
 51
59.9999999999995097
  0
LINE
  5
A1
100
AcDbEntity
100
AcDbLine
  8
0
 62
256
370
-1
  6
ByLayer
 10
23.25
 20
24.0
 30
0.0
 11
23.9660254037844389
 21
24.4133974596215566
 31
0.0
  0
LINE
  5
A2
100
AcDbEntity
100
AcDbLine
  8
0
 62
256
370
-1
  6
ByLayer
 10
23.25
 20
25.0
 30
0.0
 11
23.9660254037844389
 21
24.5866025403784434
 31
0.0
  0
ARC
  5
A3
100
AcDbEntity
  8
0
 62
256
370
-1
  6
ByLayer
100
AcDbCircle
 10
23.9160254037844382
 20
24.5
 30
0.0
 40
0.1
100
AcDbArc
 50
300.0000000000004547
 51
59.9999999999995097
  0
LINE
  5
A4
100
AcDbEntity
100
AcDbLine
  8
0
 62
256
370
-1
  6
ByLayer
 10
23.25
 20
25.0
 30
0.0
 11
23.9660254037844389
 21
25.4133974596215566
 31
0.0
  0
LINE
  5
A5
100
AcDbEntity
100
AcDbLine
  8
0
 62
256
370
-1
  6
ByLayer
 10
23.25
 20
26.0
 30
0.0
 11
23.9660254037844389
 21
25.5866025403784434
 31
0.0
  0
ARC
  5
A6
100
AcDbEntity
  8
0
 62
256
370
-1
  6
ByLayer
100
AcDbCircle
 10
23.9160254037844382
 20
25.5
 30
0.0
 40
0.1
100
AcDbArc
 50
300.0000000000004547
 51
59.9999999999995097
  0
LINE
  5
A7
100
AcDbEntity
100
AcDbLine
  8
0
 62
256
370
-1
  6
ByLayer
 10
23.25
 20
26.0
 30
0.0
 11
23.9660254037844389
 21
26.4133974596215566
 31
0.0
  0
LINE
  5
A8
100
AcDbEntity
100
AcDbLine
  8
0
 62
256
370
-1
  6
ByLayer
 10
23.25
 20
27.0
 30
0.0
 11
23.9660254037844389
 21
26.5866025403784434
 31
0.0
  0
ARC
  5
A9
100
AcDbEntity
  8
0
 62
256
370
-1
  6
ByLayer
100
AcDbCircle
 10
23.9160254037844382
 20
26.5
 30
0.0
 40
0.1
100
AcDbArc
 50
300.0000000000004547
 51
59.9999999999995097
  0
LINE
  5
AA
100
AcDbEntity
100
AcDbLine
  8
0
 62
256
370
-1
  6
ByLayer
 10
23.25
 20
27.0
 30
0.0
 11
23.9660254037844389
 21
27.4133974596215566
 31
0.0
  0
LINE
  5
AB
100
AcDbEntity
100
AcDbLine
  8
0
 62
256
370
-1
  6
ByLayer
 10
23.25
 20
28.0
 30
0.0
 11
23.9660254037844389
 21
27.5866025403784434
 31
0.0
  0
ARC
  5
AC
100
AcDbEntity
  8
0
 62
256
370
-1
  6
ByLayer
100
AcDbCircle
 10
23.9160254037844382
 20
27.5
 30
0.0
 40
0.1
100
AcDbArc
 50
300.0000000000004547
 51
59.9999999999995097
  0
LINE
  5
AD
100
AcDbEntity
100
AcDbLine
  8
0
 62
256
370
-1
  6
ByLayer
 10
23.25
 20
28.0
 30
0.0
 11
23.9660254037844389
 21
28.4133974596215566
 31
0.0
  0
LINE
  5
AE
100
AcDbEntity
100
AcDbLine
  8
0
 62
256
370
-1
  6
ByLayer
 10
23.25
 20
29.0
 30
0.0
 11
23.9660254037844389
 21
28.5866025403784434
 31
0.0
  0
ARC
  5
AF
100
AcDbEntity
  8
0
 62
256
370
-1
  6
ByLayer
100
AcDbCircle
 10
23.9160254037844382
 20
28.5
 30
0.0
 40
0.1
100
AcDbArc
 50
300.0000000000004547
 51
59.9999999999995097
  0
LINE
  5
B0
100
AcDbEntity
100
AcDbLine
  8
0
 62
256
370
-1
  6
ByLayer
 10
23.25
 20
29.0
 30
0.0
 11
23.9660254037844389
 21
29.4133974596215566
 31
0.0
  0
LINE
  5
B1
100
AcDbEntity
100
AcDbLine
  8
0
 62
256
370
-1
  6
ByLayer
 10
23.25
 20
30.0
 30
0.0
 11
23.9660254037844389
 21
29.5866025403784434
 31
0.0
  0
ARC
  5
B2
100
AcDbEntity
  8
0
 62
256
370
-1
  6
ByLayer
100
AcDbCircle
 10
23.9160254037844382
 20
29.5
 30
0.0
 40
0.1
100
AcDbArc
 50
300.0000000000004547
 51
59.9999999999995097
  0
LINE
  5
B3
100
AcDbEntity
100
AcDbLine
  8
0
 62
256
370
-1
  6
ByLayer
 10
23.25
 20
30.0
 30
0.0
 11
23.9660254037844389
 21
30.4133974596215566
 31
0.0
  0
LINE
  5
B4
100
AcDbEntity
100
AcDbLine
  8
0
 62
256
370
-1
  6
ByLayer
 10
23.25
 20
31.0
 30
0.0
 11
23.9660254037844389
 21
30.5866025403784434
 31
0.0
  0
ARC
  5
B5
100
AcDbEntity
  8
0
 62
256
370
-1
  6
ByLayer
100
AcDbCircle
 10
23.9160254037844382
 20
30.5
 30
0.0
 40
0.1
100
AcDbArc
 50
300.0000000000004547
 51
59.9999999999995097
  0
LINE
  5
B6
100
AcDbEntity
100
AcDbLine
  8
0
 62
256
370
-1
  6
ByLayer
 10
23.25
 20
31.0
 30
0.0
 11
23.9660254037844389
 21
31.4133974596215566
 31
0.0
  0
LINE
  5
B7
100
AcDbEntity
100
AcDbLine
  8
0
 62
256
370
-1
  6
ByLayer
 10
23.25
 20
32.0
 30
0.0
 11
23.9660254037844389
 21
31.5866025403784434
 31
0.0
  0
ARC
  5
B8
100
AcDbEntity
  8
0
 62
256
370
-1
  6
ByLayer
100
AcDbCircle
 10
23.9160254037844382
 20
31.5
 30
0.0
 40
0.1
100
AcDbArc
 50
300.0000000000004547
 51
59.9999999999995097
  0
LINE
  5
B9
100
AcDbEntity
100
AcDbLine
  8
0
 62
256
370
-1
  6
ByLayer
 10
19.5
 20
10.0
 30
0.0
 11
18.2745190528383255
 21
11.2254809471616728
 31
0.0
  0
LINE
  5
BA
100
AcDbEntity
100
AcDbLine
  8
0
 62
256
370
-1
  6
ByLayer
 10
18.7499999999999964
 20
11.5
 30
0.0
 11
18.2745190528383255
 21
11.2254809471616728
 31
0.0
  0
LINE
  5
BB
100
AcDbEntity
100
AcDbLine
  8
0
 62
256
370
-1
  6
ByLayer
 10
22.5
 20
10.0
 30
0.0
 11
23.408493649053888
 21
10.9084936490538915
 31
0.0
  0
LINE
  5
BC
100
AcDbEntity
100
AcDbLine
  8
0
 62
256
370
-1
  6
ByLayer
 10
23.25
 20
11.0
 30
0.0
 11
23.408493649053888
 21
10.9084936490538915
 31
0.0
  0
LINE
  5
BD
100
AcDbEntity
100
AcDbLine
  8
0
 62
256
370
-1
  6
ByLayer
 10
19.0
 20
16.0
 30
0.0
 11
19.0
 21
17.6000000000000014
 31
0.0
  0
LINE
  5
BE
100
AcDbEntity
100
AcDbLine
  8
0
 62
256
370
-1
  6
ByLayer
 10
23.0
 20
16.0
 30
0.0
 11
23.0
 21
17.6000000000000014
 31
0.0
  0
LINE
  5
BF
100
AcDbEntity
100
AcDbLine
  8
0
 62
256
370
-1
  6
ByLayer
 10
19.0
 20
16.0
 30
0.0
 11
18.5915063509461085
 21
15.5915063509461103
 31
0.0
  0
LINE
  5
C0
100
AcDbEntity
100
AcDbLine
  8
0
 62
256
370
-1
  6
ByLayer
 10
19.0
 20
17.6000000000000014
 30
0.0
 11
18.3379165124598877
 21
18.2620834875401137
 31
0.0
  0
LINE
  5
C1
100
AcDbEntity
100
AcDbLine
  8
0
 62
256
370
-1
  6
ByLayer
 10
18.75
 20
18.5
 30
0.0
 11
18.3379165124598877
 21
18.2620834875401137
 31
0.0
  0
LINE
  5
C2
100
AcDbEntity
100
AcDbLine
  8
0
 62
256
370
-1
  6
ByLayer
 10
18.75
 20
15.5
 30
0.0
 11
18.5915063509461085
 21
15.5915063509461103
 31
0.0
  0
LINE
  5
C3
100
AcDbEntity
100
AcDbLine
  8
0
 62
256
370
-1
  6
ByLayer
 10
23.0
 20
17.6000000000000014
 30
0.0
 11
23.3450961894323328
 21
17.9450961894323342
 31
0.0
  0
LINE
  5
C4
100
AcDbEntity
100
AcDbLine
  8
0
 62
256
370
-1
  6
ByLayer
 10
23.25
 20
18.0
 30
0.0
 11
23.3450961894323328
 21
17.9450961894323342
 31
0.0
  0
LINE
  5
C5
100
AcDbEntity
100
AcDbLine
  8
0
 62
256
370
-1
  6
ByLayer
 10
23.0
 20
16.0
 30
0.0
 11
23.725480947161671
 21
15.274519052838329
 31
0.0
  0
LINE
  5
C6
100
AcDbEntity
100
AcDbLine
  8
0
 62
256
370
-1
  6
ByLayer
 10
23.25
 20
15.0
 30
0.0
 11
23.725480947161671
 21
15.274519052838329
 31
0.0
  0
LINE
  5
C7
100
AcDbEntity
100
AcDbLine
  8
0
 62
256
370
-1
  6
ByLayer
 10
26.0
 20
32.3500000000000014
 30
0.0
 11
26.0
 21
36.5
 31
0.0
  0
LINE
  5
C8
100
AcDbEntity
100
AcDbLine
  8
0
 62
256
370
-1
  6
ByLayer
 10
16.0
 20
32.3500000000000014
 30
0.0
 11
16.0
 21
36.5
 31
0.0
  0
LINE
  5
C9
100
AcDbEntity
100
AcDbLine
  8
0
 62
256
370
-1
  6
ByLayer
 10
18.4901923788646734
 20
32.3500000000000014
 30
0.0
 11
18.0339745962155575
 21
32.0866025403784434
 31
0.0
  0
LINE
  5
CA
100
AcDbEntity
100
AcDbLine
  8
0
 62
256
370
-1
  6
ByLayer
 10
23.25
 20
32.0
 30
0.0
 11
23.8562177826491073
 21
32.3500000000000014
 31
0.0
  0
LINE
  5
CB
100
AcDbEntity
100
AcDbLine
  8
0
 62
256
370
-1
  6
ByLayer
 10
16.0
 20
32.3500000000000014
 30
0.0
 11
18.4901923788646734
 21
32.3500000000000014
 31
0.0
  0
LINE
  5
CC
100
AcDbEntity
100
AcDbLine
  8
0
 62
256
370
-1
  6
ByLayer
 10
23.8562177826491073
 20
32.3500000000000014
 30
0.0
 11
26.0
 21
32.3500000000000014
 31
0.0
  0
LINE
  5
CD
100
AcDbEntity
100
AcDbLine
  8
0
 62
256
370
-1
  6
ByLayer
 10
16.0
 20
36.5
 30
0.0
 11
19.25
 21
36.5
 31
0.0
  0
LINE
  5
CE
100
AcDbEntity
100
AcDbLine
  8
0
 62
256
370
-1
  6
ByLayer
 10
19.25
 20
36.5
 30
0.0
 11
22.75
 21
36.5
 31
0.0
  0
LINE
  5
CF
100
AcDbEntity
100
AcDbLine
  8
0
 62
256
370
-1
  6
ByLayer
 10
22.75
 20
36.5
 30
0.0
 11
26.0
 21
36.5
 31
0.0
  0
LINE
  5
D0
100
AcDbEntity
100
AcDbLine
  8
0
 62
256
370
-1
  6
ByLayer
 10
19.5
 20
10.0
 30
0.0
 11
20.0
 21
10.0
 31
0.0
  0
LINE
  5
D1
100
AcDbEntity
100
AcDbLine
  8
0
 62
256
370
-1
  6
ByLayer
 10
20.0
 20
10.0
 30
0.0
 11
22.0
 21
10.0
 31
0.0
  0
LINE
  5
D2
100
AcDbEntity
100
AcDbLine
  8
0
 62
256
370
-1
  6
ByLayer
 10
22.0
 20
10.0
 30
0.0
 11
22.5
 21
10.0
 31
0.0
  0
DIMENSION
  5
D3
100
AcDbEntity
  8
Dimensions
 62
256
370
-1
  6
ByLayer
100
AcDbDimension
 10
22.5
 20
-1.0
 30
0.0
 11
20.98201671139865
 21
0.875
 31
0.0
 70
0
 71
5
 72
1
 41
1.0
 42
0.0
  1
%%c3
  3
Standard
100
AcDbAlignedDimension
 13
19.4640334227972964
 23
10.0359665772027018
 33
0.0
 14
22.5
 24
10.0
 34
0.0
 50
0.0
100
AcDbRotatedDimension
  0
DIMENSION
  5
D4
100
AcDbEntity
  8
Dimensions
 62
256
370
-1
  6
ByLayer
100
AcDbDimension
 10
22.0
 20
4.0
 30
0.0
 11
21.0
 21
5.875
 31
0.0
 70
0
 71
5
 72
1
 41
1.0
 42
0.0
  1
%%c2
  3
Standard
100
AcDbAlignedDimension
 13
20.0
 23
10.0
 33
0.0
 14
22.0
 24
10.0
 34
0.0
 50
0.0
100
AcDbRotatedDimension
  0
DIMENSION
  5
D5
100
AcDbEntity
  8
Dimensions
 62
256
370
-1
  6
ByLayer
100
AcDbDimension
 10
24.0
 20
-7.0
 30
0.0
 11
21.0
 21
-5.125
 31
0.0
 70
0
 71
5
 72
1
 41
1.0
 42
0.0
  1
%%c6
  3
Standard
100
AcDbAlignedDimension
 13
18.0
 23
12.0
 33
0.0
 14
24.0
 24
12.0
 34
0.0
 50
0.0
100
AcDbRotatedDimension
  0
DIMENSION
  5
D6
100
AcDbEntity
  8
Dimensions
 62
256
370
-1
  6
ByLayer
100
AcDbDimension
 10
15.0
 20
16.0
 30
0.0
 11
13.125
 21
13.0
 31
0.0
 70
0
 71
5
 72
1
 41
1.0
 42
0.0
  1

  3
Standard
100
AcDbAlignedDimension
 13
19.5
 23
10.0
 33
0.0
 14
19.0
 24
16.0
 34
0.0
 50
90.0
100
AcDbRotatedDimension
  0
DIMENSION
  5
D7
100
AcDbEntity
  8
Dimensions
 62
256
370
-1
  6
ByLayer
100
AcDbDimension
 10
10.0
 20
17.6000000000000014
 30
0.0
 11
8.125
 21
13.8000000000000007
 31
0.0
 70
0
 71
5
 72
1
 41
1.0
 42
0.0
  1

  3
Standard
100
AcDbAlignedDimension
 13
19.5
 23
10.0
 33
0.0
 14
19.0
 24
17.6000000000000014
 34
0.0
 50
90.0
100
AcDbRotatedDimension
  0
DIMENSION
  5
D8
100
AcDbEntity
  8
Dimensions
 62
256
370
-1
  6
ByLayer
100
AcDbDimension
 10
4.0000000000000036
 20
36.5
 30
0.0
 11
2.1250000000000027
 21
23.26798328860135
 31
0.0
 70
0
 71
5
 72
1
 41
1.0
 42
0.0
  1
26.5
  3
Standard
100
AcDbAlignedDimension
 13
19.4640334227972964
 23
10.0359665772027018
 33
0.0
 14
16.0
 24
36.5
 34
0.0
 50
90.0
100
AcDbRotatedDimension
  0
DIMENSION
  5
D9
100
AcDbEntity
  8
Dimensions
 62
256
370
-1
  6
ByLayer
100
AcDbDimension
 10
12.0
 20
32.3500000000000014
 30
0.0
 11
10.125
 21
34.4249999999999972
 31
0.0
 70
0
 71
5
 72
1
 41
1.0
 42
0.0
  1

  3
Standard
100
AcDbAlignedDimension
 13
16.0
 23
36.5
 33
0.0
 14
16.0
 24
32.3500000000000014
 34
0.0
 50
90.0
100
AcDbRotatedDimension
  0
LEADER
  5
DA
  8
Dimensions
 62
256
370
-1
  6
ByLayer
100
AcDbEntity
100
AcDbLeader
  3
Standard
 71
1
 72
0
 73
3
 74
0
 75
0
 40
1.0
 41
10.0
 76
3
 10
23.976550187429936
 20
20.579603709490609
 10
27.0
 20
23.0
 10
37.0
 20
23.0
  0
LEADER
  5
DB
  8
Dimensions
 62
256
370
-1
  6
ByLayer
100
AcDbEntity
100
AcDbLeader
  3
Standard
 71
1
 72
0
 73
3
 74
0
 75
0
 40
1.0
 41
10.0
 76
3
 10
24.2745344000004373
 20
36.5
 10
28.0
 20
41.0
 10
39.0
 20
41.0
  0
MTEXT
  5
DC
100
AcDbEntity
100
AcDbMText
  8
Dimensions
 62
256
370
-1
  6
ByLayer
 10
37.0
 20
25.0
 30
0.0
 40
3.0
 41
100.0
 71
5
 72
2
  1
M6 thread
  7
iso
 50
0.0
 73
1
 44
1.0
  0
DIMENSION
  5
DD
100
AcDbEntity
  8
Dimensions
 62
256
370
-1
  6
ByLayer
100
AcDbDimension
 10
22.75
 20
40.0
 30
0.0
 11
21.0
 21
41.875
 31
0.0
 70
0
 71
5
 72
1
 41
1.0
 42
0.0
  1

  3
Standard
100
AcDbAlignedDimension
 13
19.25
 23
36.5
 33
0.0
 14
22.75
 24
36.5
 34
0.0
 50
0.0
100
AcDbRotatedDimension
  0
MTEXT
  5
DE
100
AcDbEntity
100
AcDbMText
  8
Dimensions
 62
256
370
-1
  6
ByLayer
 10
45.0
 20
43.0
 30
0.0
 40
3.0
 41
100.0
 71
5
 72
2
  1
M6 bolt head
  7
iso
 50
0.0
 73
1
 44
1.0
  0
DIMENSION
  5
DF
100
AcDbEntity
  8
Dimensions
 62
256
370
-1
  6
ByLayer
100
AcDbDimension
 10
7.0
 20
35.75
 30
0.0
 11
5.125
 21
36.125
 31
0.0
 70
0
 71
5
 72
1
 41
1.0
 42
0.0
  1

  3
Standard
100
AcDbAlignedDimension
 13
22.75
 23
36.5
 33
0.0
 14
22.0
 24
35.75
 34
0.0
 50
90.0
100
AcDbRotatedDimension
  0
LINE
  5
E0
100
AcDbEntity
100
AcDbLine
  8
Cuts
 62
256
370
-1
  6
ByLayer
 10
13.0
 20
12.0
 30
0.0
 11
29.0
 21
12.0
 31
0.0
  0
CIRCLE
  5
E1
100
AcDbEntity
100
AcDbCircle
  8
0
 62
256
370
-1
  6
ByLayer
 10
50.0
 20
10.0
 30
0.0
 40
1.0
  0
ARC
  5
E2
100
AcDbEntity
  8
0
 62
256
370
-1
  6
ByLayer
100
AcDbCircle
 10
50.0
 20
10.0
 30
0.0
 40
3.0
100
AcDbArc
 50
150.0
 51
209.9999999999999147
  0
ARC
  5
E3
100
AcDbEntity
  8
0
 62
256
370
-1
  6
ByLayer
100
AcDbCircle
 10
50.0
 20
10.0
 30
0.0
 40
3.0
100
AcDbArc
 50
270.0
 51
329.9999999999999432
  0
ARC
  5
E4
100
AcDbEntity
  8
0
 62
256
370
-1
  6
ByLayer
100
AcDbCircle
 10
50.0
 20
10.0
 30
0.0
 40
3.0
100
AcDbArc
 50
30.0000000000000497
 51
89.9999999999998721
  0
ARC
  5
E5
100
AcDbEntity
  8
0
 62
256
370
-1
  6
ByLayer
100
AcDbCircle
 10
50.0
 20
10.0
 30
0.0
 40
2.0
100
AcDbArc
 50
209.9999999999998295
 51
270.0000000000002274
  0
ARC
  5
E6
100
AcDbEntity
  8
0
 62
256
370
-1
  6
ByLayer
100
AcDbCircle
 10
50.0
 20
10.0
 30
0.0
 40
2.0
100
AcDbArc
 50
89.999999999999801
 51
150.0000000000001137
  0
ARC
  5
E7
100
AcDbEntity
  8
0
 62
256
370
-1
  6
ByLayer
100
AcDbCircle
 10
50.0
 20
10.0
 30
0.0
 40
2.0
100
AcDbArc
 50
329.9999999999998863
 51
30.0000000000001243
  0
LINE
  5
E8
100
AcDbEntity
100
AcDbLine
  8
0
 62
256
370
-1
  6
ByLayer
 10
48.2679491924311179
 20
10.9999999999999982
 30
0.0
 11
47.401923788646684
 21
11.4999999999999982
 31
0.0
  0
LINE
  5
E9
100
AcDbEntity
100
AcDbLine
  8
0
 62
256
370
-1
  6
ByLayer
 10
50.0000000000000071
 20
13.0
 30
0.0
 11
50.0000000000000071
 21
12.0
 31
0.0
  0
LINE
  5
EA
100
AcDbEntity
100
AcDbLine
  8
0
 62
256
370
-1
  6
ByLayer
 10
51.732050807568875
 20
11.0000000000000036
 30
0.0
 11
52.5980762113533231
 21
11.5000000000000071
 31
0.0
  0
LINE
  5
EB
100
AcDbEntity
100
AcDbLine
  8
0
 62
256
370
-1
  6
ByLayer
 10
51.732050807568875
 20
8.9999999999999964
 30
0.0
 11
52.598076211353316
 21
8.4999999999999964
 31
0.0
  0
LINE
  5
EC
100
AcDbEntity
100
AcDbLine
  8
0
 62
256
370
-1
  6
ByLayer
 10
50.0000000000000071
 20
8.0
 30
0.0
 11
50.0
 21
7.0
 31
0.0
  0
LINE
  5
ED
100
AcDbEntity
100
AcDbLine
  8
0
 62
256
370
-1
  6
ByLayer
 10
48.2679491924311179
 20
9.0000000000000053
 30
0.0
 11
47.401923788646684
 21
8.5000000000000036
 31
0.0
  0
MTEXT
  5
EE
100
AcDbEntity
100
AcDbMText
  8
Cuts
 62
256
370
-1
  6
CONTINUOUS
 10
30.0
 20
12.0
 30
0.0
 40
5.0
 41
100.0
 71
4
 72
2
  1
A
  7
iso
 50
0.0
 73
0
 44
1.0
  0
DIMENSION
  5
EF
100
AcDbEntity
  8
Dimensions
 62
256
370
-1
  6
ByLayer
100
AcDbDimension
 10
47.401923788646684
 20
11.4999999999999982
 30
0.0
 11
0.0
 21
0.0
 31
0.0
 70
2
 71
5
 72
1
 41
1.0
 42
0.0
  1

  3
Standard
100
AcDb2LineAngularDimension
 13
50.0000000000000071
 23
12.0
 33
0.0
 14
50.0000000000000071
 24
13.0
 34
0.0
 15
48.2679491924311179
 25
10.9999999999999982
 35
0.0
 16
45.6496284329564261
 26
15.6528594507269947
 36
0.0
  0
DIMENSION
  5
F0
100
AcDbEntity
  8
Dimensions
 62
256
370
-1
  6
ByLayer
100
AcDbDimension
 10
52.5980762113533231
 20
11.5000000000000071
 30
0.0
 11
0.0
 21
0.0
 31
0.0
 70
2
 71
5
 72
1
 41
1.0
 42
0.0
  1

  3
Standard
100
AcDb2LineAngularDimension
 13
50.0000000000000071
 23
12.0
 33
0.0
 14
50.0000000000000071
 24
13.0
 34
0.0
 15
51.732050807568875
 25
11.0000000000000036
 35
0.0
 16
55.1395153473344664
 26
14.8893053311793366
 36
0.0
  0
MTEXT
  5
F1
100
AcDbEntity
100
AcDbMText
  8
Cuts
 62
256
370
-1
  6
CONTINUOUS
 10
53.0741111111111081
 20
8.2222222222222214
 30
0.0
 40
5.0
 41
100.0
 71
4
 72
2
  1
A
  7
iso
 50
0.0
 73
0
 44
1.0
  0
LINE
  5
F2
100
AcDbEntity
100
AcDbLine
  8
Dimensions
 62
256
370
-1
  6
ByLayer
 10
14.0
 20
17.0
 30
0.0
 11
28.0
 21
17.0
 31
0.0
  0
LINE
  5
F3
100
AcDbEntity
100
AcDbLine
  8
Dimensions
 62
256
370
-1
  6
ByLayer
 10
19.0
 20
17.0
 30
0.0
 11
16.5
 21
16.5837153422271584
 31
0.0
  0
LINE
  5
F4
100
AcDbEntity
100
AcDbLine
  8
Dimensions
 62
256
370
-1
  6
ByLayer
 10
16.5
 20
16.5837153422271584
 30
0.0
 11
16.5
 21
17.4162846577728416
 31
0.0
  0
LINE
  5
F5
100
AcDbEntity
100
AcDbLine
  8
Dimensions
 62
256
370
-1
  6
ByLayer
 10
16.5
 20
17.4162846577728416
 30
0.0
 11
19.0
 21
17.0
 31
0.0
  0
LINE
  5
F6
100
AcDbEntity
100
AcDbLine
  8
Dimensions
 62
256
370
-1
  6
ByLayer
 10
23.0
 20
17.0
 30
0.0
 11
25.5
 21
17.4162846577728416
 31
0.0
  0
LINE
  5
F7
100
AcDbEntity
100
AcDbLine
  8
Dimensions
 62
256
370
-1
  6
ByLayer
 10
25.5
 20
17.4162846577728416
 30
0.0
 11
25.5
 21
16.5837153422271584
 31
0.0
  0
LINE
  5
F8
100
AcDbEntity
100
AcDbLine
  8
Dimensions
 62
256
370
-1
  6
ByLayer
 10
25.5
 20
16.5837153422271584
 30
0.0
 11
23.0
 21
17.0
 31
0.0
  0
LINE
  5
F9
100
AcDbEntity
100
AcDbLine
  8
Dimensions
 62
256
370
-1
  6
ByLayer
 10
19.0
 20
17.625
 30
0.0
 11
19.0
 21
18.25
 31
0.0
  0
LINE
  5
FA
100
AcDbEntity
100
AcDbLine
  8
Dimensions
 62
256
370
-1
  6
ByLayer
 10
23.0
 20
16.375
 30
0.0
 11
23.0
 21
15.75
 31
0.0
  0
MTEXT
  5
FB
100
AcDbEntity
100
AcDbMText
  8
Dimensions
 62
256
370
-1
  6
ByLayer
 10
28.0
 20
18.875
 30
0.0
 40
2.5
 41
30.0
 71
5
 72
0
  1
%%c4
  7
standard
 50
0.0
 73
1
 44
1.0
  0
DIMENSION
  5
FC
100
AcDbEntity
  8
Dimensions
 62
256
370
-1
  6
ByLayer
100
AcDbDimension
 10
20.0
 20
10.0
 30
0.0
 11
0.0
 21
0.0
 31
0.0
 70
2
 71
5
 72
1
 41
1.0
 42
0.0
  1

  3
Standard
100
AcDb2LineAngularDimension
 13
22.5
 23
10.0
 33
0.0
 14
23.408493649053888
 24
10.9084936490538915
 34
0.0
 15
22.0
 25
10.0
 35
0.0
 16
35.0
 26
13.0
 36
0.0
  0
ENDSEC
  0
SECTION
  2
OBJECTS
  0
DICTIONARY
  5
C
100
AcDbDictionary
280
0
281
1
  3
ACAD_GROUP
350
D
  3
ACAD_LAYOUT
350
1A
  3
ACAD_MLINESTYLE
350
17
  3
ACAD_PLOTSETTINGS
350
19
  3
ACAD_PLOTSTYLENAME
350
E
  3
AcDbVariableDictionary
350
FD
  0
DICTIONARY
  5
D
100
AcDbDictionary
280
0
281
1
  0
ACDBDICTIONARYWDFLT
  5
E
100
AcDbDictionary
281
1
  3
Normal
350
F
100
AcDbDictionaryWithDefault
340
F
  0
ACDBPLACEHOLDER
  5
F
  0
DICTIONARY
  5
17
100
AcDbDictionary
280
0
281
1
  3
Standard
350
18
  0
MLINESTYLE
  5
18
100
AcDbMlineStyle
  2
STANDARD
 70
0
  3

 62
256
 51
90.0
 52
90.0
 71
2
 49
0.5
 62
256
  6
BYLAYER
 49
-0.5
 62
256
  6
BYLAYER
  0
DICTIONARY
  5
19
100
AcDbDictionary
280
0
281
1
  0
DICTIONARY
  5
1A
100
AcDbDictionary
281
1
  3
Layout1
350
1E
  3
Layout2
350
26
  3
Model
350
22
  0
LAYOUT
  5
1E
100
AcDbPlotSettings
  1

  2
C:\Program Files\AutoCAD 2002\plotters\DWF ePlot (optimized for plotting).pc3
  4

  6

 40
0.0
 41
0.0
 42
0.0
 43
0.0
 44
0.0
 45
0.0
 46
0.0
 47
0.0
 48
0.0
 49
0.0
140
0.0
141
0.0
142
1.0
143
1.0
 70
688
 72
0
 73
0
 74
5
  7

 75
16
147
1.0
148
0.0
149
0.0
100
AcDbLayout
  1
Layout1
 70
1
 71
1
 10
0.0
 20
0.0
 11
420.0
 21
297.0
 12
0.0
 22
0.0
 32
0.0
 14
100000000000000000000.0
 24
100000000000000000000.0
 34
100000000000000000000.0
 15
-100000000000000000000.0
 25
-100000000000000000000.0
 35
-100000000000000000000.0
146
0.0
 13
0.0
 23
0.0
 33
0.0
 16
1.0
 26
0.0
 36
0.0
 17
0.0
 27
1.0
 37
0.0
 76
0
330
1B
  0
LAYOUT
  5
22
100
AcDbPlotSettings
  1

  2
C:\Program Files\AutoCAD 2002\plotters\DWF ePlot (optimized for plotting).pc3
  4

  6

 40
0.0
 41
0.0
 42
0.0
 43
0.0
 44
0.0
 45
0.0
 46
0.0
 47
0.0
 48
0.0
 49
0.0
140
0.0
141
0.0
142
1.0
143
1.0
 70
1712
 72
0
 73
0
 74
0
  7

 75
0
147
1.0
148
0.0
149
0.0
100
AcDbLayout
  1
Model
 70
1
 71
0
 10
0.0
 20
0.0
 11
12.0
 21
9.0
 12
0.0
 22
0.0
 32
0.0
 14
0.0
 24
0.0
 34
0.0
 15
0.0
 25
0.0
 35
0.0
146
0.0
 13
0.0
 23
0.0
 33
0.0
 16
1.0
 26
0.0
 36
0.0
 17
0.0
 27
1.0
 37
0.0
 76
0
330
1F
  0
LAYOUT
  5
26
100
AcDbPlotSettings
  1

  2
C:\Program Files\AutoCAD 2002\plotters\DWF ePlot (optimized for plotting).pc3
  4

  6

 40
0.0
 41
0.0
 42
0.0
 43
0.0
 44
0.0
 45
0.0
 46
0.0
 47
0.0
 48
0.0
 49
0.0
140
0.0
141
0.0
142
1.0
143
1.0
 70
688
 72
0
 73
0
 74
5
  7

 75
16
147
1.0
148
0.0
149
0.0
100
AcDbLayout
  1
Layout2
 70
1
 71
2
 10
0.0
 20
0.0
 11
12.0
 21
9.0
 12
0.0
 22
0.0
 32
0.0
 14
0.0
 24
0.0
 34
0.0
 15
0.0
 25
0.0
 35
0.0
146
0.0
 13
0.0
 23
0.0
 33
0.0
 16
1.0
 26
0.0
 36
0.0
 17
0.0
 27
1.0
 37
0.0
 76
0
330
23
  0
DICTIONARY
  5
FD
100
AcDbDictionary
281
1
  3
DIMASSOC
350
FF
  3
HIDETEXT
350
FE
  0
DICTIONARYVAR
  5
FE
100
DictionaryVariables
280
0
  1
2
  0
DICTIONARYVAR
  5
FF
100
DictionaryVariables
280
0
  1
1
  0
ENDSEC
  0
EOF
