999
dxflib 2.2.0.0
  0
SECTION
  2
HEADER
  9
$ACADVER
  1
AC1015
  9
$HANDSEED
  5
FFFF
  9
$SPLINESEGS
 70
8
  9
$DIMEXE
 40
1.25
  9
$PSVPSCALE
 40
2.3307099999999998
  9
$DIMLUNIT
 70
2
  9
$GRIDMODE
 70
1
  9
$INSUNITS
 70
4
  9
$DIMADEC
 70
2
  9
$DIMASZ
 40
2.5
  9
$DIMGAP
 40
0.625
  9
$DIMTXT
 40
2.5
  9
$GRIDUNIT
 10
0.0
 20
0.0
  9
$DIMEXO
 40
0.625
  9
$LUPREC
 70
4
  9
$PINSBASE
 10
-41.5985343749999785
 20
-26.5394456249999919
 30
0.0
  9
$DIMAUNIT
 70
0
  9
$AUPREC
 70
2
  9
$PLIMMIN
 10
0.0
 20
0.0
  9
$LUNITS
 70
2
  9
$PLIMMAX
 10
297.0
 20
210.0
  9
$DIMSTYLE
  2
Standard
  9
$AUNITS
 70
0
  0
ENDSEC
  0
SECTION
  2
TABLES
  0
TABLE
  2
VPORT
  5
8
100
AcDbSymbolTable
 70
1
  0
VPORT
  5
30
100
AcDbSymbolTableRecord
100
AcDbViewportTableRecord
  2
*Active
 70
0
 10
0.0
 20
0.0
 11
1.0
 21
1.0
 12
286.3055555555554861
 22
148.5
 13
0.0
 23
0.0
 14
10.0
 24
10.0
 15
10.0
 25
10.0
 16
0.0
 26
0.0
 36
1.0
 17
0.0
 27
0.0
 37
0.0
 40
297.0
 41
1.92798353909465
 42
50.0
 43
0.0
 44
0.0
 50
0.0
 51
0.0
 71
0
 72
100
 73
1
 74
3
 75
1
 76
1
 77
0
 78
0
281
0
 65
1
110
0.0
120
0.0
130
0.0
111
1.0
121
0.0
131
0.0
112
0.0
122
1.0
132
0.0
 79
0
146
0.0
  0
ENDTAB
  0
TABLE
  2
LTYPE
  5
5
100
AcDbSymbolTable
 70
21
  0
LTYPE
  5
14
100
AcDbSymbolTableRecord
100
AcDbLinetypeTableRecord
  2
ByBlock
 70
0
  3

 72
65
 73
0
 40
0.0
  0
LTYPE
  5
15
100
AcDbSymbolTableRecord
100
AcDbLinetypeTableRecord
  2
ByLayer
 70
0
  3

 72
65
 73
0
 40
0.0
  0
LTYPE
  5
16
100
AcDbSymbolTableRecord
100
AcDbLinetypeTableRecord
  2
CONTINUOUS
 70
0
  3
Solid line
 72
65
 73
0
 40
0.0
  0
LTYPE
  5
31
100
AcDbSymbolTableRecord
100
AcDbLinetypeTableRecord
  2
DOT
 70
0
  3
Dot . . . . . . . . . . . . . . . . . . . . . .
 72
65
 73
2
 40
6.3499999999999996
 49
0.0
 74
0
 49
-6.3499999999999996
 74
0
  0
LTYPE
  5
32
100
AcDbSymbolTableRecord
100
AcDbLinetypeTableRecord
  2
DOT2
 70
0
  3
Dot (.5x) .....................................
 72
65
 73
2
 40
3.1749999999999998
 49
0.0
 74
0
 49
-3.1749999999999998
 74
0
  0
LTYPE
  5
33
100
AcDbSymbolTableRecord
100
AcDbLinetypeTableRecord
  2
DOTX2
 70
0
  3
Dot (2x) .  .  .  .  .  .  .  .  .  .  .  .  .
 72
65
 73
2
 40
12.6999999999999993
 49
0.0
 74
0
 49
-12.6999999999999993
 74
0
  0
LTYPE
  5
34
100
AcDbSymbolTableRecord
100
AcDbLinetypeTableRecord
  2
DASHED
 70
0
  3
Dashed __ __ __ __ __ __ __ __ __ __ __ __ __ _
 72
65
 73
2
 40
19.0500000000000007
 49
12.6999999999999993
 74
0
 49
-6.3499999999999996
 74
0
  0
LTYPE
  5
35
100
AcDbSymbolTableRecord
100
AcDbLinetypeTableRecord
  2
DASHED2
 70
0
  3
Dashed (.5x) _ _ _ _ _ _ _ _ _ _ _ _ _ _ _ _ _
 72
65
 73
2
 40
9.5250000000000004
 49
6.3499999999999996
 74
0
 49
-3.1749999999999998
 74
0
  0
LTYPE
  5
36
100
AcDbSymbolTableRecord
100
AcDbLinetypeTableRecord
  2
DASHEDX2
 70
0
  3
Dashed (2x) ____  ____  ____  ____  ____  ___
 72
65
 73
2
 40
38.1000000000000014
 49
25.3999999999999986
 74
0
 49
-12.6999999999999993
 74
0
  0
LTYPE
  5
37
100
AcDbSymbolTableRecord
100
AcDbLinetypeTableRecord
  2
DASHDOT
 70
0
  3
Dash dot __ . __ . __ . __ . __ . __ . __ . __
 72
65
 73
4
 40
25.3999999999999986
 49
12.6999999999999993
 74
0
 49
-6.3499999999999996
 74
0
 49
0.0
 74
0
 49
-6.3499999999999996
 74
0
  0
LTYPE
  5
38
100
AcDbSymbolTableRecord
100
AcDbLinetypeTableRecord
  2
DASHDOT2
 70
0
  3
Dash dot (.5x) _._._._._._._._._._._._._._._.
 72
65
 73
4
 40
12.6999999999999993
 49
6.3499999999999996
 74
0
 49
-3.1749999999999998
 74
0
 49
0.0
 74
0
 49
-3.1749999999999998
 74
0
  0
LTYPE
  5
39
100
AcDbSymbolTableRecord
100
AcDbLinetypeTableRecord
  2
DASHDOTX2
 70
0
  3
Dash dot (2x) ____  .  ____  .  ____  .  ___
 72
65
 73
4
 40
50.7999999999999972
 49
25.3999999999999986
 74
0
 49
-12.6999999999999993
 74
0
 49
0.0
 74
0
 49
-12.6999999999999993
 74
0
  0
LTYPE
  5
3A
100
AcDbSymbolTableRecord
100
AcDbLinetypeTableRecord
  2
DIVIDE
 70
0
  3
Divide ____ . . ____ . . ____ . . ____ . . ____
 72
65
 73
6
 40
31.75
 49
12.6999999999999993
 74
0
 49
-6.3499999999999996
 74
0
 49
0.0
 74
0
 49
-6.3499999999999996
 74
0
 49
0.0
 74
0
 49
-6.3499999999999996
 74
0
  0
LTYPE
  5
3B
100
AcDbSymbolTableRecord
100
AcDbLinetypeTableRecord
  2
DIVIDE2
 70
0
  3
Divide (.5x) __..__..__..__..__..__..__..__.._
 72
65
 73
6
 40
15.875
 49
6.3499999999999996
 74
0
 49
-3.1749999999999998
 74
0
 49
0.0
 74
0
 49
-3.1749999999999998
 74
0
 49
0.0
 74
0
 49
-3.1749999999999998
 74
0
  0
LTYPE
  5
3C
100
AcDbSymbolTableRecord
100
AcDbLinetypeTableRecord
  2
DIVIDEX2
 70
0
  3
Divide (2x) ________  .  .  ________  .  .  _
 72
65
 73
6
 40
63.5
 49
25.3999999999999986
 74
0
 49
-12.6999999999999993
 74
0
 49
0.0
 74
0
 49
-12.6999999999999993
 74
0
 49
0.0
 74
0
 49
-12.6999999999999993
 74
0
  0
LTYPE
  5
3D
100
AcDbSymbolTableRecord
100
AcDbLinetypeTableRecord
  2
CENTER
 70
0
  3
Center ____ _ ____ _ ____ _ ____ _ ____ _ ____
 72
65
 73
4
 40
50.7999999999999972
 49
31.75
 74
0
 49
-6.3499999999999996
 74
0
 49
6.3499999999999996
 74
0
 49
-6.3499999999999996
 74
0
  0
LTYPE
  5
3E
100
AcDbSymbolTableRecord
100
AcDbLinetypeTableRecord
  2
CENTER2
 70
0
  3
Center (.5x) ___ _ ___ _ ___ _ ___ _ ___ _ ___
 72
65
 73
4
 40
28.5749999999999993
 49
19.0500000000000007
 74
0
 49
-3.1749999999999998
 74
0
 49
3.1749999999999998
 74
0
 49
-3.1749999999999998
 74
0
  0
LTYPE
  5
3F
100
AcDbSymbolTableRecord
100
AcDbLinetypeTableRecord
  2
CENTERX2
 70
0
  3
Center (2x) ________  __  ________  __  _____
 72
65
 73
4
 40
101.5999999999999943
 49
63.5
 74
0
 49
-12.6999999999999993
 74
0
 49
12.6999999999999993
 74
0
 49
-12.6999999999999993
 74
0
  0
LTYPE
  5
40
100
AcDbSymbolTableRecord
100
AcDbLinetypeTableRecord
  2
BORDER
 70
0
  3
Border __ __ . __ __ . __ __ . __ __ . __ __ .
 72
65
 73
6
 40
44.4500000000000028
 49
12.6999999999999993
 74
0
 49
-6.3499999999999996
 74
0
 49
12.6999999999999993
 74
0
 49
-6.3499999999999996
 74
0
 49
0.0
 74
0
 49
-6.3499999999999996
 74
0
  0
LTYPE
  5
41
100
AcDbSymbolTableRecord
100
AcDbLinetypeTableRecord
  2
BORDER2
 70
0
  3
Border (.5x) __.__.__.__.__.__.__.__.__.__.__.
 72
65
 73
6
 40
22.2250000000000014
 49
6.3499999999999996
 74
0
 49
-3.1749999999999998
 74
0
 49
6.3499999999999996
 74
0
 49
-3.1749999999999998
 74
0
 49
0.0
 74
0
 49
-3.1749999999999998
 74
0
  0
LTYPE
  5
42
100
AcDbSymbolTableRecord
100
AcDbLinetypeTableRecord
  2
BORDERX2
 70
0
  3
Border (2x) ____  ____  .  ____  ____  .  ___
 72
65
 73
6
 40
88.9000000000000057
 49
25.3999999999999986
 74
0
 49
-12.6999999999999993
 74
0
 49
25.3999999999999986
 74
0
 49
-12.6999999999999993
 74
0
 49
0.0
 74
0
 49
-12.6999999999999993
 74
0
  0
ENDTAB
  0
TABLE
  2
LAYER
  5
2
100
AcDbSymbolTable
 70
4
  0
LAYER
  5
10
100
AcDbSymbolTableRecord
100
AcDbLayerTableRecord
  2
0
 70
0
 62
7
  6
CONTINUOUS
290
1
370
25
390
F
  0
LAYER
  5
43
100
AcDbSymbolTableRecord
100
AcDbLayerTableRecord
  2
x-ray
 70
0
 62
7
  6
DASHED
290
1
370
9
390
F
  0
LAYER
  5
44
100
AcDbSymbolTableRecord
100
AcDbLayerTableRecord
  2
Axis
 70
0
 62
7
  6
DASHDOTX2
290
1
370
9
390
F
  0
LAYER
  5
45
100
AcDbSymbolTableRecord
100
AcDbLayerTableRecord
  2
Dimensions
 70
0
 62
7
  6
CONTINUOUS
290
1
370
9
390
F
  0
ENDTAB
  0
TABLE
  2
STYLE
  5
3
100
AcDbSymbolTable
 70
1
  0
STYLE
  5
11
100
AcDbSymbolTableRecord
100
AcDbTextStyleTableRecord
  2
Standard
 70
0
 40
0.0
 41
0.75
 50
0.0
 71
0
 42
2.5
  3
txt
  4

  0
ENDTAB
  0
TABLE
  2
VIEW
  5
6
100
AcDbSymbolTable
 70
0
  0
ENDTAB
  0
TABLE
  2
UCS
  5
7
100
AcDbSymbolTable
 70
0
  0
ENDTAB
  0
TABLE
  2
APPID
  5
9
100
AcDbSymbolTable
 70
1
  0
APPID
  5
12
100
AcDbSymbolTableRecord
100
AcDbRegAppTableRecord
  2
ACAD
 70
0
  0
ENDTAB
  0
TABLE
  2
DIMSTYLE
  5
A
100
AcDbSymbolTable
 70
1
100
AcDbDimStyleTable
 71
0
  0
DIMSTYLE
105
27
100
AcDbSymbolTableRecord
100
AcDbDimStyleTableRecord
  2
Standard
 41
2.5
 42
0.625
 43
3.75
 44
1.25
 70
0
 73
0
 74
0
 77
1
 78
8
140
2.5
141
2.5
143
0.03937007874016
147
0.625
171
3
172
1
271
2
272
2
274
3
278
44
283
0
284
8
340
11
  0
ENDTAB
  0
TABLE
  2
BLOCK_RECORD
  5
1
100
AcDbSymbolTable
 70
1
  0
BLOCK_RECORD
  5
1F
100
AcDbSymbolTableRecord
100
AcDbBlockTableRecord
  2
*Model_Space
340
22
  0
BLOCK_RECORD
  5
1B
100
AcDbSymbolTableRecord
100
AcDbBlockTableRecord
  2
*Paper_Space
340
1E
  0
BLOCK_RECORD
  5
23
100
AcDbSymbolTableRecord
100
AcDbBlockTableRecord
  2
*Paper_Space0
340
26
  0
ENDTAB
  0
ENDSEC
  0
SECTION
  2
BLOCKS
  0
BLOCK
  5
20
100
AcDbEntity
  8
0
100
AcDbBlockBegin
  2
*Model_Space
 70
0
 10
0.0
 20
0.0
 30
0.0
  3
*Model_Space
  1

  0
ENDBLK
  5
21
100
AcDbEntity
  8
0
100
AcDbBlockEnd
  0
BLOCK
  5
1C
100
AcDbEntity
 67
1
  8
0
100
AcDbBlockBegin
  2
*Paper_Space
 70
0
 10
0.0
 20
0.0
 30
0.0
  3
*Paper_Space
  1

  0
ENDBLK
  5
1D
100
AcDbEntity
 67
1
  8
0
100
AcDbBlockEnd
  0
BLOCK
  5
24
100
AcDbEntity
  8
0
100
AcDbBlockBegin
  2
*Paper_Space0
 70
0
 10
0.0
 20
0.0
 30
0.0
  3
*Paper_Space0
  1

  0
ENDBLK
  5
25
100
AcDbEntity
  8
0
100
AcDbBlockEnd
  0
ENDSEC
  0
SECTION
  2
ENTITIES
  0
LINE
  5
46
100
AcDbEntity
100
AcDbLine
  8
0
 62
256
370
-1
  6
ByLayer
 10
100.0
 20
30.0
 30
0.0
 11
119.0
 21
30.0
 31
0.0
  0
LINE
  5
47
100
AcDbEntity
100
AcDbLine
  8
0
 62
256
370
-1
  6
ByLayer
 10
119.0
 20
30.0
 30
0.0
 11
119.0
 21
40.0
 31
0.0
  0
LINE
  5
48
100
AcDbEntity
100
AcDbLine
  8
0
 62
256
370
-1
  6
ByLayer
 10
119.0
 20
40.0
 30
0.0
 11
100.0
 21
40.0
 31
0.0
  0
LINE
  5
49
100
AcDbEntity
100
AcDbLine
  8
0
 62
256
370
-1
  6
ByLayer
 10
100.0
 20
40.0
 30
0.0
 11
100.0
 21
30.0
 31
0.0
  0
LINE
  5
4A
100
AcDbEntity
100
AcDbLine
  8
Axis
 62
256
370
-1
  6
ByLayer
 10
105.0
 20
42.0
 30
0.0
 11
105.0
 21
28.0
 31
0.0
  0
DIMENSION
  5
4B
100
AcDbEntity
  8
Dimensions
 62
256
370
-1
  6
ByLayer
100
AcDbDimension
 10
126.0
 20
36.0
 30
0.0
 11
124.125
 21
38.0
 31
0.0
 70
0
 71
5
 72
0
 41
1.0
 42
0.0
  1

  3
Standard
100
AcDbAlignedDimension
 13
119.0
 23
40.0
 33
0.0
 14
119.0
 24
36.0
 34
0.0
 50
90.0
100
AcDbRotatedDimension
  0
DIMENSION
  5
4C
100
AcDbEntity
  8
Dimensions
 62
256
370
-1
  6
ByLayer
100
AcDbDimension
 10
126.0
 20
34.0
 30
0.0
 11
124.125
 21
32.0
 31
0.0
 70
0
 71
5
 72
0
 41
1.0
 42
0.0
  1

  3
Standard
100
AcDbAlignedDimension
 13
119.0
 23
30.0
 33
0.0
 14
119.0
 24
34.0
 34
0.0
 50
90.0
100
AcDbRotatedDimension
  0
DIMENSION
  5
4D
100
AcDbEntity
  8
Dimensions
 62
256
370
-1
  6
ByLayer
100
AcDbDimension
 10
138.0
 20
29.9999999999999964
 30
0.0
 11
136.125
 21
35.0
 31
0.0
 70
0
 71
5
 72
0
 41
1.0
 42
0.0
  1

  3
Standard
100
AcDbAlignedDimension
 13
119.0
 23
40.0
 33
0.0
 14
119.0
 24
30.0
 34
0.0
 50
90.0
100
AcDbRotatedDimension
  0
DIMENSION
  5
4E
100
AcDbEntity
  8
Dimensions
 62
256
370
-1
  6
ByLayer
100
AcDbDimension
 10
94.0
 20
35.0
 30
0.0
 11
92.125
 21
37.5
 31
0.0
 70
0
 71
5
 72
0
 41
1.0
 42
0.0
  1

  3
Standard
100
AcDbAlignedDimension
 13
100.0
 23
40.0
 33
0.0
 14
114.0
 24
35.0
 34
0.0
 50
90.0
100
AcDbRotatedDimension
  0
DIMENSION
  5
4F
100
AcDbEntity
  8
Dimensions
 62
256
370
-1
  6
ByLayer
100
AcDbDimension
 10
94.0
 20
30.0
 30
0.0
 11
92.125
 21
32.5
 31
0.0
 70
0
 71
5
 72
0
 41
1.0
 42
0.0
  1

  3
Standard
100
AcDbAlignedDimension
 13
114.0
 23
35.0
 33
0.0
 14
100.0
 24
30.0
 34
0.0
 50
90.0
100
AcDbRotatedDimension
  0
LINE
  5
50
100
AcDbEntity
100
AcDbLine
  8
0
 62
256
370
-1
  6
ByLayer
 10
100.0
 20
70.0
 30
0.0
 11
119.0
 21
70.0
 31
0.0
  0
LINE
  5
51
100
AcDbEntity
100
AcDbLine
  8
0
 62
256
370
-1
  6
ByLayer
 10
119.0
 20
70.0
 30
0.0
 11
119.0
 21
80.0
 31
0.0
  0
LINE
  5
52
100
AcDbEntity
100
AcDbLine
  8
0
 62
256
370
-1
  6
ByLayer
 10
119.0
 20
80.0
 30
0.0
 11
100.0
 21
80.0
 31
0.0
  0
LINE
  5
53
100
AcDbEntity
100
AcDbLine
  8
0
 62
256
370
-1
  6
ByLayer
 10
100.0
 20
80.0
 30
0.0
 11
100.0
 21
70.0
 31
0.0
  0
LINE
  5
54
100
AcDbEntity
100
AcDbLine
  8
Axis
 62
256
370
-1
  6
ByLayer
 10
109.5
 20
82.0
 30
0.0
 11
109.5
 21
68.0
 31
0.0
  0
LINE
  5
55
100
AcDbEntity
100
AcDbLine
  8
Axis
 62
256
370
-1
  6
ByLayer
 10
121.0
 20
75.0
 30
0.0
 11
97.0
 21
75.0
 31
0.0
  0
DIMENSION
  5
56
100
AcDbEntity
  8
Dimensions
 62
256
370
-1
  6
ByLayer
100
AcDbDimension
 10
109.5
 20
86.0
 30
0.0
 11
104.75
 21
87.875
 31
0.0
 70
0
 71
5
 72
0
 41
1.0
 42
0.0
  1

  3
Standard
100
AcDbAlignedDimension
 13
100.0
 23
80.0
 33
0.0
 14
109.5
 24
80.0
 34
0.0
 50
0.0
100
AcDbRotatedDimension
  0
DIMENSION
  5
57
100
AcDbEntity
  8
Dimensions
 62
256
370
-1
  6
ByLayer
100
AcDbDimension
 10
119.0
 20
86.0
 30
0.0
 11
114.25
 21
87.875
 31
0.0
 70
0
 71
5
 72
0
 41
1.0
 42
0.0
  1

  3
Standard
100
AcDbAlignedDimension
 13
109.5
 23
80.0
 33
0.0
 14
119.0
 24
80.0
 34
0.0
 50
0.0
100
AcDbRotatedDimension
  0
LINE
  5
58
100
AcDbEntity
100
AcDbLine
  8
0
 62
256
370
-1
  6
ByLayer
 10
50.0
 20
50.0
 30
0.0
 11
69.0
 21
50.0
 31
0.0
  0
LINE
  5
59
100
AcDbEntity
100
AcDbLine
  8
0
 62
256
370
-1
  6
ByLayer
 10
69.0
 20
50.0
 30
0.0
 11
69.0
 21
69.0
 31
0.0
  0
LINE
  5
5A
100
AcDbEntity
100
AcDbLine
  8
0
 62
256
370
-1
  6
ByLayer
 10
50.0
 20
69.0
 30
0.0
 11
50.0
 21
50.0
 31
0.0
  0
CIRCLE
  5
5B
100
AcDbEntity
100
AcDbCircle
  8
0
 62
256
370
-1
  6
ByLayer
 10
55.0
 20
59.5
 30
0.0
 40
3.0
  0
LINE
  5
5C
100
AcDbEntity
100
AcDbLine
  8
Axis
 62
256
370
-1
  6
ByLayer
 10
64.0
 20
48.0
 30
0.0
 11
64.0
 21
71.0
 31
0.0
  0
DIMENSION
  5
5D
100
AcDbEntity
  8
Dimensions
 62
256
370
-1
  6
ByLayer
100
AcDbDimension
 10
55.0
 20
44.0
 30
0.0
 11
52.5
 21
45.875
 31
0.0
 70
0
 71
5
 72
1
 41
1.0
 42
0.0
  1

  3
Standard
100
AcDbAlignedDimension
 13
50.0
 23
50.0
 33
0.0
 14
55.0
 24
59.5
 34
0.0
 50
0.0
100
AcDbRotatedDimension
  0
DIMENSION
  5
5E
100
AcDbEntity
  8
Dimensions
 62
256
370
-1
  6
ByLayer
100
AcDbDimension
 10
55.0
 20
44.0
 30
0.0
 11
59.5
 21
45.875
 31
0.0
 70
0
 71
5
 72
1
 41
1.0
 42
0.0
  1

  3
Standard
100
AcDbAlignedDimension
 13
64.0
 23
48.0
 33
0.0
 14
55.0
 24
59.5
 34
0.0
 50
0.0
100
AcDbRotatedDimension
  0
DIMENSION
  5
5F
100
AcDbEntity
  8
Dimensions
 62
256
370
-1
  6
ByLayer
100
AcDbDimension
 10
64.0
 20
44.0
 30
0.0
 11
66.5
 21
45.875
 31
0.0
 70
0
 71
5
 72
1
 41
1.0
 42
0.0
  1

  3
Standard
100
AcDbAlignedDimension
 13
69.0
 23
50.0
 33
0.0
 14
64.0
 24
48.0
 34
0.0
 50
0.0
100
AcDbRotatedDimension
  0
DIMENSION
  5
60
100
AcDbEntity
  8
Dimensions
 62
256
370
-1
  6
ByLayer
100
AcDbDimension
 10
44.0
 20
59.5
 30
0.0
 11
42.125
 21
64.25
 31
0.0
 70
0
 71
5
 72
0
 41
1.0
 42
0.0
  1

  3
Standard
100
AcDbAlignedDimension
 13
50.0
 23
69.0
 33
0.0
 14
55.0
 24
59.5
 34
0.0
 50
90.0
100
AcDbRotatedDimension
  0
DIMENSION
  5
61
100
AcDbEntity
  8
Dimensions
 62
256
370
-1
  6
ByLayer
100
AcDbDimension
 10
44.0
 20
50.0
 30
0.0
 11
42.125
 21
54.75
 31
0.0
 70
0
 71
5
 72
0
 41
1.0
 42
0.0
  1

  3
Standard
100
AcDbAlignedDimension
 13
55.0
 23
59.5
 33
0.0
 14
50.0
 24
50.0
 34
0.0
 50
90.0
100
AcDbRotatedDimension
  0
DIMENSION
  5
62
100
AcDbEntity
  8
Dimensions
 62
256
370
-1
  6
ByLayer
100
AcDbDimension
 10
37.0
 20
50.0
 30
0.0
 11
35.125
 21
59.5
 31
0.0
 70
0
 71
5
 72
0
 41
1.0
 42
0.0
  1

  3
Standard
100
AcDbAlignedDimension
 13
50.0
 23
69.0
 33
0.0
 14
50.0
 24
50.0
 34
0.0
 50
90.0
100
AcDbRotatedDimension
  0
DIMENSION
  5
63
100
AcDbEntity
  8
Dimensions
 62
256
370
-1
  6
ByLayer
100
AcDbDimension
 10
69.0
 20
38.0
 30
0.0
 11
59.5
 21
39.875
 31
0.0
 70
0
 71
5
 72
0
 41
1.0
 42
0.0
  1

  3
Standard
100
AcDbAlignedDimension
 13
50.0
 23
50.0
 33
0.0
 14
69.0
 24
50.0
 34
0.0
 50
0.0
100
AcDbRotatedDimension
  0
DIMENSION
  5
64
100
AcDbEntity
  8
Dimensions
 62
256
370
-1
  6
ByLayer
100
AcDbDimension
 10
94.0
 20
75.0
 30
0.0
 11
92.125
 21
77.5
 31
0.0
 70
0
 71
5
 72
0
 41
1.0
 42
0.0
  1

  3
Standard
100
AcDbAlignedDimension
 13
100.0
 23
80.0
 33
0.0
 14
100.0
 24
75.0
 34
0.0
 50
90.0
100
AcDbRotatedDimension
  0
DIMENSION
  5
65
100
AcDbEntity
  8
Dimensions
 62
256
370
-1
  6
ByLayer
100
AcDbDimension
 10
94.0
 20
75.0
 30
0.0
 11
92.125
 21
72.5
 31
0.0
 70
0
 71
5
 72
0
 41
1.0
 42
0.0
  1

  3
Standard
100
AcDbAlignedDimension
 13
100.0
 23
70.0
 33
0.0
 14
100.0
 24
75.0
 34
0.0
 50
90.0
100
AcDbRotatedDimension
  0
LINE
  5
66
100
AcDbEntity
100
AcDbLine
  8
0
 62
256
370
-1
  6
ByLayer
 10
56.0
 20
68.4000000000000199
 30
0.0
 11
56.0
 21
69.0000000000000142
 31
0.0
  0
LINE
  5
67
100
AcDbEntity
100
AcDbLine
  8
0
 62
256
370
-1
  6
ByLayer
 10
54.0
 20
68.4000000000000199
 30
0.0
 11
54.0
 21
69.0000000000000142
 31
0.0
  0
ARC
  5
68
100
AcDbEntity
  8
0
 62
256
370
-1
  6
ByLayer
100
AcDbCircle
 10
55.0
 20
68.4000000000000057
 30
0.0
 40
1.0
100
AcDbArc
 50
180.0
 51
0.0
  0
LINE
  5
69
100
AcDbEntity
100
AcDbLine
  8
0
 62
256
370
-1
  6
ByLayer
 10
54.0
 20
69.0000000000000142
 30
0.0
 11
50.0
 21
69.0
 31
0.0
  0
LINE
  5
6A
100
AcDbEntity
100
AcDbLine
  8
0
 62
256
370
-1
  6
ByLayer
 10
69.0
 20
69.0
 30
0.0
 11
56.0
 21
69.0000000000000142
 31
0.0
  0
LINE
  5
6B
100
AcDbEntity
100
AcDbLine
  8
x-ray
 62
256
370
-1
  6
ByLayer
 10
57.0
 20
69.0
 30
0.0
 11
57.0
 21
64.0
 31
0.0
  0
LINE
  5
6C
100
AcDbEntity
100
AcDbLine
  8
x-ray
 62
256
370
-1
  6
ByLayer
 10
59.0
 20
69.0
 30
0.0
 11
59.0
 21
64.0
 31
0.0
  0
LINE
  5
6D
100
AcDbEntity
100
AcDbLine
  8
x-ray
 62
256
370
-1
  6
ByLayer
 10
57.0
 20
64.0
 30
0.0
 11
59.0
 21
64.0
 31
0.0
  0
LINE
  5
6E
100
AcDbEntity
100
AcDbLine
  8
Axis
 62
256
370
-1
  6
ByLayer
 10
58.0
 20
70.0
 30
0.0
 11
58.0
 21
63.0
 31
0.0
  0
DIMENSION
  5
6F
100
AcDbEntity
  8
Dimensions
 62
256
370
-1
  6
ByLayer
100
AcDbDimension
 10
73.0
 20
58.0
 30
0.0
 11
71.125
 21
54.0
 31
0.0
 70
0
 71
5
 72
1
 41
1.0
 42
0.0
  1

  3
Standard
100
AcDbAlignedDimension
 13
69.0
 23
50.0
 33
0.0
 14
69.0
 24
58.0
 34
0.0
 50
90.0
100
AcDbRotatedDimension
  0
DIMENSION
  5
70
100
AcDbEntity
  8
Dimensions
 62
256
370
-1
  6
ByLayer
100
AcDbDimension
 10
73.0
 20
61.0
 30
0.0
 11
71.125
 21
59.5
 31
0.0
 70
0
 71
5
 72
1
 41
1.0
 42
0.0
  1

  3
Standard
100
AcDbAlignedDimension
 13
69.0
 23
58.0
 33
0.0
 14
69.0
 24
61.0
 34
0.0
 50
90.0
100
AcDbRotatedDimension
  0
DIMENSION
  5
71
100
AcDbEntity
  8
Dimensions
 62
256
370
-1
  6
ByLayer
100
AcDbDimension
 10
73.0
 20
69.0
 30
0.0
 11
71.125
 21
65.0
 31
0.0
 70
0
 71
5
 72
1
 41
1.0
 42
0.0
  1

  3
Standard
100
AcDbAlignedDimension
 13
69.0
 23
61.0
 33
0.0
 14
69.0
 24
69.0
 34
0.0
 50
90.0
100
AcDbRotatedDimension
  0
LEADER
  5
72
  8
Dimensions
 62
256
370
-1
  6
ByLayer
100
AcDbEntity
100
AcDbLeader
  3
Standard
 71
1
 72
0
 73
3
 74
0
 75
0
 40
1.0
 41
10.0
 76
3
 10
53.0
 20
57.0
 10
43.0
 20
43.0
 10
30.0
 20
43.0
  0
LEADER
  5
73
  8
Dimensions
 62
256
370
-1
  6
ByLayer
100
AcDbEntity
100
AcDbLeader
  3
Standard
 71
1
 72
0
 73
3
 74
0
 75
0
 40
1.0
 41
10.0
 76
3
 10
54.267984007722923
 20
67.7187125518178021
 10
48.0
 20
61.0
 10
29.0
 20
61.0
  0
DIMENSION
  5
74
100
AcDbEntity
  8
Dimensions
 62
256
370
-1
  6
ByLayer
100
AcDbDimension
 10
48.0
 20
68.4000000000000057
 30
0.0
 11
46.125
 21
68.7000000000000028
 31
0.0
 70
0
 71
5
 72
1
 41
1.0
 42
0.0
  1

  3
Standard
100
AcDbAlignedDimension
 13
50.0
 23
69.0
 33
0.0
 14
55.0
 24
68.4000000000000057
 34
0.0
 50
90.0
100
AcDbRotatedDimension
  0
MTEXT
  5
75
100
AcDbEntity
100
AcDbMText
  8
Dimensions
 62
256
370
-1
  6
ByLayer
 10
33.0
 20
45.0
 30
0.0
 40
3.0
 41
100.0
 71
5
 72
2
  1
M6
  7
iso
 50
0.0
 73
1
 44
1.0
  0
MTEXT
  5
76
100
AcDbEntity
100
AcDbMText
  8
Dimensions
 62
256
370
-1
  6
ByLayer
 10
31.0
 20
63.0
 30
0.0
 40
3.0
 41
100.0
 71
5
 72
2
  1
\U+23002
  7
iso
 50
0.0
 73
1
 44
1.0
  0
CIRCLE
  5
77
100
AcDbEntity
100
AcDbCircle
  8
0
 62
256
370
-1
  6
ByLayer
 10
109.5
 20
75.0
 30
0.0
 40
1.5
  0
LINE
  5
78
100
AcDbEntity
100
AcDbLine
  8
x-ray
 62
256
370
-1
  6
ByLayer
 10
117.4000000000000057
 20
80.0
 30
0.0
 11
117.4000000000000057
 21
70.0
 31
0.0
  0
LINE
  5
79
100
AcDbEntity
100
AcDbLine
  8
Axis
 62
256
370
-1
  6
ByLayer
 10
118.4000000000000057
 20
82.0
 30
0.0
 11
118.4000000000000057
 21
68.0
 31
0.0
  0
LINE
  5
7A
100
AcDbEntity
100
AcDbLine
  8
x-ray
 62
256
370
-1
  6
ByLayer
 10
119.0
 20
76.0
 30
0.0
 11
114.0
 21
76.0
 31
0.0
  0
LINE
  5
7B
100
AcDbEntity
100
AcDbLine
  8
x-ray
 62
256
370
-1
  6
ByLayer
 10
119.0
 20
74.0
 30
0.0
 11
114.0
 21
74.0
 31
0.0
  0
LINE
  5
7C
100
AcDbEntity
100
AcDbLine
  8
x-ray
 62
256
370
-1
  6
ByLayer
 10
114.0
 20
74.0
 30
0.0
 11
114.0
 21
76.0
 31
0.0
  0
DIMENSION
  5
7D
100
AcDbEntity
  8
Dimensions
 62
256
370
-1
  6
ByLayer
100
AcDbDimension
 10
119.0
 20
65.0
 30
0.0
 11
116.5
 21
66.875
 31
0.0
 70
0
 71
5
 72
1
 41
1.0
 42
0.0
  1

  3
Standard
100
AcDbAlignedDimension
 13
114.0
 23
74.0
 33
0.0
 14
119.0
 24
74.0
 34
0.0
 50
0.0
100
AcDbRotatedDimension
  0
LINE
  5
7E
100
AcDbEntity
100
AcDbLine
  8
0
 62
256
370
-1
  6
ByLayer
 10
104.0
 20
40.0
 30
0.0
 11
104.0
 21
30.0
 31
0.0
  0
LINE
  5
7F
100
AcDbEntity
100
AcDbLine
  8
0
 62
256
370
-1
  6
ByLayer
 10
106.0
 20
40.0
 30
0.0
 11
106.0
 21
30.0
 31
0.0
  0
CIRCLE
  5
80
100
AcDbEntity
100
AcDbCircle
  8
0
 62
256
370
-1
  6
ByLayer
 10
108.0
 20
35.0
 30
0.0
 40
1.0
  0
LINE
  5
81
100
AcDbEntity
100
AcDbLine
  8
x-ray
 62
256
370
-1
  6
ByLayer
 10
119.0
 20
36.0
 30
0.0
 11
117.0134075396467637
 21
36.0
 31
0.0
  0
LINE
  5
82
100
AcDbEntity
100
AcDbLine
  8
x-ray
 62
256
370
-1
  6
ByLayer
 10
117.0134075396467637
 20
34.0
 30
0.0
 11
119.0
 21
34.0
 31
0.0
  0
DIMENSION
  5
83
100
AcDbEntity
  8
Dimensions
 62
256
370
-1
  6
ByLayer
100
AcDbDimension
 10
108.0
 20
25.0
 30
0.0
 11
107.0
 21
26.875
 31
0.0
 70
0
 71
5
 72
1
 41
1.0
 42
0.0
  1

  3
Standard
100
AcDbAlignedDimension
 13
106.0
 23
30.0
 33
0.0
 14
108.0
 24
30.0
 34
0.0
 50
0.0
100
AcDbRotatedDimension
  0
DIMENSION
  5
84
100
AcDbEntity
  8
Dimensions
 62
256
370
-1
  6
ByLayer
100
AcDbDimension
 10
105.0
 20
44.0
 30
0.0
 11
102.5
 21
45.875
 31
0.0
 70
0
 71
5
 72
1
 41
1.0
 42
0.0
  1

  3
Standard
100
AcDbAlignedDimension
 13
100.0
 23
40.0
 33
0.0
 14
105.0
 24
40.0
 34
0.0
 50
0.0
100
AcDbRotatedDimension
  0
DIMENSION
  5
85
100
AcDbEntity
  8
Dimensions
 62
256
370
-1
  6
ByLayer
100
AcDbDimension
 10
119.0
 20
44.0
 30
0.0
 11
116.5
 21
45.875
 31
0.0
 70
0
 71
5
 72
1
 41
1.0
 42
0.0
  1

  3
Standard
100
AcDbAlignedDimension
 13
114.0
 23
35.0
 33
0.0
 14
119.0
 24
40.0
 34
0.0
 50
0.0
100
AcDbRotatedDimension
  0
DIMENSION
  5
86
100
AcDbEntity
  8
Dimensions
 62
256
370
-1
  6
ByLayer
100
AcDbDimension
 10
114.0
 20
44.0
 30
0.0
 11
109.5
 21
45.875
 31
0.0
 70
0
 71
5
 72
1
 41
1.0
 42
0.0
  1

  3
Standard
100
AcDbAlignedDimension
 13
105.0
 23
40.0
 33
0.0
 14
114.0
 24
40.0
 34
0.0
 50
0.0
100
AcDbRotatedDimension
  0
LEADER
  5
87
  8
Dimensions
 62
256
370
-1
  6
ByLayer
100
AcDbEntity
100
AcDbLeader
  3
Standard
 71
1
 72
0
 73
3
 74
0
 75
0
 40
1.0
 41
10.0
 76
3
 10
108.6213583206737638
 20
34.2164734609922334
 10
121.0
 20
18.0
 10
136.0
 20
18.0
  0
LEADER
  5
88
  8
Dimensions
 62
256
370
-1
  6
ByLayer
100
AcDbEntity
100
AcDbLeader
  3
Standard
 71
1
 72
0
 73
3
 74
0
 75
0
 40
1.0
 41
10.0
 76
3
 10
115.7780787617200531
 20
32.3695892113359847
 10
122.0
 20
24.0
 10
136.0
 20
24.0
  0
MTEXT
  5
89
100
AcDbEntity
100
AcDbMText
  8
Dimensions
 62
256
370
-1
  6
ByLayer
 10
133.0
 20
20.0
 30
0.0
 40
3.0
 41
100.0
 71
5
 72
2
  1
M2
  7
iso
 50
0.0
 73
1
 44
1.0
  0
LINE
  5
8A
100
AcDbEntity
100
AcDbLine
  8
x-ray
 62
256
370
-1
  6
ByLayer
 10
69.0
 20
58.0
 30
0.0
 11
67.1749999999999972
 21
58.0
 31
0.0
  0
LINE
  5
8B
100
AcDbEntity
100
AcDbLine
  8
x-ray
 62
256
370
-1
  6
ByLayer
 10
69.0
 20
61.0
 30
0.0
 11
67.1749999999999972
 21
61.0
 31
0.0
  0
DIMENSION
  5
8C
100
AcDbEntity
  8
Dimensions
 62
256
370
-1
  6
ByLayer
100
AcDbDimension
 10
55.0
 20
72.0
 30
0.0
 11
52.5
 21
73.875
 31
0.0
 70
0
 71
5
 72
0
 41
1.0
 42
0.0
  1

  3
Standard
100
AcDbAlignedDimension
 13
50.0
 23
69.0
 33
0.0
 14
55.0
 24
68.4000000000000057
 34
0.0
 50
0.0
100
AcDbRotatedDimension
  0
DIMENSION
  5
8D
100
AcDbEntity
  8
Dimensions
 62
256
370
-1
  6
ByLayer
100
AcDbDimension
 10
58.0
 20
76.0
 30
0.0
 11
54.0
 21
77.875
 31
0.0
 70
0
 71
5
 72
0
 41
1.0
 42
0.0
  1

  3
Standard
100
AcDbAlignedDimension
 13
50.0
 23
69.0
 33
0.0
 14
58.0
 24
69.0000000000000142
 34
0.0
 50
0.0
100
AcDbRotatedDimension
  0
LINE
  5
8E
100
AcDbEntity
100
AcDbLine
  8
x-ray
 62
256
370
-1
  6
ByLayer
 10
119.0
 20
78.25
 30
0.0
 11
100.0
 21
78.25
 31
0.0
  0
LINE
  5
8F
100
AcDbEntity
100
AcDbLine
  8
x-ray
 62
256
370
-1
  6
ByLayer
 10
119.0
 20
71.75
 30
0.0
 11
100.0
 21
71.75
 31
0.0
  0
LINE
  5
90
100
AcDbEntity
100
AcDbLine
  8
x-ray
 62
256
370
-1
  6
ByLayer
 10
67.25
 20
50.0
 30
0.0
 11
67.25
 21
69.0
 31
0.0
  0
LINE
  5
91
100
AcDbEntity
100
AcDbLine
  8
x-ray
 62
256
370
-1
  6
ByLayer
 10
60.75
 20
50.0
 30
0.0
 11
60.75
 21
69.0000000000000142
 31
0.0
  0
CIRCLE
  5
92
100
AcDbEntity
100
AcDbCircle
  8
Dimensions
 62
256
370
-1
  6
ByLayer
 10
114.0
 20
35.0
 30
0.0
 40
3.25
  0
MTEXT
  5
93
100
AcDbEntity
100
AcDbMText
  8
Dimensions
 62
256
370
-1
  6
ByLayer
 10
133.0
 20
26.0
 30
0.0
 40
3.0
 41
100.0
 71
5
 72
2
  1
\U+23006.5
  7
iso
 50
0.0
 73
1
 44
1.0
  0
CIRCLE
  5
94
100
AcDbEntity
100
AcDbCircle
  8
x-ray
 62
256
370
-1
  6
ByLayer
 10
55.0
 20
59.5
 30
0.0
 40
3.5
  0
LEADER
  5
95
  8
Dimensions
 62
256
370
-1
  6
ByLayer
100
AcDbEntity
100
AcDbLeader
  3
Standard
 71
1
 72
0
 73
3
 74
0
 75
0
 40
1.0
 41
10.0
 76
3
 10
108.5505790133987176
 20
76.1612922931807645
 10
101.0
 20
87.0
 10
86.0
 20
87.0
  0
MTEXT
  5
96
100
AcDbEntity
100
AcDbMText
  8
Dimensions
 62
256
370
-1
  6
ByLayer
 10
89.1666666666667567
 20
89.0
 30
0.0
 40
3.0
 41
100.0
 71
5
 72
2
  1
M3
  7
iso
 50
0.0
 73
1
 44
1.0
  0
LINE
  5
97
100
AcDbEntity
100
AcDbLine
  8
x-ray
 62
256
370
-1
  6
ByLayer
 10
112.5
 20
70.5
 30
0.0
 11
113.0
 21
70.0
 31
0.0
  0
LINE
  5
98
100
AcDbEntity
100
AcDbLine
  8
x-ray
 62
256
370
-1
  6
ByLayer
 10
112.5
 20
80.0
 30
0.0
 11
112.5
 21
70.5
 31
0.0
  0
LINE
  5
99
100
AcDbEntity
100
AcDbLine
  8
x-ray
 62
256
370
-1
  6
ByLayer
 10
106.0
 20
70.0
 30
0.0
 11
106.5
 21
70.5
 31
0.0
  0
LINE
  5
9A
100
AcDbEntity
100
AcDbLine
  8
x-ray
 62
256
370
-1
  6
ByLayer
 10
106.5
 20
80.0
 30
0.0
 11
106.5
 21
70.5
 31
0.0
  0
LINE
  5
9B
100
AcDbEntity
100
AcDbLine
  8
x-ray
 62
256
370
-1
  6
ByLayer
 10
106.5
 20
70.5
 30
0.0
 11
112.5
 21
70.5
 31
0.0
  0
LINE
  5
9C
100
AcDbEntity
100
AcDbLine
  8
x-ray
 62
256
370
-1
  6
ByLayer
 10
108.0
 20
30.5
 30
0.0
 11
108.5
 21
30.0
 31
0.0
  0
LINE
  5
9D
100
AcDbEntity
100
AcDbLine
  8
x-ray
 62
256
370
-1
  6
ByLayer
 10
101.5
 20
30.0
 30
0.0
 11
102.0
 21
30.5
 31
0.0
  0
LINE
  5
9E
100
AcDbEntity
100
AcDbLine
  8
x-ray
 62
256
370
-1
  6
ByLayer
 10
102.0
 20
30.5
 30
0.0
 11
108.0
 21
30.5
 31
0.0
  0
LINE
  5
9F
100
AcDbEntity
100
AcDbLine
  8
x-ray
 62
256
370
-1
  6
ByLayer
 10
102.0
 20
40.0
 30
0.0
 11
102.0
 21
30.5
 31
0.0
  0
LINE
  5
A0
100
AcDbEntity
100
AcDbLine
  8
x-ray
 62
256
370
-1
  6
ByLayer
 10
108.0
 20
40.0
 30
0.0
 11
108.0
 21
30.5
 31
0.0
  0
DIMENSION
  5
A1
100
AcDbEntity
  8
Dimensions
 62
256
370
-1
  6
ByLayer
100
AcDbDimension
 10
67.25
 20
75.0
 30
0.0
 11
64.0
 21
76.875
 31
0.0
 70
0
 71
5
 72
1
 41
1.0
 42
0.0
  1
%%c<>
  3
Standard
100
AcDbAlignedDimension
 13
60.75
 23
69.0000000000000142
 33
0.0
 14
67.25
 24
69.0
 34
0.0
 50
0.0
100
AcDbRotatedDimension
  0
DIMENSION
  5
A2
100
AcDbEntity
  8
Dimensions
 62
256
370
-1
  6
ByLayer
100
AcDbDimension
 10
59.0
 20
80.0
 30
0.0
 11
58.0
 21
81.875
 31
0.0
 70
0
 71
5
 72
0
 41
1.0
 42
0.0
  1
%%c<>
  3
Standard
100
AcDbAlignedDimension
 13
57.0
 23
69.0000000000000142
 33
0.0
 14
59.0
 24
69.0000000000000142
 34
0.0
 50
0.0
100
AcDbRotatedDimension
  0
DIMENSION
  5
A3
100
AcDbEntity
  8
Dimensions
 62
256
370
-1
  6
ByLayer
100
AcDbDimension
 10
127.0
 20
74.0
 30
0.0
 11
125.125
 21
75.0
 31
0.0
 70
0
 71
5
 72
1
 41
1.0
 42
0.0
  1
%%c<>
  3
Standard
100
AcDbAlignedDimension
 13
119.0
 23
76.0
 33
0.0
 14
119.0
 24
74.0
 34
0.0
 50
90.0
100
AcDbRotatedDimension
  0
DIMENSION
  5
A4
100
AcDbEntity
  8
Dimensions
 62
256
370
-1
  6
ByLayer
100
AcDbDimension
 10
136.0
 20
71.75
 30
0.0
 11
134.125
 21
75.0
 31
0.0
 70
0
 71
5
 72
1
 41
1.0
 42
0.0
  1
%%c<>
  3
Standard
100
AcDbAlignedDimension
 13
119.0
 23
78.25
 33
0.0
 14
119.0
 24
71.75
 34
0.0
 50
90.0
100
AcDbRotatedDimension
  0
DIMENSION
  5
A5
100
AcDbEntity
  8
Dimensions
 62
256
370
-1
  6
ByLayer
100
AcDbDimension
 10
131.0
 20
34.0
 30
0.0
 11
129.125
 21
35.0
 31
0.0
 70
0
 71
5
 72
0
 41
1.0
 42
0.0
  1
%%c<>
  3
Standard
100
AcDbAlignedDimension
 13
119.0
 23
36.0
 33
0.0
 14
119.0
 24
34.0
 34
0.0
 50
90.0
100
AcDbRotatedDimension
  0
DIMENSION
  5
A6
100
AcDbEntity
  8
Dimensions
 62
256
370
-1
  6
ByLayer
100
AcDbDimension
 10
106.0
 20
20.0
 30
0.0
 11
105.0
 21
21.875
 31
0.0
 70
0
 71
5
 72
1
 41
1.0
 42
0.0
  1
%%c<>
  3
Standard
100
AcDbAlignedDimension
 13
104.0
 23
30.0
 33
0.0
 14
106.0
 24
30.0
 34
0.0
 50
0.0
100
AcDbRotatedDimension
  0
ENDSEC
  0
SECTION
  2
OBJECTS
  0
DICTIONARY
  5
C
100
AcDbDictionary
280
0
281
1
  3
ACAD_GROUP
350
D
  3
ACAD_LAYOUT
350
1A
  3
ACAD_MLINESTYLE
350
17
  3
ACAD_PLOTSETTINGS
350
19
  3
ACAD_PLOTSTYLENAME
350
E
  3
AcDbVariableDictionary
350
A7
  0
DICTIONARY
  5
D
100
AcDbDictionary
280
0
281
1
  0
ACDBDICTIONARYWDFLT
  5
E
100
AcDbDictionary
281
1
  3
Normal
350
F
100
AcDbDictionaryWithDefault
340
F
  0
ACDBPLACEHOLDER
  5
F
  0
DICTIONARY
  5
17
100
AcDbDictionary
280
0
281
1
  3
Standard
350
18
  0
MLINESTYLE
  5
18
100
AcDbMlineStyle
  2
STANDARD
 70
0
  3

 62
256
 51
90.0
 52
90.0
 71
2
 49
0.5
 62
256
  6
BYLAYER
 49
-0.5
 62
256
  6
BYLAYER
  0
DICTIONARY
  5
19
100
AcDbDictionary
280
0
281
1
  0
DICTIONARY
  5
1A
100
AcDbDictionary
281
1
  3
Layout1
350
1E
  3
Layout2
350
26
  3
Model
350
22
  0
LAYOUT
  5
1E
100
AcDbPlotSettings
  1

  2
C:\Program Files\AutoCAD 2002\plotters\DWF ePlot (optimized for plotting).pc3
  4

  6

 40
0.0
 41
0.0
 42
0.0
 43
0.0
 44
0.0
 45
0.0
 46
0.0
 47
0.0
 48
0.0
 49
0.0
140
0.0
141
0.0
142
1.0
143
1.0
 70
688
 72
0
 73
0
 74
5
  7

 75
16
147
1.0
148
0.0
149
0.0
100
AcDbLayout
  1
Layout1
 70
1
 71
1
 10
0.0
 20
0.0
 11
420.0
 21
297.0
 12
0.0
 22
0.0
 32
0.0
 14
100000000000000000000.0
 24
100000000000000000000.0
 34
100000000000000000000.0
 15
-100000000000000000000.0
 25
-100000000000000000000.0
 35
-100000000000000000000.0
146
0.0
 13
0.0
 23
0.0
 33
0.0
 16
1.0
 26
0.0
 36
0.0
 17
0.0
 27
1.0
 37
0.0
 76
0
330
1B
  0
LAYOUT
  5
22
100
AcDbPlotSettings
  1

  2
C:\Program Files\AutoCAD 2002\plotters\DWF ePlot (optimized for plotting).pc3
  4

  6

 40
0.0
 41
0.0
 42
0.0
 43
0.0
 44
0.0
 45
0.0
 46
0.0
 47
0.0
 48
0.0
 49
0.0
140
0.0
141
0.0
142
1.0
143
1.0
 70
1712
 72
0
 73
0
 74
0
  7

 75
0
147
1.0
148
0.0
149
0.0
100
AcDbLayout
  1
Model
 70
1
 71
0
 10
0.0
 20
0.0
 11
12.0
 21
9.0
 12
0.0
 22
0.0
 32
0.0
 14
0.0
 24
0.0
 34
0.0
 15
0.0
 25
0.0
 35
0.0
146
0.0
 13
0.0
 23
0.0
 33
0.0
 16
1.0
 26
0.0
 36
0.0
 17
0.0
 27
1.0
 37
0.0
 76
0
330
1F
  0
LAYOUT
  5
26
100
AcDbPlotSettings
  1

  2
C:\Program Files\AutoCAD 2002\plotters\DWF ePlot (optimized for plotting).pc3
  4

  6

 40
0.0
 41
0.0
 42
0.0
 43
0.0
 44
0.0
 45
0.0
 46
0.0
 47
0.0
 48
0.0
 49
0.0
140
0.0
141
0.0
142
1.0
143
1.0
 70
688
 72
0
 73
0
 74
5
  7

 75
16
147
1.0
148
0.0
149
0.0
100
AcDbLayout
  1
Layout2
 70
1
 71
2
 10
0.0
 20
0.0
 11
12.0
 21
9.0
 12
0.0
 22
0.0
 32
0.0
 14
0.0
 24
0.0
 34
0.0
 15
0.0
 25
0.0
 35
0.0
146
0.0
 13
0.0
 23
0.0
 33
0.0
 16
1.0
 26
0.0
 36
0.0
 17
0.0
 27
1.0
 37
0.0
 76
0
330
23
  0
DICTIONARY
  5
A7
100
AcDbDictionary
281
1
  3
DIMASSOC
350
A9
  3
HIDETEXT
350
A8
  0
DICTIONARYVAR
  5
A8
100
DictionaryVariables
280
0
  1
2
  0
DICTIONARYVAR
  5
A9
100
DictionaryVariables
280
0
  1
1
  0
ENDSEC
  0
EOF
