  0
SECTION
  2
HEADER
  9
$ACADVER
  1
AC1014
  9
$HANDSEED
  5
FFFF
  9
$MEASUREMENT
 70
     1
  0
ENDSEC
  0
SECTION
  2
TABLES
  0
TABLE
  2
VPORT
  5
8
330
0
100
AcDbSymbolTable
 70
     4
  0
VPORT
  5
2E
330
8
100
AcDbSymbolTableRecord
100
AcDbViewportTableRecord
  2
*ACTIVE
 70
     0
 10
0.0
 20
0.0
 11
1.0
 21
1.0
 12
210.0
 22
148.5
 13
0.0
 23
0.0
 14
10.0
 24
10.0
 15
10.0
 25
10.0
 16
0.0
 26
0.0
 36
1.0
 17
0.0
 27
0.0
 37
0.0
 40
341.0
 41
1.24
 42
50.0
 43
0.0
 44
0.0
 50
0.0
 51
0.0
 71
     0
 72
   100
 73
     1
 74
     3
 75
     0
 76
     0
 77
     0
 78
     0
  0
ENDTAB
  0
TABLE
  2
LTYPE
  5
5
330
0
100
AcDbSymbolTable
 70
     1
  0
LTYPE
  5
14
330
5
100
AcDbSymbolTableRecord
100
AcDbLinetypeTableRecord
  2
BYBLOCK
 70
     0
  3

 72
    65
 73
     0
 40
0.0
  0
LTYPE
  5
15
330
5
100
AcDbSymbolTableRecord
100
AcDbLinetypeTableRecord
  2
BYLAYER
 70
     0
  3

 72
    65
 73
     0
 40
0.0
  0
LTYPE
  5
16
330
5
100
AcDbSymbolTableRecord
100
AcDbLinetypeTableRecord
  2
CONTINUOUS
 70
     0
  3
Solid line
 72
    65
 73
     0
 40
0.0
  0
ENDTAB
  0
TABLE
  2
LAYER
  5
2
100
AcDbSymbolTable
 70
2
  0
LAYER
  5
50
100
AcDbSymbolTableRecord
100
AcDbLayerTableRecord
  2
0
 70
0
  6
CONTINUOUS
  0
LAYER
  5
51
100
AcDbSymbolTableRecord
100
AcDbLayerTableRecord
  2
logokikaiout
 70
0
  6
CONTINUOUS
  0
ENDTAB
  0
TABLE
  2
STYLE
  5
3
330
0
100
AcDbSymbolTable
 70
     1
  0
STYLE
  5
11
330
3
100
AcDbSymbolTableRecord
100
AcDbTextStyleTableRecord
  2
STANDARD
 70
     0
 40
0.0
 41
1.0
 50
0.0
 71
     0
 42
2.5
  3
txt
  4

  0
ENDTAB
  0
TABLE
  2
VIEW
  5
6
330
0
100
AcDbSymbolTable
 70
     0
  0
ENDTAB
  0
TABLE
  2
UCS
  5
7
330
0
100
AcDbSymbolTable
 70
     0
  0
ENDTAB
  0
TABLE
  2
APPID
  5
9
330
0
100
AcDbSymbolTable
 70
     2
  0
APPID
  5
12
330
9
100
AcDbSymbolTableRecord
100
AcDbRegAppTableRecord
  2
ACAD
 70
     0
  0
ENDTAB
  0
TABLE
  2
DIMSTYLE
  5
A
330
0
100
AcDbSymbolTable
 70
     1
  0
DIMSTYLE
105
27
330
A
100
AcDbSymbolTableRecord
100
AcDbDimStyleTableRecord
  2
ISO-25
 70
     0
  3

  4

  5

  6

  7

 40
1.0
 41
2.5
 42
0.625
 43
3.75
 44
1.25
 45
0.0
 46
0.0
 47
0.0
 48
0.0
140
2.5
141
2.5
142
0.0
143
0.03937007874016
144
1.0
145
0.0
146
1.0
147
0.625
 71
     0
 72
     0
 73
     0
 74
     0
 75
     0
 76
     0
 77
     1
 78
     8
170
     0
171
     3
172
     1
173
     0
174
     0
175
     0
176
     0
177
     0
178
     0
270
     2
271
     2
272
     2
273
     2
274
     3
340
11
275
     0
280
     0
281
     0
282
     0
283
     0
284
     8
285
     0
286
     0
287
     3
288
     0
  0
ENDTAB
  0
TABLE
  2
BLOCK_RECORD
  5
1
330
0
100
AcDbSymbolTable
 70
     1
  0
BLOCK_RECORD
  5
1F
330
1
100
AcDbSymbolTableRecord
100
AcDbBlockTableRecord
  2
*MODEL_SPACE
  0
BLOCK_RECORD
  5
1B
330
1
100
AcDbSymbolTableRecord
100
AcDbBlockTableRecord
  2
*PAPER_SPACE
  0
ENDTAB
  0
ENDSEC
  0
SECTION
  2
BLOCKS
  0
BLOCK
  5
20
330
1F
100
AcDbEntity
  8
0
100
AcDbBlockBegin
  2
*MODEL_SPACE
 70
     0
 10
0.0
 20
0.0
 30
0.0
  3
*MODEL_SPACE
  1

  0
ENDBLK
  5
21
330
1F
100
AcDbEntity
  8
0
100
AcDbBlockEnd
  0
BLOCK
  5
1C
330
1B
100
AcDbEntity
 67
     1
  8
0
100
AcDbBlockBegin
  2
*PAPER_SPACE
  1

  0
ENDBLK
  5
1D
330
1B
100
AcDbEntity
 67
     1
  8
0
100
AcDbBlockEnd
  0
ENDSEC
  0
SECTION
  2
ENTITIES
  0
LWPOLYLINE
  5
100
100
AcDbEntity
  8
logokikaiout
 62
7
100
AcDbPolyline
 90
61
 70
0
 10
4.620333
 20
10.321795
 30
0.0
 10
3.895638
 20
9.067053
 30
0.0
 10
3.170944
 20
7.812311
 30
0.0
 10
2.446250
 20
6.557568
 30
0.0
 10
1.721557
 20
5.302826
 30
0.0
 10
1.291168
 20
5.302826
 30
0.0
 10
0.860779
 20
5.302826
 30
0.0
 10
0.430390
 20
5.302826
 30
0.0
 10
0.000001
 20
5.302826
 30
0.0
 10
0.000001
 20
9.932682
 30
0.0
 10
0.000001
 20
14.562537
 30
0.0
 10
0.000001
 20
19.192393
 30
0.0
 10
0.000001
 20
23.822248
 30
0.0
 10
0.452262
 20
23.822248
 30
0.0
 10
0.904523
 20
23.822248
 30
0.0
 10
1.356784
 20
23.822248
 30
0.0
 10
1.809046
 20
23.822248
 30
0.0
 10
1.809046
 20
20.126107
 30
0.0
 10
1.809046
 20
16.429966
 30
0.0
 10
1.809046
 20
12.733825
 30
0.0
 10
1.809046
 20
9.037684
 30
0.0
 10
2.837657
 20
10.817713
 30
0.0
 10
3.866269
 20
12.597741
 30
0.0
 10
4.894882
 20
14.377770
 30
0.0
 10
5.923494
 20
16.157798
 30
0.0
 10
6.438990
 20
16.157798
 30
0.0
 10
6.954487
 20
16.157798
 30
0.0
 10
7.469983
 20
16.157798
 30
0.0
 10
7.985480
 20
16.157798
 30
0.0
 10
7.360534
 20
15.075652
 30
0.0
 10
6.735588
 20
13.993507
 30
0.0
 10
6.110642
 20
12.911361
 30
0.0
 10
5.485697
 20
11.829215
 30
0.0
 10
6.103569
 20
11.636665
 30
0.0
 10
6.711557
 20
11.331004
 30
0.0
 10
7.309685
 20
10.912236
 30
0.0
 10
7.897991
 20
10.380357
 30
0.0
 10
8.608581
 20
9.527396
 30
0.0
 10
9.116267
 20
8.593008
 30
0.0
 10
9.420950
 20
7.577128
 30
0.0
 10
9.522533
 20
6.479693
 30
0.0
 10
9.522533
 20
6.185476
 30
0.0
 10
9.522533
 20
5.891259
 30
0.0
 10
9.522533
 20
5.597043
 30
0.0
 10
9.522533
 20
5.302826
 30
0.0
 10
9.087205
 20
5.302826
 30
0.0
 10
8.651877
 20
5.302826
 30
0.0
 10
8.216549
 20
5.302826
 30
0.0
 10
7.781222
 20
5.302826
 30
0.0
 10
7.781222
 20
5.597043
 30
0.0
 10
7.781222
 20
5.891259
 30
0.0
 10
7.781222
 20
6.185476
 30
0.0
 10
7.781222
 20
6.479693
 30
0.0
 10
7.710109
 20
7.258372
 30
0.0
 10
7.496752
 20
7.979968
 30
0.0
 10
7.141113
 20
8.644545
 30
0.0
 10
6.643160
 20
9.252173
 30
0.0
 10
6.162935
 20
9.668885
 30
0.0
 10
5.665747
 20
9.986085
 30
0.0
 10
5.151556
 20
10.203731
 30
0.0
 10
4.620333
 20
10.321795
 30
0.0
  0
LWPOLYLINE
  5
101
100
AcDbEntity
  8
logokikaiout
 62
7
100
AcDbPolyline
 90
17
 70
0
 10
12.488794
 20
5.302826
 30
0.0
 10
12.036533
 20
5.302826
 30
0.0
 10
11.584272
 20
5.302826
 30
0.0
 10
11.132011
 20
5.302826
 30
0.0
 10
10.679750
 20
5.302826
 30
0.0
 10
10.679750
 20
7.189834
 30
0.0
 10
10.679750
 20
9.076843
 30
0.0
 10
10.679750
 20
10.963851
 30
0.0
 10
10.679750
 20
12.850859
 30
0.0
 10
11.132011
 20
12.850859
 30
0.0
 10
11.584272
 20
12.850859
 30
0.0
 10
12.036533
 20
12.850859
 30
0.0
 10
12.488794
 20
12.850859
 30
0.0
 10
12.488794
 20
10.963851
 30
0.0
 10
12.488794
 20
9.076843
 30
0.0
 10
12.488794
 20
7.189834
 30
0.0
 10
12.488794
 20
5.302826
 30
0.0
  0
LWPOLYLINE
  5
102
100
AcDbEntity
  8
logokikaiout
 62
7
100
AcDbPolyline
 90
49
 70
0
 10
11.584625
 20
16.157798
 30
0.0
 10
11.758054
 20
16.146862
 30
0.0
 10
11.928541
 20
16.114089
 30
0.0
 10
12.096047
 20
16.059412
 30
0.0
 10
12.260547
 20
15.982810
 30
0.0
 10
12.413928
 20
15.886706
 30
0.0
 10
12.548590
 20
15.773570
 30
0.0
 10
12.664467
 20
15.643431
 30
0.0
 10
12.761491
 20
15.496329
 30
0.0
 10
12.838093
 20
15.339509
 30
0.0
 10
12.892770
 20
15.180240
 30
0.0
 10
12.925544
 20
15.018591
 30
0.0
 10
12.936444
 20
14.854627
 30
0.0
 10
12.925790
 20
14.690730
 30
0.0
 10
12.893864
 20
14.529806
 30
0.0
 10
12.840722
 20
14.371928
 30
0.0
 10
12.766381
 20
14.217157
 30
0.0
 10
12.671589
 20
14.072045
 30
0.0
 10
12.558111
 20
13.942608
 30
0.0
 10
12.425911
 20
13.828915
 30
0.0
 10
12.274961
 20
13.731029
 30
0.0
 10
12.111526
 20
13.652166
 30
0.0
 10
11.941939
 20
13.595961
 30
0.0
 10
11.766266
 20
13.562306
 30
0.0
 10
11.584575
 20
13.551123
 30
0.0
 10
11.402679
 20
13.562306
 30
0.0
 10
11.226901
 20
13.595961
 30
0.0
 10
11.057278
 20
13.652166
 30
0.0
 10
10.893836
 20
13.731029
 30
0.0
 10
10.742689
 20
13.828915
 30
0.0
 10
10.610425
 20
13.942608
 30
0.0
 10
10.497011
 20
14.072045
 30
0.0
 10
10.402417
 20
14.217157
 30
0.0
 10
10.328076
 20
14.371928
 30
0.0
 10
10.274934
 20
14.529806
 30
0.0
 10
10.243007
 20
14.690730
 30
0.0
 10
10.232353
 20
14.854627
 30
0.0
 10
10.243325
 20
15.018591
 30
0.0
 10
10.276204
 20
15.180240
 30
0.0
 10
10.330895
 20
15.339509
 30
0.0
 10
10.407349
 20
15.496329
 30
0.0
 10
10.504373
 20
15.643431
 30
0.0
 10
10.620250
 20
15.773570
 30
0.0
 10
10.754912
 20
15.886706
 30
0.0
 10
10.908293
 20
15.982810
 30
0.0
 10
11.072797
 20
16.059412
 30
0.0
 10
11.240345
 20
16.114089
 30
0.0
 10
11.410934
 20
16.146862
 30
0.0
 10
11.584568
 20
16.157798
 30
0.0
  0
LWPOLYLINE
  5
103
100
AcDbEntity
  8
logokikaiout
 62
7
100
AcDbPolyline
 90
61
 70
0
 10
18.957116
 20
10.321795
 30
0.0
 10
18.232422
 20
9.067053
 30
0.0
 10
17.507728
 20
7.812311
 30
0.0
 10
16.783034
 20
6.557568
 30
0.0
 10
16.058341
 20
5.302826
 30
0.0
 10
15.627952
 20
5.302826
 30
0.0
 10
15.197563
 20
5.302826
 30
0.0
 10
14.767174
 20
5.302826
 30
0.0
 10
14.336785
 20
5.302826
 30
0.0
 10
14.336785
 20
9.932682
 30
0.0
 10
14.336785
 20
14.562537
 30
0.0
 10
14.336785
 20
19.192393
 30
0.0
 10
14.336785
 20
23.822248
 30
0.0
 10
14.789046
 20
23.822248
 30
0.0
 10
15.241307
 20
23.822248
 30
0.0
 10
15.693569
 20
23.822248
 30
0.0
 10
16.145830
 20
23.822248
 30
0.0
 10
16.145830
 20
20.126107
 30
0.0
 10
16.145830
 20
16.429966
 30
0.0
 10
16.145830
 20
12.733825
 30
0.0
 10
16.145830
 20
9.037684
 30
0.0
 10
17.174441
 20
10.817713
 30
0.0
 10
18.203053
 20
12.597741
 30
0.0
 10
19.231665
 20
14.377770
 30
0.0
 10
20.260277
 20
16.157798
 30
0.0
 10
20.775773
 20
16.157798
 30
0.0
 10
21.291270
 20
16.157798
 30
0.0
 10
21.806766
 20
16.157798
 30
0.0
 10
22.322263
 20
16.157798
 30
0.0
 10
21.697317
 20
15.075652
 30
0.0
 10
21.072371
 20
13.993507
 30
0.0
 10
20.447425
 20
12.911361
 30
0.0
 10
19.822480
 20
11.829215
 30
0.0
 10
20.440352
 20
11.636665
 30
0.0
 10
21.048337
 20
11.331004
 30
0.0
 10
21.646468
 20
10.912236
 30
0.0
 10
22.234774
 20
10.380357
 30
0.0
 10
22.945364
 20
9.527396
 30
0.0
 10
23.453046
 20
8.593008
 30
0.0
 10
23.757733
 20
7.577128
 30
0.0
 10
23.859316
 20
6.479693
 30
0.0
 10
23.859316
 20
6.185476
 30
0.0
 10
23.859316
 20
5.891259
 30
0.0
 10
23.859316
 20
5.597043
 30
0.0
 10
23.859316
 20
5.302826
 30
0.0
 10
23.423988
 20
5.302826
 30
0.0
 10
22.988660
 20
5.302826
 30
0.0
 10
22.553332
 20
5.302826
 30
0.0
 10
22.118005
 20
5.302826
 30
0.0
 10
22.118005
 20
5.597043
 30
0.0
 10
22.118005
 20
5.891259
 30
0.0
 10
22.118005
 20
6.185476
 30
0.0
 10
22.118005
 20
6.479693
 30
0.0
 10
22.046892
 20
7.258372
 30
0.0
 10
21.833532
 20
7.979968
 30
0.0
 10
21.477896
 20
8.644545
 30
0.0
 10
20.979944
 20
9.252173
 30
0.0
 10
20.499718
 20
9.668885
 30
0.0
 10
20.002527
 20
9.986085
 30
0.0
 10
19.488339
 20
10.203731
 30
0.0
 10
18.957116
 20
10.321795
 30
0.0
  0
LWPOLYLINE
  5
104
100
AcDbEntity
  8
logokikaiout
 62
7
100
AcDbPolyline
 90
37
 70
0
 10
33.468877
 20
9.835668
 30
0.0
 10
33.468877
 20
10.309801
 30
0.0
 10
33.468877
 20
10.783934
 30
0.0
 10
33.468877
 20
11.258068
 30
0.0
 10
33.468877
 20
11.732201
 30
0.0
 10
33.317535
 20
12.219694
 30
0.0
 10
33.096872
 20
12.680468
 30
0.0
 10
32.806889
 20
13.114515
 30
0.0
 10
32.447585
 20
13.521843
 30
0.0
 10
31.864651
 20
14.007032
 30
0.0
 10
31.224504
 20
14.353516
 30
0.0
 10
30.527207
 20
14.561359
 30
0.0
 10
29.772824
 20
14.630623
 30
0.0
 10
29.026110
 20
14.560713
 30
0.0
 10
28.332213
 20
14.351005
 30
0.0
 10
27.691163
 20
14.001525
 30
0.0
 10
27.103002
 20
13.512318
 30
0.0
 10
26.611533
 20
12.922568
 30
0.0
 10
26.260526
 20
12.271997
 30
0.0
 10
26.049942
 20
11.560635
 30
0.0
 10
25.979757
 20
10.788520
 30
0.0
 10
26.049942
 20
10.016611
 30
0.0
 10
26.260526
 20
9.305354
 30
0.0
 10
26.611533
 20
8.654822
 30
0.0
 10
27.103002
 20
8.065076
 30
0.0
 10
27.691163
 20
7.575717
 30
0.0
 10
28.332210
 20
7.226259
 30
0.0
 10
29.026110
 20
7.016631
 30
0.0
 10
29.772824
 20
6.946770
 30
0.0
 10
30.527807
 20
7.016631
 30
0.0
 10
31.226931
 20
7.226259
 30
0.0
 10
31.870158
 20
7.575717
 30
0.0
 10
32.457463
 20
8.065076
 30
0.0
 10
32.812544
 20
8.464018
 30
0.0
 10
33.099430
 20
8.892029
 30
0.0
 10
33.318184
 20
9.349215
 30
0.0
 10
33.468877
 20
9.835668
 30
0.0
  0
LWPOLYLINE
  5
105
100
AcDbEntity
  8
logokikaiout
 62
7
100
AcDbPolyline
 90
45
 70
0
 10
33.468877
 20
14.912845
 30
0.0
 10
33.468877
 20
15.214382
 30
0.0
 10
33.468877
 20
15.515919
 30
0.0
 10
33.468877
 20
15.817456
 30
0.0
 10
33.468877
 20
16.118993
 30
0.0
 10
33.921138
 20
16.118993
 30
0.0
 10
34.373399
 20
16.118993
 30
0.0
 10
34.825660
 20
16.118993
 30
0.0
 10
35.277921
 20
16.118993
 30
0.0
 10
35.277921
 20
13.414951
 30
0.0
 10
35.277921
 20
10.710909
 30
0.0
 10
35.277921
 20
8.006868
 30
0.0
 10
35.277921
 20
5.302826
 30
0.0
 10
34.825660
 20
5.302826
 30
0.0
 10
34.373399
 20
5.302826
 30
0.0
 10
33.921138
 20
5.302826
 30
0.0
 10
33.468877
 20
5.302826
 30
0.0
 10
33.468877
 20
5.643345
 30
0.0
 10
33.468877
 20
5.983864
 30
0.0
 10
33.468877
 20
6.324382
 30
0.0
 10
33.468877
 20
6.664901
 30
0.0
 10
32.716197
 20
6.068844
 30
0.0
 10
31.849320
 20
5.643214
 30
0.0
 10
30.868206
 20
5.387905
 30
0.0
 10
29.772824
 20
5.302826
 30
0.0
 10
28.663433
 20
5.403766
 30
0.0
 10
27.640328
 20
5.706580
 30
0.0
 10
26.703541
 20
6.211275
 30
0.0
 10
25.853110
 20
6.917843
 30
0.0
 10
25.146595
 20
7.765028
 30
0.0
 10
24.642024
 20
8.692579
 30
0.0
 10
24.339330
 20
9.700434
 30
0.0
 10
24.238446
 20
10.788520
 30
0.0
 10
24.339330
 20
11.876769
 30
0.0
 10
24.642024
 20
12.884684
 30
0.0
 10
25.146595
 20
13.812362
 30
0.0
 10
25.853110
 20
14.659904
 30
0.0
 10
26.703541
 20
15.366271
 30
0.0
 10
27.640328
 20
15.870859
 30
0.0
 10
28.663433
 20
16.173634
 30
0.0
 10
29.772824
 20
16.274568
 30
0.0
 10
30.868206
 20
16.189442
 30
0.0
 10
31.849320
 20
15.934095
 30
0.0
 10
32.716197
 20
15.508550
 30
0.0
 10
33.468877
 20
14.912845
 30
0.0
  0
LWPOLYLINE
  5
106
100
AcDbEntity
  8
logokikaiout
 62
7
100
AcDbPolyline
 90
17
 70
0
 10
38.876925
 20
5.302826
 30
0.0
 10
38.424664
 20
5.302826
 30
0.0
 10
37.972402
 20
5.302826
 30
0.0
 10
37.520141
 20
5.302826
 30
0.0
 10
37.067880
 20
5.302826
 30
0.0
 10
37.067880
 20
7.189834
 30
0.0
 10
37.067880
 20
9.076843
 30
0.0
 10
37.067880
 20
10.963851
 30
0.0
 10
37.067880
 20
12.850859
 30
0.0
 10
37.520141
 20
12.850859
 30
0.0
 10
37.972402
 20
12.850859
 30
0.0
 10
38.424664
 20
12.850859
 30
0.0
 10
38.876925
 20
12.850859
 30
0.0
 10
38.876925
 20
10.963851
 30
0.0
 10
38.876925
 20
9.076843
 30
0.0
 10
38.876925
 20
7.189834
 30
0.0
 10
38.876925
 20
5.302826
 30
0.0
  0
LWPOLYLINE
  5
107
100
AcDbEntity
  8
logokikaiout
 62
7
100
AcDbPolyline
 90
49
 70
0
 10
37.972755
 20
16.157798
 30
0.0
 10
38.146184
 20
16.146862
 30
0.0
 10
38.316668
 20
16.114089
 30
0.0
 10
38.484177
 20
16.059412
 30
0.0
 10
38.648677
 20
15.982810
 30
0.0
 10
38.802058
 20
15.886706
 30
0.0
 10
38.936720
 20
15.773570
 30
0.0
 10
39.052597
 20
15.643431
 30
0.0
 10
39.149622
 20
15.496329
 30
0.0
 10
39.226224
 20
15.339509
 30
0.0
 10
39.280898
 20
15.180240
 30
0.0
 10
39.313671
 20
15.018591
 30
0.0
 10
39.324571
 20
14.854627
 30
0.0
 10
39.313918
 20
14.690730
 30
0.0
 10
39.281956
 20
14.529806
 30
0.0
 10
39.228708
 20
14.371928
 30
0.0
 10
39.154162
 20
14.217157
 30
0.0
 10
39.059572
 20
14.072045
 30
0.0
 10
38.946200
 20
13.942608
 30
0.0
 10
38.814038
 20
13.828915
 30
0.0
 10
38.663095
 20
13.731029
 30
0.0
 10
38.499512
 20
13.652166
 30
0.0
 10
38.329939
 20
13.595961
 30
0.0
 10
38.154351
 20
13.562306
 30
0.0
 10
37.972709
 20
13.551123
 30
0.0
 10
37.790665
 20
13.562306
 30
0.0
 10
37.614904
 20
13.595961
 30
0.0
 10
37.445363
 20
13.652166
 30
0.0
 10
37.281970
 20
13.731029
 30
0.0
 10
37.130773
 20
13.828915
 30
0.0
 10
36.998425
 20
13.942608
 30
0.0
 10
36.884997
 20
14.072045
 30
0.0
 10
36.790551
 20
14.217157
 30
0.0
 10
36.716210
 20
14.371928
 30
0.0
 10
36.663064
 20
14.529806
 30
0.0
 10
36.631138
 20
14.690730
 30
0.0
 10
36.620484
 20
14.854627
 30
0.0
 10
36.631455
 20
15.018591
 30
0.0
 10
36.664334
 20
15.180240
 30
0.0
 10
36.719025
 20
15.339509
 30
0.0
 10
36.795479
 20
15.496329
 30
0.0
 10
36.892454
 20
15.643431
 30
0.0
 10
37.008250
 20
15.773570
 30
0.0
 10
37.142895
 20
15.886706
 30
0.0
 10
37.296424
 20
15.982810
 30
0.0
 10
37.460928
 20
16.059412
 30
0.0
 10
37.628476
 20
16.114089
 30
0.0
 10
37.799065
 20
16.146862
 30
0.0
 10
37.972699
 20
16.157798
 30
0.0
  0
LWPOLYLINE
  5
108
100
AcDbEntity
  8
logokikaiout
 62
7
100
AcDbPolyline
 90
25
 70
0
 10
22.200660
 20
4.635653
 30
0.0
 10
22.329689
 20
4.635653
 30
0.0
 10
22.458717
 20
4.635653
 30
0.0
 10
22.587746
 20
4.635653
 30
0.0
 10
22.716774
 20
4.635653
 30
0.0
 10
22.716774
 20
3.612244
 30
0.0
 10
22.716774
 20
2.588836
 30
0.0
 10
22.716774
 20
1.565428
 30
0.0
 10
22.716774
 20
0.542019
 30
0.0
 10
23.359888
 20
0.542019
 30
0.0
 10
24.003002
 20
0.542019
 30
0.0
 10
24.646116
 20
0.542019
 30
0.0
 10
25.289230
 20
0.542019
 30
0.0
 10
25.289230
 20
0.422780
 30
0.0
 10
25.289230
 20
0.303542
 30
0.0
 10
25.289230
 20
0.184303
 30
0.0
 10
25.289230
 20
0.065062
 30
0.0
 10
24.517088
 20
0.065062
 30
0.0
 10
23.744945
 20
0.065062
 30
0.0
 10
22.972803
 20
0.065062
 30
0.0
 10
22.200660
 20
0.065062
 30
0.0
 10
22.200660
 20
1.207711
 30
0.0
 10
22.200660
 20
2.350358
 30
0.0
 10
22.200660
 20
3.493005
 30
0.0
 10
22.200660
 20
4.635653
 30
0.0
  0
LWPOLYLINE
  5
109
100
AcDbEntity
  8
logokikaiout
 62
7
100
AcDbPolyline
 90
13
 70
0
 10
29.205557
 20
1.736595
 30
0.0
 10
28.946089
 20
2.319296
 30
0.0
 10
28.686621
 20
2.901997
 30
0.0
 10
28.427153
 20
3.484698
 30
0.0
 10
28.167685
 20
4.067398
 30
0.0
 10
27.906453
 20
3.484698
 30
0.0
 10
27.645221
 20
2.901997
 30
0.0
 10
27.383989
 20
2.319296
 30
0.0
 10
27.122757
 20
1.736595
 30
0.0
 10
27.643457
 20
1.736595
 30
0.0
 10
28.164157
 20
1.736595
 30
0.0
 10
28.684857
 20
1.736595
 30
0.0
 10
29.205557
 20
1.736595
 30
0.0
  0
LWPOLYLINE
  5
10a
100
AcDbEntity
  8
logokikaiout
 62
7
100
AcDbPolyline
 90
33
 70
0
 10
27.932382
 20
4.668532
 30
0.0
 10
28.053209
 20
4.668532
 30
0.0
 10
28.174035
 20
4.668532
 30
0.0
 10
28.294861
 20
4.668532
 30
0.0
 10
28.415688
 20
4.668532
 30
0.0
 10
28.936388
 20
3.517682
 30
0.0
 10
29.457088
 20
2.366833
 30
0.0
 10
29.977788
 20
1.215984
 30
0.0
 10
30.498488
 20
0.065133
 30
0.0
 10
30.359758
 20
0.065133
 30
0.0
 10
30.221028
 20
0.065133
 30
0.0
 10
30.082298
 20
0.065133
 30
0.0
 10
29.943568
 20
0.065133
 30
0.0
 10
29.809689
 20
0.367112
 30
0.0
 10
29.675810
 20
0.669090
 30
0.0
 10
29.541931
 20
0.971068
 30
0.0
 10
29.408052
 20
1.273045
 30
0.0
 10
28.786016
 20
1.273045
 30
0.0
 10
28.163981
 20
1.273045
 30
0.0
 10
27.541945
 20
1.273045
 30
0.0
 10
26.919910
 20
1.273045
 30
0.0
 10
26.784443
 20
0.971068
 30
0.0
 10
26.648977
 20
0.669090
 30
0.0
 10
26.513510
 20
0.367112
 30
0.0
 10
26.378043
 20
0.065133
 30
0.0
 10
26.245840
 20
0.065133
 30
0.0
 10
26.113636
 20
0.065133
 30
0.0
 10
25.981433
 20
0.065133
 30
0.0
 10
25.849229
 20
0.065133
 30
0.0
 10
26.370018
 20
1.215984
 30
0.0
 10
26.890806
 20
2.366833
 30
0.0
 10
27.411594
 20
3.517682
 30
0.0
 10
27.932382
 20
4.668532
 30
0.0
  0
LWPOLYLINE
  5
10b
100
AcDbEntity
  8
logokikaiout
 62
7
100
AcDbPolyline
 90
25
 70
0
 10
33.441642
 20
0.528755
 30
0.0
 10
33.909150
 20
0.584614
 30
0.0
 10
34.262821
 20
0.745713
 30
0.0
 10
34.486715
 20
1.002327
 30
0.0
 10
34.564887
 20
1.344730
 30
0.0
 10
34.564887
 20
1.348258
 30
0.0
 10
34.564887
 20
1.351785
 30
0.0
 10
34.564887
 20
1.355313
 30
0.0
 10
34.564887
 20
1.358841
 30
0.0
 10
34.487117
 20
1.690463
 30
0.0
 10
34.256248
 20
1.936426
 30
0.0
 10
33.875961
 20
2.089387
 30
0.0
 10
33.349920
 20
2.142008
 30
0.0
 10
32.989205
 20
2.142008
 30
0.0
 10
32.628489
 20
2.142008
 30
0.0
 10
32.267774
 20
2.142008
 30
0.0
 10
31.907059
 20
2.142008
 30
0.0
 10
31.907059
 20
1.738871
 30
0.0
 10
31.907059
 20
1.335734
 30
0.0
 10
31.907059
 20
0.932597
 30
0.0
 10
31.907059
 20
0.529460
 30
0.0
 10
32.290705
 20
0.529460
 30
0.0
 10
32.674350
 20
0.529460
 30
0.0
 10
33.057996
 20
0.529460
 30
0.0
 10
33.441642
 20
0.528755
 30
0.0
  0
LWPOLYLINE
  5
10c
100
AcDbEntity
  8
logokikaiout
 62
7
100
AcDbPolyline
 90
25
 70
0
 10
33.258550
 20
2.598502
 30
0.0
 10
33.684600
 20
2.650745
 30
0.0
 10
34.016892
 20
2.805847
 30
0.0
 10
34.232827
 20
3.061357
 30
0.0
 10
34.309828
 20
3.414830
 30
0.0
 10
34.309828
 20
3.418005
 30
0.0
 10
34.309828
 20
3.421180
 30
0.0
 10
34.309828
 20
3.424355
 30
0.0
 10
34.309828
 20
3.427530
 30
0.0
 10
34.243517
 20
3.733889
 30
0.0
 10
34.048684
 20
3.968649
 30
0.0
 10
33.731481
 20
4.118936
 30
0.0
 10
33.298062
 20
4.171891
 30
0.0
 10
32.950311
 20
4.171891
 30
0.0
 10
32.602560
 20
4.171891
 30
0.0
 10
32.254809
 20
4.171891
 30
0.0
 10
31.907059
 20
4.171891
 30
0.0
 10
31.907059
 20
3.778456
 30
0.0
 10
31.907059
 20
3.385020
 30
0.0
 10
31.907059
 20
2.991585
 30
0.0
 10
31.907059
 20
2.598149
 30
0.0
 10
32.244932
 20
2.598149
 30
0.0
 10
32.582805
 20
2.598149
 30
0.0
 10
32.920678
 20
2.598149
 30
0.0
 10
33.258550
 20
2.598502
 30
0.0
  0
LWPOLYLINE
  5
10d
100
AcDbEntity
  8
logokikaiout
 62
7
100
AcDbPolyline
 90
41
 70
0
 10
31.397648
 20
4.635794
 30
0.0
 10
31.884128
 20
4.635794
 30
0.0
 10
32.370609
 20
4.635794
 30
0.0
 10
32.857089
 20
4.635794
 30
0.0
 10
33.343570
 20
4.635794
 30
0.0
 10
33.713969
 20
4.608348
 30
0.0
 10
34.039025
 20
4.528828
 30
0.0
 10
34.315071
 20
4.401553
 30
0.0
 10
34.538428
 20
4.230819
 30
0.0
 10
34.664264
 20
4.075276
 30
0.0
 10
34.756403
 20
3.901942
 30
0.0
 10
34.813016
 20
3.710218
 30
0.0
 10
34.832278
 20
3.499511
 30
0.0
 10
34.832278
 20
3.496336
 30
0.0
 10
34.832278
 20
3.493161
 30
0.0
 10
34.832278
 20
3.489986
 30
0.0
 10
34.832278
 20
3.486811
 30
0.0
 10
34.769512
 20
3.092955
 30
0.0
 10
34.604518
 20
2.793955
 30
0.0
 10
34.372249
 20
2.576976
 30
0.0
 10
34.107672
 20
2.429183
 30
0.0
 10
34.489290
 20
2.275961
 30
0.0
 10
34.800528
 20
2.051139
 30
0.0
 10
35.010166
 20
1.739464
 30
0.0
 10
35.086984
 20
1.325694
 30
0.0
 10
35.086984
 20
1.322519
 30
0.0
 10
35.086984
 20
1.319344
 30
0.0
 10
35.086984
 20
1.316169
 30
0.0
 10
35.086984
 20
1.312994
 30
0.0
 10
34.968351
 20
0.787591
 30
0.0
 10
34.632429
 20
0.395638
 30
0.0
 10
34.109182
 20
0.150598
 30
0.0
 10
33.428575
 20
0.065923
 30
0.0
 10
32.920840
 20
0.065923
 30
0.0
 10
32.413104
 20
0.065923
 30
0.0
 10
31.905369
 20
0.065923
 30
0.0
 10
31.397634
 20
0.065923
 30
0.0
 10
31.397634
 20
1.208572
 30
0.0
 10
31.397634
 20
2.351219
 30
0.0
 10
31.397634
 20
3.493866
 30
0.0
 10
31.397648
 20
4.635794
 30
0.0
  0
LWPOLYLINE
  5
10e
100
AcDbEntity
  8
logokikaiout
 62
7
100
AcDbPolyline
 90
73
 70
0
 10
35.810157
 20
0.730967
 30
0.0
 10
35.890061
 20
0.825600
 30
0.0
 10
35.969965
 20
0.920232
 30
0.0
 10
36.049869
 20
1.014865
 30
0.0
 10
36.129774
 20
1.109498
 30
0.0
 10
36.486845
 20
0.826944
 30
0.0
 10
36.854862
 20
0.624957
 30
0.0
 10
37.252185
 20
0.503669
 30
0.0
 10
37.697165
 20
0.463209
 30
0.0
 10
38.115263
 20
0.521290
 30
0.0
 10
38.436587
 20
0.682855
 30
0.0
 10
38.642818
 20
0.928893
 30
0.0
 10
38.715635
 20
1.240378
 30
0.0
 10
38.715635
 20
1.243553
 30
0.0
 10
38.715635
 20
1.246728
 30
0.0
 10
38.715635
 20
1.249903
 30
0.0
 10
38.715635
 20
1.253078
 30
0.0
 10
38.664916
 20
1.539551
 30
0.0
 10
38.481348
 20
1.770825
 30
0.0
 10
38.117793
 20
1.960359
 30
0.0
 10
37.527126
 20
2.121617
 30
0.0
 10
36.844043
 20
2.318742
 30
0.0
 10
36.365916
 20
2.585520
 30
0.0
 10
36.084833
 20
2.950193
 30
0.0
 10
35.992896
 20
3.441006
 30
0.0
 10
35.992896
 20
3.444181
 30
0.0
 10
35.992896
 20
3.447356
 30
0.0
 10
35.992896
 20
3.450531
 30
0.0
 10
35.992896
 20
3.453706
 30
0.0
 10
36.105404
 20
3.951574
 30
0.0
 10
36.418039
 20
4.346587
 30
0.0
 10
36.893456
 20
4.606926
 30
0.0
 10
37.494318
 20
4.700775
 30
0.0
 10
37.961290
 20
4.665360
 30
0.0
 10
38.373662
 20
4.559534
 30
0.0
 10
38.747995
 20
4.383921
 30
0.0
 10
39.100868
 20
4.139153
 30
0.0
 10
39.025814
 20
4.039582
 30
0.0
 10
38.950761
 20
3.940010
 30
0.0
 10
38.875708
 20
3.840439
 30
0.0
 10
38.800654
 20
3.740867
 30
0.0
 10
38.481447
 20
3.964369
 30
0.0
 10
38.158069
 20
4.118650
 30
0.0
 10
37.826225
 20
4.208040
 30
0.0
 10
37.481618
 20
4.236862
 30
0.0
 10
37.078968
 20
4.179448
 30
0.0
 10
36.772358
 20
4.022285
 30
0.0
 10
36.577138
 20
3.787998
 30
0.0
 10
36.508657
 20
3.499204
 30
0.0
 10
36.508657
 20
3.496029
 30
0.0
 10
36.508657
 20
3.492854
 30
0.0
 10
36.508657
 20
3.489679
 30
0.0
 10
36.508657
 20
3.486504
 30
0.0
 10
36.561083
 20
3.196305
 30
0.0
 10
36.751855
 20
2.961704
 30
0.0
 10
37.131204
 20
2.767514
 30
0.0
 10
37.749376
 20
2.598562
 30
0.0
 10
38.411657
 20
2.401007
 30
0.0
 10
38.875665
 20
2.130691
 30
0.0
 10
39.148708
 20
1.771079
 30
0.0
 10
39.238099
 20
1.305632
 30
0.0
 10
39.238099
 20
1.302457
 30
0.0
 10
39.238099
 20
1.299282
 30
0.0
 10
39.238099
 20
1.296107
 30
0.0
 10
39.238099
 20
1.292932
 30
0.0
 10
39.121886
 20
0.760364
 30
0.0
 10
38.798139
 20
0.352648
 30
0.0
 10
38.304200
 20
0.091838
 30
0.0
 10
37.677410
 20
-0.000000
 30
0.0
 10
37.156953
 20
0.045409
 30
0.0
 10
36.677637
 20
0.182034
 30
0.0
 10
36.231395
 20
0.410469
 30
0.0
 10
35.810157
 20
0.731309
 30
0.0
  0
ENDSEC
  0
SECTION
  2
OBJECTS
  0
DICTIONARY
  5
C
330
0
100
AcDbDictionary
  3
ACAD_GROUP
350
D
  3
ACAD_MLINESTYLE
350
17
  0
DICTIONARY
  5
D
330
C
100
AcDbDictionary
  0
DICTIONARY
  5
1A
330
C
100
AcDbDictionary
  0
DICTIONARY
  5
17
330
C
100
AcDbDictionary
  3
STANDARD
350
18
  0
DICTIONARY
  5
19
330
C
100
AcDbDictionary
  0
ENDSEC
  0
EOF
